<svg width="727" height="1024" viewBox="0 0 727 1024" fill="none" xmlns="http://www.w3.org/2000/svg">
<mask id="mask0_1265_377" style="mask-type:alpha" maskUnits="userSpaceOnUse" x="191" y="119" width="346" height="808">
<ellipse cx="363.696" cy="523.408" rx="123.945" ry="420.866" transform="rotate(17.3626 363.696 523.408)" fill="#D9D9D9"/>
</mask>
<g mask="url(#mask0_1265_377)">
<g opacity="0.2" filter="url(#filter0_f_1265_377)">
<path d="M153.955 1202.58C156.476 1199.56 159.701 1199.65 162.524 1198.9C201.695 1188.64 241.056 1178.95 278.65 1163.5C301.39 1154.15 299.567 1156.96 288.162 1135.42C265.539 1092.68 236.4 1054.59 209.231 1015.11C187.448 983.449 166.447 951.32 151.02 915.69C136.085 881.229 127.833 845.596 133.961 808.09C140.477 768.188 160.062 737.175 190.026 713.324C200.535 704.948 200.482 704.891 196.868 690.797C178.769 620.463 204.036 554.021 262.574 516.996C296.647 495.441 334.041 482.516 372.252 471.567C412.221 460.121 452.876 451.062 492.106 437.004C502.418 433.312 512.473 429.04 522.413 424.355C528.03 421.719 528.783 418.949 525.957 413.093C512.77 385.895 496.131 360.993 479.288 336.233C455.429 301.131 429.797 267.353 408.226 230.576C390.039 199.557 373.568 167.673 367.22 131.469C356.008 67.4967 375.629 16.906 423.197 -20.7402C430.563 -26.5716 432.184 -31.2553 429.672 -40.7159C410.045 -114.281 437.474 -183.334 498.888 -219.667C534.064 -240.481 572.205 -252.655 610.875 -263.831C614.98 -265.024 619.056 -264.624 623.061 -263.107C635.352 -258.431 647.637 -253.684 659.881 -248.86C661.87 -248.088 665.033 -247.691 664.995 -245.068C664.963 -241.686 661.393 -242.297 659.244 -241.673C652.462 -239.692 645.623 -237.973 637.292 -235.763C646.659 -228.458 655.942 -224.783 664.669 -220.124C692.263 -205.398 720.071 -191.124 747.822 -176.724C757.822 -171.535 759.591 -172.066 764.78 -181.97C767.273 -186.74 769.678 -191.619 771.549 -196.703C773.614 -202.286 777.218 -203.175 782.058 -201.352C792.266 -197.485 802.411 -193.42 812.644 -189.635C818.45 -187.475 818.439 -184.048 816.432 -178.757C805.054 -148.895 784.647 -127.904 759.234 -111.659C728.263 -91.8518 693.836 -80.9118 659.099 -70.9403C619.647 -59.6252 579.518 -50.6756 540.763 -37.0055C522.966 -30.7195 505.41 -23.7496 488.781 -14.5387C483.238 -11.4684 481.29 -8.36832 484.343 -0.948837C498.212 32.6011 517.53 62.6567 537.63 92.241C562.802 129.253 589.897 164.854 612.624 203.648C627.688 229.36 641.094 255.978 647.861 285.518C661.105 343.398 641.795 396.065 595.63 429.219C590.354 433.002 582.194 434.338 580.408 441.042C578.757 447.209 583.703 453.758 585.611 460.18C594.376 489.628 596.3 519.301 587.076 548.024C577.187 578.796 557.654 601.86 531.825 619.032C499.275 640.662 462.771 652.106 425.974 662.81C381.603 675.722 336.336 685.574 293.055 702.266C279.478 707.496 266.807 714.701 253.733 721.066C247.397 724.143 250.853 728.896 252.486 732.85C262.863 757.814 276.249 781.049 290.839 803.533C318.549 846.253 349.722 886.423 376.306 929.979C396.447 962.992 414.122 997.132 418.746 1036.67C424.713 1087.76 406.846 1127.41 369.841 1157.68C365.144 1161.52 360.149 1165.08 354.945 1168.08C348.667 1171.69 347.024 1175.78 349.978 1183.57C358.708 1206.62 362.602 1230.51 360.261 1255.04C359.803 1259.93 358.964 1264.81 357.849 1269.56C354.907 1282.15 354.808 1282.13 343.415 1277.72C334.8 1274.38 326.232 1270.89 317.554 1267.75C312.552 1265.94 310.613 1263.39 311.607 1257.36C315.323 1234.93 315.031 1235.13 293.791 1227C283.359 1223.01 273.197 1218.11 263.077 1213.24C256.879 1210.27 250.971 1210.09 244.654 1212C234.18 1215.15 223.47 1217.54 213.027 1220.81C206.386 1222.91 200.285 1222.29 193.784 1219.55C181.127 1214.19 168.299 1209.38 155.543 1204.29C155.089 1204.11 154.796 1203.48 153.965 1202.55L153.955 1202.58ZM376.488 508.778C374.775 507.966 374.362 507.713 369.777 509.2C349.705 515.729 330.377 524.132 312.022 534.74C305.222 538.67 305.344 540.064 312.217 543.855C356.174 568.01 400.178 592.072 444.145 616.25C446.573 617.579 448.766 618.098 451.191 616.991C470.633 608.059 489.903 598.84 506.238 584.22C509.548 581.261 510.119 578.844 505.654 576.448C500.692 573.786 495.747 571.074 490.765 568.477C453.343 548.905 415.926 529.372 376.503 508.784L376.488 508.778ZM677.99 -117.608C681.029 -115.654 683.83 -117.169 686.557 -118.288C704.379 -125.597 720.903 -135.31 735.937 -147.649C742.375 -152.937 742.138 -154.523 734.273 -158.681C692.97 -180.496 651.642 -202.229 610.37 -224.143C606.908 -225.984 604.044 -225.325 600.93 -224.153C582.252 -217.139 563.396 -210.562 546.262 -199.868C543.786 -198.32 539.544 -197.863 539.721 -194.308C539.919 -190.43 544.241 -189.639 547.108 -188.084C574.567 -173.152 602.037 -158.253 629.543 -143.413C645.648 -134.73 661.837 -126.199 677.984 -117.592L677.99 -117.608ZM202.145 930.912C204.035 931.387 205.909 931.855 207.793 932.347C234.897 939.393 261.996 946.456 289.105 953.486C308.979 958.65 328.843 963.791 348.742 968.818C351.039 969.395 353.838 970.721 355.792 968.657C357.45 966.92 355.688 964.816 354.809 963.091C344.192 942.277 332.606 922.084 319.638 902.756C317.201 899.117 314.182 896.987 310.267 895.966C269.24 885.123 228.25 874.221 187.202 863.444C179.601 861.455 178.074 863.002 179.363 870.992C182.352 889.29 188.09 906.79 195.075 923.908C196.494 927.373 198.637 929.883 202.161 930.918L202.145 930.912ZM442.096 220.453C455.231 243.812 468.326 264.019 481.874 283.959C486.601 290.921 492.253 295.069 499.786 297.272C532.06 306.711 564.318 316.2 596.482 326.04C603.248 328.111 605.379 325.931 605.871 319.093C607.234 300.27 605.325 281.894 599.706 263.683C598.087 258.461 595.605 256.299 590.583 255.163C560.599 248.383 530.671 241.145 500.734 234.106C481.894 229.675 463.049 225.316 442.07 220.424L442.096 220.453ZM587.284 231.34C576.241 207.538 563.893 187.584 550.711 168.155C548.624 165.076 545.278 164.258 542.021 163.382C500.759 152.282 459.497 141.237 418.292 129.901C412.111 128.204 410.067 129.662 411.115 136.359C413.741 153.243 418.768 169.379 425.01 185.231C427.246 190.894 430.365 194.097 436.243 195.473C467.267 202.694 498.223 210.404 529.215 217.834C547.768 222.282 566.377 226.495 587.279 231.356L587.284 231.34ZM361.333 994.954C359.297 994.33 358.243 993.94 357.167 993.67C311.192 981.959 265.217 970.248 219.237 958.554C217.644 958.139 215.738 957.105 214.54 958.503C212.8 960.503 214.947 962.277 215.831 963.874C227.465 984.806 240.867 1004.49 254.649 1023.91C256.814 1026.96 259.571 1028.25 262.954 1029.23C274.7 1032.63 286.342 1036.52 298.047 1040.04C319.885 1046.61 341.738 1053.08 363.592 1059.6C370.436 1061.65 373.69 1059.54 374.164 1051.53C375.098 1035.95 373.329 1020.69 370.01 1005.44C368.745 999.656 366.047 995.786 361.344 994.977L361.333 994.954ZM419.193 626.42C398.566 615.632 377.865 604.963 357.305 594.017C335.93 582.645 314.608 571.163 293.441 559.354C286.427 555.453 281.184 556.186 275.968 562.113C266.532 572.823 257.623 583.812 251.17 596.989C248.063 603.31 249.382 605.98 255.444 608.775C282.446 621.205 309.265 634.045 336.173 646.715C339.479 648.274 342.847 650.024 346.53 649.054C370.798 642.659 395.129 636.454 419.198 626.403L419.193 626.42ZM566.098 -88.2577C571.262 -86.1252 576.181 -83.7188 582.049 -85.4269C602.534 -91.3712 623.124 -96.9242 643.641 -102.746C645.847 -103.384 649.365 -103.108 649.538 -106.269C649.711 -109.319 646.371 -109.933 644.203 -111.087C603.402 -132.708 562.554 -154.236 521.825 -176.032C517.642 -178.263 514.903 -177.998 511.598 -174.834C500.033 -163.787 490.652 -150.971 483.063 -136.538C480.539 -131.724 481.091 -128.743 486.297 -126.299C512.944 -113.748 539.503 -100.973 566.103 -88.2741L566.098 -88.2577ZM404.783 498.042C409.463 500.927 411.756 502.573 414.205 503.837C433.418 513.762 452.661 523.644 471.915 533.493C488.172 541.81 504.475 550.035 520.69 558.428C524.377 560.338 527.248 560.88 529.747 556.647C538.327 542.137 544.459 526.64 546.371 509.303C546.846 505.023 545.537 502.099 541.501 500.293C524.624 492.768 507.805 485.118 491.002 477.419C487.696 475.915 484.655 476.469 481.4 477.365C471.144 480.212 460.804 482.768 450.538 485.537C436.098 489.436 421.669 493.413 404.804 498.031L404.783 498.042ZM528.375 137.021C527.197 134.129 526.998 133.258 526.538 132.6C511.599 110.773 496.587 89.0111 481.7 67.1312C479.405 63.7687 476.459 61.9064 472.971 60.701C459.799 56.1444 446.533 51.8282 433.454 46.9758C427.805 44.8764 424.959 47.5912 423.165 52.2081C417.83 66.0771 412.797 80.0451 410.547 95.1112C409.461 102.383 412.236 104.787 418.526 106.471C439.178 111.955 459.685 118.177 480.279 123.952C495.753 128.295 511.268 132.395 528.375 137.021ZM294.966 868.446C294.128 866.203 293.975 865.295 293.504 864.614C278.581 842.849 263.637 821.095 248.694 799.34C247.01 796.879 244.998 794.789 242.132 794.175C228.79 791.324 216.278 785.511 203.523 780.636C197.278 778.251 193.649 779.997 190.948 785.867C185.464 797.816 181.901 810.527 179.388 823.536C176.932 836.308 178.384 837.61 190.375 840.785C210.182 846.052 230.045 851.028 249.716 856.999C264.224 861.391 278.811 865.924 294.934 868.434L294.966 868.446ZM511.117 325.724C527.65 349.515 543.274 372.124 556.796 396.205C559.82 401.602 563 399.552 566.159 396.627C577.849 385.85 587.57 373.461 594.856 358.762C598.171 352.061 596.435 349.487 590.223 347.667C573.731 342.819 557.379 337.251 540.763 333.074C531.445 330.732 522.645 325.584 511.091 325.75L511.117 325.724ZM279.619 1057.84C279.803 1059.2 279.715 1059.87 279.982 1060.25C295.407 1082.76 310.655 1105.39 324.672 1128.9C327.617 1133.83 330.752 1132.92 334.234 1129.98C347.109 1119.07 356.682 1105.37 364.191 1089.85C366.575 1084.93 364.636 1083.27 360.168 1082C348.145 1078.59 336.226 1074.8 324.25 1071.18C309.475 1066.74 294.69 1062.34 279.619 1057.84ZM541.261 -74.4458C519.918 -85.4188 500.971 -95.8498 481.181 -104.339C476.508 -106.354 472.353 -107.007 471.12 -100.383C468.333 -85.507 467.758 -70.4552 469.767 -55.2314C470.215 -51.8107 471.298 -49.5641 475.132 -51.1762C496.057 -59.9568 517.579 -66.9561 541.261 -74.4458ZM239.278 632.702C236.105 647.521 235.843 662.583 237.429 677.809C237.979 683.022 240.465 684.226 244.835 682.195C262.749 673.87 281.544 668.044 300.296 662.074C302.231 661.459 305.4 661.784 305.437 658.884C305.47 656.333 302.646 655.533 300.662 654.578C282.709 645.953 264.668 637.497 246.798 628.665C241.962 626.272 240.243 628.262 239.278 632.702ZM288.876 1200.01C293.643 1202.22 297.873 1204.14 302.071 1206.16C305.721 1207.91 309.798 1212.81 313.019 1209.91C315.948 1207.26 312.81 1201.73 312.011 1197.52C311.433 1194.46 311.093 1190.42 306.504 1192.31C300.819 1194.66 294.542 1195.6 288.876 1200.01ZM520.893 465.586C526.7 468.798 530.503 471.233 534.529 473.016C537.954 474.529 542.229 478.862 544.829 476.311C547.591 473.582 544.677 468.172 544.03 463.936C543.245 458.798 540.353 457.934 536.29 459.55C531.789 461.327 527.293 463.088 520.893 465.586Z" fill="#19BFCD"/>
</g>
<path d="M155.655 720.287C158.187 721.566 160.705 722.078 163.141 723.888C168.309 727.729 173.995 730.797 179.269 734.485C187.628 740.332 197.2 744.623 206.598 748.433C212.812 750.952 219.316 753.006 225.924 754.577C231.689 755.947 236.602 759.035 242.137 760.913C253.977 764.931 263.614 773.649 275.233 778.228C284.069 781.711 292.443 786.156 300.914 790.437C303.638 791.813 306.872 791.758 309.746 792.908C312.386 793.964 314.723 795.785 317.265 797.07C321.662 799.292 325.348 803.736 330.133 805.023C333.917 806.04 337.115 808.732 340.63 810.509C346.717 813.585 352.481 817.314 358.581 820.396C362.877 822.567 366.932 824.974 371.036 827.461C372.756 828.503 374.185 829.913 375.975 830.817C376.351 831.008 379.794 833.084 379.094 831.578" stroke="url(#paint0_linear_1265_377)" stroke-width="4.31741" stroke-linecap="round"/>
<path d="M156.471 718.674C159.003 719.953 160.908 721.677 163.811 722.564C169.968 724.448 175.811 727.206 181.908 729.264C191.574 732.527 200.705 737.688 209.347 742.996C215.06 746.505 220.572 750.523 225.756 754.912C230.278 758.741 235.678 760.865 240.473 764.207C250.73 771.357 263.465 773.945 274.043 780.584C282.088 785.633 290.633 789.739 299.104 794.02C301.828 795.396 303.701 798.033 306.332 799.666C308.748 801.164 311.6 801.966 314.142 803.25C318.54 805.473 324.304 805.804 328.177 808.894C331.241 811.338 335.305 812.315 338.82 814.091C344.908 817.168 351.328 819.598 357.427 822.68C361.724 824.851 366.066 826.689 370.503 828.518C372.362 829.285 374.344 829.599 376.134 830.504C376.511 830.694 380.225 832.234 378.597 832.564" stroke="url(#paint1_linear_1265_377)" stroke-width="4.31741" stroke-linecap="round"/>
<circle cx="402.43" cy="843.147" r="25.0697" transform="rotate(26.8114 402.43 843.147)" fill="#0ACDDD"/>
<circle cx="402.43" cy="843.147" r="25.0697" transform="rotate(26.8114 402.43 843.147)" fill="url(#paint2_radial_1265_377)" style="mix-blend-mode:overlay"/>
<circle cx="402.43" cy="843.147" r="25.0697" transform="rotate(26.8114 402.43 843.147)" fill="url(#paint3_radial_1265_377)" style="mix-blend-mode:screen"/>
<circle cx="402.43" cy="843.147" r="25.0697" transform="rotate(26.8114 402.43 843.147)" fill="url(#paint4_radial_1265_377)" style="mix-blend-mode:screen"/>
<circle cx="201.92" cy="654.464" r="8.35418" transform="rotate(26.8114 201.92 654.464)" fill="#0ACDDD"/>
<circle cx="201.92" cy="654.464" r="8.35418" transform="rotate(26.8114 201.92 654.464)" fill="url(#paint5_radial_1265_377)" style="mix-blend-mode:overlay"/>
<circle cx="201.92" cy="654.464" r="8.35418" transform="rotate(26.8114 201.92 654.464)" fill="url(#paint6_radial_1265_377)" style="mix-blend-mode:screen"/>
<circle cx="201.92" cy="654.464" r="8.35418" transform="rotate(26.8114 201.92 654.464)" fill="url(#paint7_radial_1265_377)" style="mix-blend-mode:screen"/>
<path d="M209.446 659.341C211.38 660.318 213.376 660.567 215.181 662.058C219.013 665.223 223.338 667.603 227.268 670.613C233.5 675.384 240.863 678.559 248.132 681.293C252.937 683.1 258.023 684.437 263.239 685.304C267.789 686.061 271.484 688.533 275.8 689.795C285.031 692.494 292.026 699.877 301.024 703.132C307.868 705.607 314.244 709.043 320.714 712.313C322.795 713.364 325.426 713.004 327.651 713.825C329.693 714.58 331.417 716.091 333.359 717.073C336.718 718.77 339.288 722.651 343.051 723.42C346.027 724.029 348.367 726.288 351.052 727.645C355.702 729.995 360.027 732.997 364.686 735.351C367.968 737.01 371.032 738.915 374.128 740.893C375.425 741.721 376.451 742.927 377.818 743.618C378.106 743.764 380.703 745.413 380.278 744.046" stroke="url(#paint8_linear_1265_377)" stroke-width="4.31741" stroke-linecap="round"/>
<path d="M210.262 657.728C212.196 658.706 213.579 660.165 215.852 660.734C220.672 661.942 225.153 664.013 229.908 665.392C237.445 667.579 244.369 671.625 250.881 675.856C255.185 678.653 259.278 681.954 263.07 685.64C266.378 688.854 270.56 690.363 274.136 693.089C281.784 698.921 291.877 700.174 299.835 705.488C305.886 709.53 312.434 712.626 318.905 715.896C320.985 716.947 322.255 719.279 324.236 720.583C326.055 721.781 328.295 722.272 330.236 723.253C333.596 724.951 338.244 724.719 341.095 727.292C343.35 729.327 346.557 729.871 349.242 731.228C353.892 733.578 358.874 735.281 363.533 737.635C366.815 739.294 370.166 740.63 373.594 741.95C375.031 742.503 376.61 742.613 377.978 743.305C378.265 743.45 381.134 744.563 379.781 745.031" stroke="url(#paint9_linear_1265_377)" stroke-width="4.31741" stroke-linecap="round"/>
<circle cx="407.762" cy="758.493" r="31.7545" transform="rotate(26.8114 407.762 758.493)" fill="#0ACDDD"/>
<circle cx="407.762" cy="758.493" r="31.7545" transform="rotate(26.8114 407.762 758.493)" fill="url(#paint10_radial_1265_377)" style="mix-blend-mode:overlay"/>
<circle cx="407.762" cy="758.493" r="31.7545" transform="rotate(26.8114 407.762 758.493)" fill="url(#paint11_radial_1265_377)" style="mix-blend-mode:screen"/>
<circle cx="407.762" cy="758.493" r="31.7545" transform="rotate(26.8114 407.762 758.493)" fill="url(#paint12_radial_1265_377)" style="mix-blend-mode:screen"/>
<circle cx="353.088" cy="555.851" r="6.68479" transform="rotate(26.8114 353.088 555.851)" fill="#0ACDDD"/>
<circle cx="353.088" cy="555.851" r="6.68479" transform="rotate(26.8114 353.088 555.851)" fill="url(#paint13_radial_1265_377)" style="mix-blend-mode:overlay"/>
<circle cx="353.088" cy="555.851" r="6.68479" transform="rotate(26.8114 353.088 555.851)" fill="url(#paint14_radial_1265_377)" style="mix-blend-mode:screen"/>
<circle cx="353.088" cy="555.851" r="6.68479" transform="rotate(26.8114 353.088 555.851)" fill="url(#paint15_radial_1265_377)" style="mix-blend-mode:screen"/>
<path d="M358.825 560.189C359.082 560.319 359.613 559.827 359.651 560.425C359.731 561.694 360.238 562.144 360.404 563.251C360.666 565.006 361.835 565.051 363.13 564.765C363.985 564.576 365.092 563.902 366.402 562.795C367.546 561.83 367.826 562.577 368.72 562.109C370.634 561.11 370.22 564.749 371.868 564.289C373.12 563.939 373.894 564.543 374.754 564.977C375.03 565.117 375.97 563.902 376.371 563.802C376.74 563.71 376.746 564.353 377.004 564.484C377.45 564.71 376.891 567.008 377.786 566.329C378.494 565.791 378.429 566.835 378.786 567.015C379.404 567.328 379.695 568.29 380.314 568.603C380.75 568.823 381.033 569.324 381.3 569.871C381.412 570.101 381.309 570.736 381.49 570.828C381.529 570.847 381.756 571.299 382.102 570.322" stroke="url(#paint16_linear_1265_377)" stroke-width="4.31741" stroke-linecap="round"/>
<path d="M359.641 558.576C359.898 558.706 359.817 559.425 360.321 559.101C361.391 558.412 362.054 558.554 363.043 558.03C364.611 557.201 365.341 558.116 365.878 559.327C366.234 560.128 366.347 561.419 366.234 563.131C366.135 564.624 366.902 564.406 367.056 565.403C367.387 567.537 370.071 565.046 370.678 566.645C371.139 567.861 372.084 568.125 372.944 568.56C373.221 568.7 372.799 570.177 372.957 570.56C373.102 570.911 373.623 570.534 373.881 570.664C374.328 570.89 375.847 569.076 375.83 570.2C375.818 571.089 376.62 570.418 376.976 570.598C377.595 570.91 378.541 570.574 379.161 570.887C379.597 571.107 380.167 571.038 380.767 570.928C381.018 570.882 381.468 570.422 381.65 570.514C381.688 570.533 382.187 570.449 381.605 571.307" stroke="url(#paint17_linear_1265_377)" stroke-width="4.31741" stroke-linecap="round"/>
<circle cx="403.634" cy="581.397" r="36.7699" transform="rotate(26.8114 403.634 581.397)" fill="#0ACDDD"/>
<circle cx="403.634" cy="581.397" r="36.7699" transform="rotate(26.8114 403.634 581.397)" fill="url(#paint18_radial_1265_377)" style="mix-blend-mode:overlay"/>
<circle cx="403.634" cy="581.397" r="36.7699" transform="rotate(26.8114 403.634 581.397)" fill="url(#paint19_radial_1265_377)" style="mix-blend-mode:screen"/>
<circle cx="403.634" cy="581.397" r="36.7699" transform="rotate(26.8114 403.634 581.397)" fill="url(#paint20_radial_1265_377)" style="mix-blend-mode:screen"/>
<circle cx="36.7676" cy="36.7676" r="36.7676" transform="matrix(0.892496 0.451054 0.451054 -0.892496 367.574 449.405)" fill="#0ACDDD"/>
<circle cx="36.7676" cy="36.7676" r="36.7676" transform="matrix(0.892496 0.451054 0.451054 -0.892496 367.574 449.405)" fill="url(#paint21_radial_1265_377)" style="mix-blend-mode:overlay"/>
<circle cx="36.7676" cy="36.7676" r="36.7676" transform="matrix(0.892496 0.451054 0.451054 -0.892496 367.574 449.405)" fill="url(#paint22_radial_1265_377)" style="mix-blend-mode:screen"/>
<circle cx="36.7676" cy="36.7676" r="36.7676" transform="matrix(0.892496 0.451054 0.451054 -0.892496 367.574 449.405)" fill="url(#paint23_radial_1265_377)" style="mix-blend-mode:screen"/>
<path d="M438.714 444.812C438.971 444.942 439.502 444.45 439.54 445.048C439.62 446.317 440.127 446.768 440.292 447.875C440.555 449.629 441.724 449.674 443.018 449.388C443.874 449.199 444.98 448.525 446.291 447.418C447.435 446.453 447.714 447.2 448.609 446.733C450.522 445.733 450.109 449.372 451.756 448.912C453.009 448.562 453.782 449.166 454.642 449.601C454.919 449.74 455.859 448.525 456.26 448.425C456.629 448.334 456.634 448.977 456.892 449.107C457.339 449.333 456.779 451.632 457.675 450.952C458.383 450.415 458.318 451.458 458.675 451.639C459.293 451.951 459.583 452.913 460.203 453.226C460.639 453.447 460.921 453.947 461.189 454.495C461.301 454.724 461.197 455.359 461.379 455.451C461.417 455.471 461.645 455.922 461.991 454.945" stroke="url(#paint24_linear_1265_377)" stroke-width="4.31741" stroke-linecap="round"/>
<path d="M439.528 443.199C439.785 443.329 439.704 444.048 440.208 443.724C441.277 443.036 441.941 443.177 442.93 442.654C444.498 441.824 445.228 442.739 445.765 443.951C446.12 444.752 446.234 446.042 446.121 447.754C446.022 449.247 446.789 449.029 446.943 450.027C447.273 452.16 449.958 449.669 450.565 451.268C451.026 452.484 451.971 452.749 452.831 453.183C453.107 453.323 452.686 454.8 452.844 455.183C452.988 455.534 453.51 455.157 453.768 455.288C454.214 455.513 455.733 453.699 455.717 454.823C455.704 455.712 456.506 455.041 456.863 455.221C457.481 455.534 458.428 455.197 459.047 455.51C459.484 455.73 460.054 455.661 460.654 455.552C460.905 455.506 461.355 455.045 461.537 455.137C461.575 455.157 462.074 455.072 461.492 455.93" stroke="url(#paint25_linear_1265_377)" stroke-width="4.31741" stroke-linecap="round"/>
<circle cx="6.68502" cy="6.68502" r="6.68502" transform="matrix(0.892496 0.451054 0.451054 -0.892496 459.492 462.153)" fill="#0ACDDD"/>
<circle cx="6.68502" cy="6.68502" r="6.68502" transform="matrix(0.892496 0.451054 0.451054 -0.892496 459.492 462.153)" fill="url(#paint26_radial_1265_377)" style="mix-blend-mode:overlay"/>
<circle cx="6.68502" cy="6.68502" r="6.68502" transform="matrix(0.892496 0.451054 0.451054 -0.892496 459.492 462.153)" fill="url(#paint27_radial_1265_377)" style="mix-blend-mode:screen"/>
<circle cx="6.68502" cy="6.68502" r="6.68502" transform="matrix(0.892496 0.451054 0.451054 -0.892496 459.492 462.153)" fill="url(#paint28_radial_1265_377)" style="mix-blend-mode:screen"/>
<circle cx="33.4251" cy="33.4251" r="33.4251" transform="matrix(0.892496 0.451054 0.451054 -0.892496 382.791 363.276)" fill="#0ACDDD"/>
<circle cx="33.4251" cy="33.4251" r="33.4251" transform="matrix(0.892496 0.451054 0.451054 -0.892496 382.791 363.276)" fill="url(#paint29_radial_1265_377)" style="mix-blend-mode:overlay"/>
<circle cx="33.4251" cy="33.4251" r="33.4251" transform="matrix(0.892496 0.451054 0.451054 -0.892496 382.791 363.276)" fill="url(#paint30_radial_1265_377)" style="mix-blend-mode:screen"/>
<circle cx="33.4251" cy="33.4251" r="33.4251" transform="matrix(0.892496 0.451054 0.451054 -0.892496 382.791 363.276)" fill="url(#paint31_radial_1265_377)" style="mix-blend-mode:screen"/>
<path d="M457.978 364.783C459.08 365.341 460.35 365.222 461.279 366.271C463.251 368.496 465.684 369.92 467.749 371.986C471.021 375.262 475.314 376.886 479.622 378.123C482.469 378.941 485.583 379.281 488.863 379.17C491.725 379.073 493.727 380.69 496.347 381.095C501.951 381.961 505.274 387.488 510.629 388.902C514.702 389.977 518.301 392.009 521.99 393.873C523.177 394.473 524.969 393.689 526.29 394.053C527.503 394.388 528.376 395.47 529.483 396.029C531.398 396.997 532.417 400.094 534.759 400.145C536.61 400.186 537.759 401.842 539.29 402.616C541.941 403.956 544.267 405.947 546.924 407.289C548.795 408.235 550.48 409.444 552.174 410.713C552.884 411.244 553.35 412.168 554.129 412.562C554.294 412.645 555.717 413.701 555.673 412.527" stroke="url(#paint32_linear_1265_377)" stroke-width="4.31741" stroke-linecap="round"/>
<path d="M458.792 363.171C459.895 363.728 460.552 364.82 461.948 364.947C464.909 365.215 467.498 366.329 470.386 366.765C474.965 367.457 478.818 369.951 482.369 372.685C484.716 374.493 486.836 376.798 488.693 379.505C490.312 381.867 492.802 382.52 494.681 384.389C498.702 388.387 505.123 387.785 509.438 391.257C512.718 393.899 516.489 395.591 520.179 397.456C521.365 398.055 521.797 399.964 522.874 400.811C523.863 401.589 525.251 401.65 526.358 402.21C528.274 403.178 531.371 402.162 532.801 404.016C533.932 405.483 535.947 405.425 537.478 406.199C540.13 407.539 543.112 408.231 545.768 409.573C547.64 410.519 549.612 411.158 551.639 411.77C552.488 412.026 553.507 411.854 554.287 412.248C554.451 412.331 556.145 412.85 555.175 413.512" stroke="url(#paint33_linear_1265_377)" stroke-width="4.31741" stroke-linecap="round"/>
<circle cx="21.7263" cy="21.7263" r="21.7263" transform="matrix(0.892496 0.451054 0.451054 -0.892496 383.453 173.259)" fill="#0ACDDD"/>
<circle cx="21.7263" cy="21.7263" r="21.7263" transform="matrix(0.892496 0.451054 0.451054 -0.892496 383.453 173.259)" fill="url(#paint34_radial_1265_377)" style="mix-blend-mode:overlay"/>
<circle cx="21.7263" cy="21.7263" r="21.7263" transform="matrix(0.892496 0.451054 0.451054 -0.892496 383.453 173.259)" fill="url(#paint35_radial_1265_377)" style="mix-blend-mode:screen"/>
<circle cx="21.7263" cy="21.7263" r="21.7263" transform="matrix(0.892496 0.451054 0.451054 -0.892496 383.453 173.259)" fill="url(#paint36_radial_1265_377)" style="mix-blend-mode:screen"/>
<path d="M431.652 173.606C434.621 175.106 437.52 175.811 440.418 177.855C446.564 182.19 453.247 185.761 459.502 189.946C469.419 196.58 480.606 201.687 491.563 206.285C498.807 209.324 506.35 211.903 513.977 213.989C520.63 215.808 526.434 219.346 532.862 221.676C546.611 226.658 558.18 236.353 571.717 241.901C582.011 246.121 591.847 251.305 601.781 256.326C604.975 257.94 608.651 258.107 612.001 259.498C615.077 260.774 617.862 262.822 620.844 264.329C626.001 266.935 630.503 271.792 636.036 273.456C640.412 274.772 644.237 277.782 648.359 279.865C655.499 283.474 662.315 287.734 669.468 291.349C674.507 293.895 679.287 296.669 684.13 299.529C686.158 300.727 687.882 302.285 689.981 303.346C690.423 303.57 694.484 305.959 693.583 304.351" stroke="url(#paint37_linear_1265_377)" stroke-width="4.31741" stroke-linecap="round"/>
<path d="M432.468 171.993C435.437 173.494 437.724 175.41 441.088 176.531C448.224 178.909 455.062 182.171 462.141 184.725C473.365 188.775 484.112 194.753 494.312 200.848C501.055 204.877 507.605 209.421 513.808 214.324C519.219 218.602 525.51 221.176 531.198 224.97C543.364 233.085 558.031 236.649 570.527 244.257C580.03 250.043 590.037 254.888 599.972 259.908C603.166 261.523 605.48 264.383 608.587 266.255C611.439 267.975 614.74 269.003 617.721 270.509C622.878 273.116 629.459 273.86 634.081 277.328C637.735 280.07 642.427 281.365 646.549 283.448C653.689 287.056 661.162 290.018 668.315 293.633C673.354 296.179 678.422 298.383 683.596 300.586C685.764 301.509 688.041 301.972 690.141 303.033C690.582 303.256 694.914 305.108 693.086 305.336" stroke="url(#paint38_linear_1265_377)" stroke-width="4.31741" stroke-linecap="round"/>
<g filter="url(#filter1_f_1265_377)">
<path d="M643.193 62.2217C644.438 70.4457 633.946 84.1495 628.651 89.8397C625.199 93.5477 623.223 100.21 621.335 104.817C619.247 109.91 616.463 116.36 615.217 121.802C612.155 135.174 605.796 146.195 598.944 157.744C591.941 169.548 586.438 182.488 580.521 194.664C572.956 210.233 560.968 223.595 552.125 238.5C546.025 248.783 541.252 262.34 538.729 273.965C537.122 281.37 532.644 288.35 530.985 295.992C529.509 302.796 528.809 307.807 525.539 314.262C519.338 326.502 510.482 334.315 502.574 344.801C496.404 352.983 486.737 362.137 483.155 371.779C479.147 382.573 474.623 393.411 470.146 404.061C461.564 424.482 454.806 445.514 442.737 464.182C435.044 476.082 426.596 487.628 418.547 499.318C413.746 506.289 404.344 516.027 403.128 524.846C401.423 537.221 393.426 548.015 390.537 560.106C387.617 572.327 379.711 582.79 374.919 594.254C369.09 608.201 360.899 620.101 352.699 632.743C339.95 652.396 326.416 671.172 315.56 692.006C312.462 697.949 310.016 704.571 306.609 710.313C286.164 744.775 271.22 782.388 250.716 816.948C243.483 829.14 238.061 842.356 231.311 854.719C220.939 873.717 215.493 898.568 198.458 913.316C193.54 917.574 189.335 928.967 189.666 935.268C190.119 943.875 184.704 951.209 181.166 959.03" stroke="url(#paint39_linear_1265_377)" stroke-width="4.31741" stroke-linecap="round" stroke-dasharray="109.37 296.46"/>
</g>
<g filter="url(#filter2_f_1265_377)">
<path d="M636.923 69.0027C638.168 77.2267 627.677 90.9306 622.381 96.6207C618.93 100.329 616.954 106.991 615.065 111.598C612.978 116.691 610.194 123.141 608.948 128.583C605.886 141.955 599.526 152.976 592.675 164.525C585.672 176.329 580.168 189.269 574.252 201.445C566.687 217.014 554.698 230.376 545.856 245.281C539.755 255.564 534.983 269.121 532.46 280.746C530.853 288.151 526.375 295.131 524.716 302.773C523.239 309.577 522.539 314.588 519.269 321.043C513.069 333.283 504.212 341.096 496.304 351.582C490.134 359.764 480.467 368.918 476.886 378.56C472.877 389.354 468.353 400.192 463.877 410.842C455.294 431.263 448.536 452.295 436.468 470.963C428.774 482.863 420.327 494.409 412.277 506.099C407.477 513.07 398.074 522.808 396.859 531.627C395.153 544.002 387.156 554.796 384.267 566.887C381.347 579.108 373.441 589.571 368.65 601.035C362.821 614.982 354.63 626.882 346.429 639.524C333.681 659.177 320.147 677.953 309.29 698.787C306.193 704.73 303.747 711.352 300.34 717.094C279.894 751.556 264.951 789.169 244.447 823.729C237.214 835.921 231.792 849.137 225.042 861.5C214.669 880.498 209.223 905.349 192.188 920.097C187.271 924.355 183.066 935.748 183.397 942.049C183.85 950.656 178.434 957.99 174.896 965.811" stroke="url(#paint40_linear_1265_377)" stroke-width="4.31741" stroke-linecap="round" stroke-dasharray="0 440.38"/>
</g>
<g filter="url(#filter3_f_1265_377)">
<path d="M653.023 42.1216C654.268 50.3456 643.776 64.0495 638.481 69.7396C635.029 73.4476 633.053 80.1098 631.165 84.7167C629.077 89.8098 626.293 96.2595 625.047 101.701C621.985 115.074 615.626 126.095 608.774 137.644C601.771 149.448 596.268 162.388 590.351 174.564C582.786 190.133 570.798 203.495 561.955 218.4C555.855 228.683 551.082 242.24 548.559 253.865C546.952 261.27 542.474 268.25 540.816 275.892C539.339 282.696 538.639 287.707 535.369 294.162C529.168 306.402 520.312 314.215 512.404 324.701C506.234 332.883 496.567 342.037 492.986 351.679C488.977 362.473 484.453 373.31 479.977 383.961C471.394 404.382 464.636 425.414 452.567 444.082C444.874 455.982 436.427 467.528 428.377 479.218C423.576 486.189 414.174 495.927 412.958 504.746C411.253 517.121 403.256 527.915 400.367 540.006C397.447 552.226 389.541 562.69 384.749 574.154C378.92 588.101 370.729 600.001 362.529 612.643C349.78 632.296 336.246 651.072 325.39 671.906C322.292 677.849 319.846 684.471 316.439 690.213C295.994 724.675 281.051 762.288 260.547 796.848C253.313 809.04 247.891 822.256 241.141 834.619C230.769 853.617 225.323 878.468 208.288 893.216C203.37 897.474 199.165 908.867 199.497 915.168C199.949 923.775 194.534 931.109 190.996 938.93" stroke="url(#paint41_linear_1265_377)" stroke-width="4.31741" stroke-linecap="round" stroke-dasharray="28.78 8.63"/>
</g>
<g opacity="0.5" filter="url(#filter4_f_1265_377)">
<path d="M105.74 1307.37C108.961 1304.01 113.338 1304.37 117.114 1303.72C169.538 1294.78 222.255 1286.52 272.204 1271.36C302.417 1262.18 300.13 1265.35 283.273 1239.12C249.838 1187.09 207.872 1140.01 168.486 1091.44C136.908 1052.5 106.359 1013.07 83.1377 969.971C60.6589 928.282 47.1621 885.749 53.0325 842.159C59.2736 795.784 83.8039 760.896 122.866 735.253C136.565 726.247 136.491 726.175 130.677 709.324C101.581 625.225 131.512 549.153 208.447 510.303C253.228 487.684 303.07 475.472 354.147 465.649C407.574 455.379 462.087 447.971 514.342 434.574C528.079 431.056 541.43 426.837 554.598 422.122C562.039 419.472 562.88 416.276 558.669 409.169C539.031 376.156 514.863 345.565 490.429 315.125C455.813 271.974 418.881 230.236 387.258 185.296C360.595 147.394 336.202 108.611 325.249 65.5592C305.899 -10.5155 329.208 -68.408 391.233 -108.862C400.838 -115.129 402.732 -120.504 398.713 -131.822C367.336 -219.84 400.028 -298.808 480.905 -336.616C527.229 -358.276 578.132 -369.546 629.816 -379.601C635.303 -380.676 640.853 -379.88 646.379 -377.779C663.34 -371.305 680.3 -364.747 697.207 -358.103C699.953 -357.038 704.266 -356.32 704.384 -353.24C704.561 -349.268 699.682 -350.269 696.81 -349.708C687.747 -347.919 678.59 -346.444 667.442 -344.51C680.611 -335.179 693.432 -330.121 705.561 -323.952C743.917 -304.447 782.532 -285.457 821.077 -266.325C834.968 -259.43 837.33 -259.913 843.721 -271.14C846.79 -276.547 849.732 -282.088 851.939 -287.915C854.374 -294.311 859.202 -295.069 865.88 -292.542C879.965 -287.184 893.979 -281.599 908.094 -276.335C916.103 -273.334 916.311 -269.308 913.934 -263.25C900.452 -229.062 874.157 -206.018 840.768 -188.951C800.079 -168.139 754.129 -158.024 707.697 -149.072C654.961 -138.916 601.155 -131.594 549.518 -118.615C525.805 -112.645 502.463 -105.852 480.523 -96.3511C473.21 -93.1843 470.772 -89.6961 475.39 -80.7335C496.366 -40.2005 524.498 -3.34029 553.661 33.0283C590.18 78.5304 629.214 122.526 662.534 169.928C684.62 201.345 704.517 233.694 715.606 268.95C737.314 338.026 714.562 398.383 654.146 433.67C647.241 437.695 636.268 438.615 634.283 446.352C632.445 453.468 639.573 461.558 642.576 469.257C656.367 504.564 660.901 539.588 650.265 572.61C638.859 607.986 613.883 633.536 579.991 651.659C537.28 674.487 488.549 685.03 439.372 694.678C380.074 706.319 319.361 714.292 261.786 730.463C243.725 735.528 227.019 742.986 209.712 749.425C201.324 752.536 206.317 758.398 208.787 763.175C224.472 793.339 244.122 821.711 265.356 849.297C305.686 901.708 350.542 951.4 389.4 1004.7C418.841 1045.11 445.011 1086.64 453.846 1133.47C465.249 1193.99 443.608 1239.16 395.419 1271.79C389.303 1275.93 382.765 1279.71 375.906 1282.82C367.632 1286.57 365.67 1291.24 370.179 1300.63C383.508 1328.41 390.336 1356.8 388.755 1385.44C388.453 1391.16 387.633 1396.82 386.429 1402.32C383.259 1416.87 383.123 1416.84 367.397 1410.76C355.503 1406.15 343.664 1401.36 331.699 1396.98C324.803 1394.45 322.009 1391.31 322.964 1384.29C326.545 1358.23 326.163 1358.44 296.848 1347.2C282.45 1341.68 268.36 1335.11 254.328 1328.58C245.734 1324.59 237.716 1323.92 229.278 1325.65C215.286 1328.52 200.926 1330.48 186.985 1333.5C178.121 1335.42 169.812 1334.22 160.823 1330.47C143.321 1323.18 125.623 1316.5 108.004 1309.5C107.377 1309.25 106.939 1308.49 105.752 1307.33L105.74 1307.37ZM362.303 509.716C359.929 508.626 359.353 508.296 353.235 509.678C326.455 515.752 300.805 524.089 276.617 535.094C267.656 539.17 267.912 540.818 277.473 545.822C338.616 577.709 399.817 609.492 460.976 641.407C464.354 643.163 467.359 643.947 470.574 642.839C496.345 633.891 521.863 624.591 543.053 608.71C547.347 605.496 547.964 602.702 541.757 599.53C534.86 596.006 527.981 592.425 521.06 588.976C469.071 562.995 417.091 537.059 362.324 509.725L362.303 509.716ZM730.27 -202.412C734.517 -199.874 738.214 -201.431 741.838 -202.528C765.518 -209.699 787.283 -219.798 806.857 -233.102C815.239 -238.803 814.815 -240.686 803.886 -246.199C746.491 -275.126 689.067 -303.958 631.708 -332.999C626.896 -335.438 623.057 -334.891 618.913 -333.762C594.054 -327.006 568.925 -320.779 546.398 -309.576C543.142 -307.954 537.422 -307.754 537.893 -303.562C538.413 -298.989 544.322 -297.715 548.309 -295.66C586.494 -275.924 624.691 -256.227 662.934 -236.596C685.326 -225.109 707.821 -213.794 730.264 -202.393L730.27 -202.412ZM153.417 991.931C156.009 992.639 158.579 993.339 161.166 994.067C198.358 1004.51 235.543 1014.97 272.741 1025.39C300.012 1033.04 327.267 1040.66 354.564 1048.15C357.714 1049.01 361.594 1050.8 364.108 1048.53C366.241 1046.62 363.717 1044 362.414 1041.91C346.674 1016.6 329.66 991.946 310.83 968.199C307.291 963.728 303.061 960.984 297.688 959.473C241.38 943.463 185.117 927.386 128.785 911.452C118.354 908.508 116.385 910.206 118.651 919.698C123.89 941.44 132.802 962.464 143.38 983.136C145.528 987.322 148.595 990.442 153.439 991.939L153.417 991.931ZM432.505 176.097C451.824 204.595 470.883 229.385 490.54 253.898C497.398 262.457 505.328 267.781 515.681 270.97C560.034 284.634 604.37 298.354 648.602 312.479C657.907 315.452 660.654 313.06 660.876 305.063C661.501 283.051 657.721 261.302 648.924 239.453C646.39 233.187 642.886 230.449 636.006 228.714C594.928 218.358 553.897 207.468 512.865 196.812C487.043 190.105 461.22 183.481 432.468 176.061L432.505 176.097ZM629.988 200.454C613.476 171.602 595.445 147.169 576.318 123.285C573.291 119.501 568.702 118.273 564.23 116.984C507.587 100.653 450.947 84.3869 394.365 67.7831C385.877 65.2967 383.202 66.8472 385.057 74.8012C389.713 94.8528 397.573 114.217 407.062 133.342C410.46 140.177 414.896 144.189 422.952 146.275C465.467 157.23 507.923 168.757 550.41 179.957C575.843 186.662 601.339 193.095 629.982 200.473L629.988 200.454ZM373.325 1079.87C370.525 1078.98 369.071 1078.43 367.596 1078.03C304.524 1060.61 241.453 1043.18 178.376 1025.78C176.191 1025.16 173.54 1023.8 172.007 1025.34C169.778 1027.56 172.804 1029.81 174.105 1031.76C191.232 1057.28 210.674 1081.48 230.614 1105.4C233.746 1109.16 237.566 1110.9 242.215 1112.32C258.355 1117.25 274.387 1122.75 290.479 1127.82C320.503 1137.28 350.541 1146.62 380.583 1156.03C389.992 1158.98 394.264 1156.75 394.388 1147.38C394.642 1129.15 391.254 1111.08 385.766 1092.89C383.675 1085.99 379.768 1081.23 373.341 1079.9L373.325 1079.87ZM427.819 651.372C399.162 637.051 370.414 622.865 341.838 608.364C312.13 593.296 282.485 578.104 253.031 562.541C243.272 557.397 236.213 557.841 229.529 564.392C217.435 576.227 206.074 588.431 198.184 603.404C194.383 610.585 196.344 613.828 204.742 617.595C242.145 634.354 279.327 651.579 316.619 668.612C321.2 670.708 325.879 673.032 330.807 672.186C363.283 666.603 395.856 661.248 427.825 651.353L427.819 651.372ZM580.526 -176.83C587.664 -173.912 594.487 -170.692 602.33 -172.233C629.707 -177.587 657.253 -182.473 684.681 -187.681C687.63 -188.255 692.416 -187.65 692.445 -191.352C692.482 -194.923 687.915 -195.91 684.902 -197.439C628.2 -226.097 571.44 -254.651 514.825 -283.509C509.011 -286.465 505.315 -286.371 501.042 -282.915C486.085 -270.854 474.203 -256.54 464.854 -240.182C461.745 -234.726 462.687 -231.178 469.902 -227.892C506.832 -211.019 543.656 -193.891 580.532 -176.848L580.526 -176.83ZM399.956 499.353C406.485 503.116 409.7 505.233 413.102 506.913C439.785 520.108 466.507 533.253 493.242 546.362C515.815 557.431 538.445 568.395 560.966 579.55C566.087 582.088 570.013 582.954 573.125 578.179C583.812 561.809 591.117 544.085 592.583 523.863C592.948 518.87 590.985 515.329 585.397 512.886C562.036 502.699 538.744 492.369 515.47 481.982C510.893 479.952 506.806 480.361 502.453 481.154C488.738 483.683 474.89 485.864 461.156 488.301C441.839 491.733 422.541 495.258 399.983 499.342L399.956 499.353ZM544.025 84.9171C542.241 81.4245 541.914 80.3854 541.247 79.5753C519.584 52.735 497.825 25.9639 476.229 -0.935267C472.899 -5.06973 468.786 -7.49286 463.981 -9.18718C445.832 -15.5912 427.572 -21.7202 409.531 -28.4644C401.738 -31.3815 398.058 -28.4177 395.926 -23.1347C389.595 -7.26046 383.681 8.75421 381.61 26.2809C380.61 34.7399 384.526 37.7866 393.162 40.2666C421.507 48.3565 449.704 57.3008 477.992 65.7287C499.245 72.0643 520.539 78.1185 544.025 84.9171ZM275.163 925.913C273.882 923.209 273.616 922.13 272.934 921.293C251.296 894.526 229.63 867.769 207.964 841.013C205.522 837.987 202.659 835.37 198.736 834.42C180.467 830.007 163.133 822.179 145.529 815.435C136.911 812.134 132.105 813.897 128.826 820.581C122.169 834.186 118.165 848.841 115.603 863.929C113.103 878.743 115.157 880.388 131.615 885.076C158.8 892.843 186.044 900.272 213.093 908.855C233.041 915.173 253.105 921.662 275.12 925.896L275.163 925.913ZM532.885 305.31C556.837 334.586 579.48 362.401 599.37 391.778C603.819 398.362 607.996 396.206 612.087 393.019C627.232 381.286 639.602 367.5 648.523 350.806C652.581 343.194 650.061 340.031 641.523 337.398C618.857 330.387 596.333 322.54 573.542 316.308C560.761 312.814 548.5 306.063 532.852 305.339L532.885 305.31ZM266.658 1147.26C266.996 1148.88 266.92 1149.66 267.307 1150.12C289.674 1177.81 311.808 1205.62 332.333 1234.37C336.644 1240.39 340.834 1239.58 345.362 1236.39C362.104 1224.6 374.189 1209.26 383.359 1191.62C386.27 1186.03 383.535 1183.93 377.396 1182.08C360.88 1177.11 344.479 1171.7 328.013 1166.5C307.701 1160.11 287.377 1153.75 266.658 1147.26ZM547.761 -162.576C518.122 -177.171 491.766 -190.938 464.394 -202.491C457.929 -205.232 452.256 -206.33 451.015 -198.643C448.202 -181.383 448.401 -163.739 452.112 -145.688C452.941 -141.632 454.555 -138.906 459.646 -140.495C487.436 -149.148 516.151 -155.66 547.761 -162.576ZM184.385 644.428C181.046 661.59 181.669 679.27 184.808 697.291C185.891 703.46 189.338 705.073 195.129 703.034C218.869 694.677 243.963 689.328 268.991 683.805C271.574 683.237 275.889 683.871 275.752 680.466C275.631 677.47 271.751 676.304 269 675.025C244.108 663.459 219.107 652.084 194.315 640.281C187.606 637.085 185.404 639.286 184.385 644.428ZM288.433 1315.08C295.039 1318.07 300.896 1320.66 306.717 1323.36C311.777 1325.71 317.621 1331.79 321.798 1328.64C325.597 1325.76 320.984 1319.01 319.628 1314.01C318.645 1310.36 317.923 1305.58 311.825 1307.44C304.273 1309.75 295.827 1310.35 288.433 1315.08ZM555.214 470.457C563.293 474.694 568.605 477.858 574.177 480.274C578.917 482.325 584.992 487.758 588.351 484.967C591.918 481.98 587.617 475.39 586.464 470.36C585.067 464.26 581.091 463.014 575.69 464.589C569.705 466.319 563.725 468.031 555.214 470.457Z" fill="#19BFCD"/>
</g>
<path d="M495.912 113.561C498.137 114.686 499.374 117.067 502.259 117.187C508.379 117.443 513.627 119.648 519.575 120.291C529.006 121.312 536.718 126.471 543.774 132.207C548.438 135.999 552.573 140.937 556.112 146.809C559.2 151.932 564.295 153.11 567.981 157.095C575.865 165.62 589.274 163.513 597.829 170.821C604.335 176.379 611.97 179.745 619.416 183.508C621.81 184.718 622.484 188.961 624.623 190.741C626.586 192.375 629.462 192.35 631.697 193.48C635.562 195.433 642.115 192.785 644.869 196.79C647.046 199.958 651.239 199.591 654.328 201.152C659.68 203.857 665.793 205.064 671.154 207.774C674.931 209.682 678.954 210.89 683.092 212.029C684.825 212.506 686.964 211.999 688.537 212.794C688.868 212.961 692.327 213.931 690.233 215.533" stroke="url(#paint42_linear_1265_377)" stroke-width="4.31741" stroke-linecap="round"/>
<path d="M494.03 117.284C496.255 118.409 498.906 117.993 500.714 120.244C504.55 125.02 509.437 127.937 513.483 132.345C519.898 139.332 528.626 142.482 537.429 144.761C543.249 146.267 549.677 146.668 556.504 146.034C562.46 145.481 566.43 148.885 571.825 149.489C583.365 150.781 589.621 162.827 600.579 165.381C608.912 167.323 616.151 171.472 623.597 175.236C625.991 176.446 629.807 174.472 632.508 175.138C634.988 175.749 636.674 178.08 638.908 179.209C642.774 181.163 644.528 188.01 649.386 187.851C653.228 187.726 655.419 191.318 658.509 192.88C663.86 195.584 668.458 199.79 673.82 202.5C677.596 204.409 680.955 206.932 684.326 209.587C685.738 210.7 686.598 212.723 688.171 213.518C688.502 213.685 691.335 215.894 691.383 213.259" stroke="url(#paint43_linear_1265_377)" stroke-width="4.31741" stroke-linecap="round"/>
<path d="M450.009 93.343C453.255 94.9836 456.34 95.9242 459.573 98.029C466.432 102.494 473.76 106.355 480.714 110.702C491.739 117.593 503.909 123.299 515.782 128.535C523.632 131.997 531.739 135.092 539.878 137.767C546.978 140.101 553.392 143.834 560.315 146.586C575.125 152.472 588.208 162.212 602.862 168.567C614.007 173.4 624.784 179.02 635.646 184.509C639.138 186.274 642.965 186.834 646.594 188.422C649.926 189.88 653.043 191.976 656.302 193.623C661.941 196.473 667.155 201.207 673.076 203.279C677.759 204.918 682.062 207.968 686.569 210.245C694.375 214.19 701.92 218.666 709.74 222.618C715.249 225.403 720.516 228.355 725.856 231.389C728.094 232.661 730.056 234.211 732.351 235.371C732.834 235.615 737.311 238.152 736.196 236.652" stroke="url(#paint44_linear_1265_377)" stroke-width="4.31741" stroke-linecap="round"/>
<path d="M450.672 92.0317C453.918 93.6722 456.505 95.5977 460.117 96.9523C467.78 99.8262 475.235 103.436 482.859 106.457C494.947 111.247 506.758 117.661 518.017 124.115C525.459 128.381 532.759 133.073 539.74 138.04C545.831 142.372 552.64 145.322 558.962 149.264C572.485 157.697 588.086 162.453 601.894 170.483C612.396 176.589 623.312 181.933 634.174 187.422C637.666 189.187 640.387 191.936 643.818 193.916C646.967 195.734 650.504 197.001 653.763 198.648C659.402 201.498 666.305 202.888 671.486 206.426C675.582 209.225 680.59 210.88 685.097 213.158C692.903 217.103 700.981 220.523 708.802 224.475C714.311 227.259 719.811 229.749 725.422 232.249C727.773 233.296 730.185 233.956 732.48 235.116C732.963 235.36 737.661 237.461 735.792 237.453" stroke="url(#paint45_linear_1265_377)" stroke-width="4.31741" stroke-linecap="round"/>
<circle cx="31.7538" cy="31.7538" r="31.7538" transform="matrix(0.892496 0.451054 0.451054 -0.892496 385.842 272.029)" fill="#0ACDDD"/>
<circle cx="31.7538" cy="31.7538" r="31.7538" transform="matrix(0.892496 0.451054 0.451054 -0.892496 385.842 272.029)" fill="url(#paint46_radial_1265_377)" style="mix-blend-mode:overlay"/>
<circle cx="31.7538" cy="31.7538" r="31.7538" transform="matrix(0.892496 0.451054 0.451054 -0.892496 385.842 272.029)" fill="url(#paint47_radial_1265_377)" style="mix-blend-mode:screen"/>
<circle cx="31.7538" cy="31.7538" r="31.7538" transform="matrix(0.892496 0.451054 0.451054 -0.892496 385.842 272.029)" fill="url(#paint48_radial_1265_377)" style="mix-blend-mode:screen"/>
<path d="M456.271 273.056C458.205 274.033 460.2 274.281 462.006 275.773C465.837 278.938 470.162 281.318 474.093 284.328C480.324 289.099 487.687 292.274 494.956 295.008C499.761 296.815 504.847 298.151 510.063 299.019C514.613 299.775 518.308 302.248 522.624 303.51C531.855 306.209 538.85 313.592 547.849 316.847C554.692 319.322 561.068 322.758 567.539 326.028C569.619 327.079 572.25 326.719 574.475 327.54C576.517 328.295 578.242 329.806 580.183 330.788C583.542 332.485 586.113 336.366 589.875 337.135C592.851 337.744 595.191 340.003 597.876 341.36C602.526 343.71 606.852 346.711 611.511 349.066C614.792 350.725 617.856 352.63 620.952 354.607C622.249 355.436 623.275 356.642 624.642 357.333C624.93 357.479 627.528 359.128 627.102 357.761" stroke="url(#paint49_linear_1265_377)" stroke-width="4.31741" stroke-linecap="round"/>
<path d="M457.085 271.443C459.019 272.421 460.402 273.88 462.674 274.449C467.494 275.657 471.976 277.727 476.73 279.107C484.268 281.294 491.191 285.339 497.703 289.57C502.008 292.367 506.1 295.669 509.892 299.354C513.2 302.569 517.383 304.078 520.958 306.804C528.606 312.635 538.699 313.889 546.657 319.203C552.709 323.245 559.256 326.341 565.727 329.611C567.807 330.662 569.078 332.994 571.059 334.298C572.877 335.495 575.117 335.987 577.059 336.968C580.418 338.666 585.066 338.434 587.918 341.007C590.172 343.042 593.379 343.586 596.064 344.943C600.715 347.293 605.696 348.995 610.355 351.35C613.637 353.009 616.988 354.345 620.417 355.665C621.853 356.218 623.432 356.328 624.8 357.019C625.088 357.165 627.956 358.278 626.604 358.746" stroke="url(#paint50_linear_1265_377)" stroke-width="4.31741" stroke-linecap="round"/>
<circle cx="36.7699" cy="36.7699" r="36.7699" transform="matrix(0.892496 0.451054 0.451054 -0.892496 359.066 519.598)" fill="#0ACDDD"/>
<circle cx="36.7699" cy="36.7699" r="36.7699" transform="matrix(0.892496 0.451054 0.451054 -0.892496 359.066 519.598)" fill="url(#paint51_radial_1265_377)" style="mix-blend-mode:overlay"/>
<circle cx="36.7699" cy="36.7699" r="36.7699" transform="matrix(0.892496 0.451054 0.451054 -0.892496 359.066 519.598)" fill="url(#paint52_radial_1265_377)" style="mix-blend-mode:screen"/>
<circle cx="36.7699" cy="36.7699" r="36.7699" transform="matrix(0.892496 0.451054 0.451054 -0.892496 359.066 519.598)" fill="url(#paint53_radial_1265_377)" style="mix-blend-mode:screen"/>
<path d="M374.724 487.687C374.864 487.758 375.293 487.214 375.208 487.75C375.027 488.887 375.269 489.204 375.172 490.178C375.019 491.723 375.758 491.55 376.636 491.054C377.217 490.726 378.047 489.912 379.086 488.668C379.992 487.583 380.035 488.21 380.691 487.622C382.096 486.366 381.167 489.744 382.303 489.026C383.167 488.479 383.55 488.886 384.02 489.123C384.171 489.2 384.993 487.925 385.268 487.761C385.52 487.61 385.406 488.193 385.547 488.264C385.791 488.388 385.013 490.576 385.709 489.796C386.259 489.179 386.028 490.138 386.222 490.237C386.56 490.407 386.57 491.227 386.908 491.398C387.146 491.519 387.235 491.921 387.306 492.369C387.336 492.557 387.153 493.153 387.253 493.203C387.274 493.214 387.336 493.582 387.736 492.632" stroke="url(#paint54_linear_1265_377)" stroke-width="4.31741" stroke-linecap="round"/>
<path d="M375.54 486.074C375.68 486.145 375.497 486.813 375.878 486.426C376.687 485.606 377.084 485.613 377.812 484.957C378.965 483.918 379.263 484.615 379.385 485.617C379.466 486.279 379.302 487.43 378.917 489.004C378.581 490.377 379.111 490.04 379.027 490.917C378.849 492.792 381.018 490.041 381.113 491.382C381.185 492.401 381.74 492.469 382.21 492.706C382.361 492.783 381.822 494.2 381.853 494.519C381.881 494.811 382.283 494.374 382.424 494.445C382.668 494.568 383.969 492.644 383.754 493.667C383.583 494.477 384.218 493.721 384.413 493.819C384.75 493.99 385.416 493.511 385.755 493.682C385.993 493.803 386.37 493.636 386.773 493.427C386.941 493.339 387.313 492.839 387.412 492.889C387.433 492.9 387.767 492.732 387.239 493.617" stroke="url(#paint55_linear_1265_377)" stroke-width="4.31741" stroke-linecap="round"/>
<circle cx="36.7699" cy="36.7699" r="36.7699" transform="matrix(0.892496 0.451054 0.451054 -0.892496 359.066 519.598)" fill="#0ACDDD"/>
<circle cx="36.7699" cy="36.7699" r="36.7699" transform="matrix(0.892496 0.451054 0.451054 -0.892496 359.066 519.598)" fill="url(#paint56_radial_1265_377)" style="mix-blend-mode:overlay"/>
<circle cx="36.7699" cy="36.7699" r="36.7699" transform="matrix(0.892496 0.451054 0.451054 -0.892496 359.066 519.598)" fill="url(#paint57_radial_1265_377)" style="mix-blend-mode:screen"/>
<circle cx="36.7699" cy="36.7699" r="36.7699" transform="matrix(0.892496 0.451054 0.451054 -0.892496 359.066 519.598)" fill="url(#paint58_radial_1265_377)" style="mix-blend-mode:screen"/>
<circle cx="271.725" cy="601.564" r="8.35418" transform="rotate(26.8114 271.725 601.564)" fill="#0ACDDD"/>
<circle cx="271.725" cy="601.564" r="8.35418" transform="rotate(26.8114 271.725 601.564)" fill="url(#paint59_radial_1265_377)" style="mix-blend-mode:overlay"/>
<circle cx="271.725" cy="601.564" r="8.35418" transform="rotate(26.8114 271.725 601.564)" fill="url(#paint60_radial_1265_377)" style="mix-blend-mode:screen"/>
<circle cx="271.725" cy="601.564" r="8.35418" transform="rotate(26.8114 271.725 601.564)" fill="url(#paint61_radial_1265_377)" style="mix-blend-mode:screen"/>
<path d="M277.321 605.515C278.453 606.087 279.748 605.981 280.708 607.045C282.746 609.304 285.245 610.761 287.375 612.86C290.751 616.189 295.152 617.867 299.564 619.156C302.48 620.009 305.663 620.384 309.011 620.307C311.932 620.24 313.993 621.888 316.673 622.322C322.404 623.253 325.856 628.845 331.339 630.323C335.508 631.447 339.205 633.529 342.992 635.443C344.21 636.058 346.032 635.289 347.385 635.67C348.627 636.019 349.529 637.116 350.665 637.69C352.632 638.684 353.705 641.808 356.096 641.884C357.987 641.945 359.178 643.622 360.749 644.417C363.471 645.792 365.866 647.818 368.593 649.196C370.514 650.167 372.248 651.401 373.991 652.694C374.721 653.236 375.207 654.169 376.007 654.574C376.176 654.659 377.64 655.736 377.583 654.555" stroke="url(#paint62_linear_1265_377)" stroke-width="4.31741" stroke-linecap="round"/>
<path d="M278.137 603.902C279.269 604.474 279.952 605.58 281.379 605.721C284.405 606.022 287.06 607.17 290.014 607.64C294.697 608.384 298.658 610.932 302.312 613.719C304.728 615.562 306.918 617.902 308.842 620.643C310.521 623.034 313.07 623.717 315.009 625.617C319.157 629.679 325.707 629.142 330.149 632.679C333.527 635.37 337.395 637.112 341.183 639.026C342.4 639.641 342.861 641.564 343.97 642.428C344.988 643.22 346.406 643.296 347.543 643.871C349.509 644.864 352.661 643.876 354.141 645.756C355.311 647.242 357.368 647.205 358.939 648C361.661 649.375 364.713 650.102 367.44 651.48C369.361 652.451 371.382 653.115 373.458 653.752C374.327 654.018 375.366 653.856 376.167 654.26C376.335 654.345 378.071 654.886 377.086 655.54" stroke="url(#paint63_linear_1265_377)" stroke-width="4.31741" stroke-linecap="round"/>
<circle cx="407.462" cy="670.164" r="33.4239" transform="rotate(26.8114 407.462 670.164)" fill="#0ACDDD"/>
<circle cx="407.462" cy="670.164" r="33.4239" transform="rotate(26.8114 407.462 670.164)" fill="url(#paint64_radial_1265_377)" style="mix-blend-mode:overlay"/>
<circle cx="407.462" cy="670.164" r="33.4239" transform="rotate(26.8114 407.462 670.164)" fill="url(#paint65_radial_1265_377)" style="mix-blend-mode:screen"/>
<circle cx="407.462" cy="670.164" r="33.4239" transform="rotate(26.8114 407.462 670.164)" fill="url(#paint66_radial_1265_377)" style="mix-blend-mode:screen"/>
<path d="M108.224 784.444C111.164 785.93 114.038 786.622 116.904 788.65C122.986 792.953 129.602 796.49 135.792 800.642C145.605 807.223 156.684 812.276 167.538 816.821C174.713 819.826 182.186 822.37 189.745 824.421C196.34 826.211 202.084 829.719 208.452 832.018C222.074 836.936 233.514 846.566 246.923 852.05C257.121 856.22 266.859 861.355 276.696 866.326C279.858 867.925 283.504 868.077 286.823 869.451C289.87 870.713 292.625 872.746 295.577 874.238C300.684 876.819 305.132 881.648 310.615 883.287C314.951 884.583 318.734 887.572 322.816 889.635C329.885 893.208 336.632 897.432 343.714 901.012C348.704 903.533 353.436 906.282 358.229 909.117C360.237 910.305 361.941 911.854 364.019 912.904C364.457 913.125 368.476 915.494 367.589 913.893" stroke="url(#paint67_linear_1265_377)" stroke-width="4.31741" stroke-linecap="round"/>
<path d="M109.04 782.832C111.98 784.318 114.242 786.221 117.575 787.326C124.645 789.671 131.418 792.9 138.431 795.421C149.55 799.418 160.19 805.342 170.287 811.384C176.961 815.379 183.441 819.887 189.577 824.757C194.929 829.005 201.16 831.549 206.788 835.312C218.827 843.363 233.365 846.862 245.733 854.406C255.139 860.143 265.049 864.938 274.886 869.909C278.048 871.507 280.334 874.353 283.409 876.209C286.232 877.914 289.502 878.927 292.454 880.419C297.561 883 304.087 883.716 308.659 887.159C312.274 889.881 316.924 891.155 321.006 893.218C328.076 896.79 335.478 899.716 342.561 903.296C347.55 905.817 352.57 907.997 357.695 910.175C359.843 911.087 362.1 911.54 364.179 912.591C364.616 912.812 368.907 914.643 367.092 914.878" stroke="url(#paint68_linear_1265_377)" stroke-width="4.31741" stroke-linecap="round"/>
<circle cx="387.291" cy="924.987" r="21.7238" transform="rotate(26.8114 387.291 924.987)" fill="#0ACDDD"/>
<circle cx="387.291" cy="924.987" r="21.7238" transform="rotate(26.8114 387.291 924.987)" fill="url(#paint69_radial_1265_377)" style="mix-blend-mode:overlay"/>
<circle cx="387.291" cy="924.987" r="21.7238" transform="rotate(26.8114 387.291 924.987)" fill="url(#paint70_radial_1265_377)" style="mix-blend-mode:screen"/>
<circle cx="387.291" cy="924.987" r="21.7238" transform="rotate(26.8114 387.291 924.987)" fill="url(#paint71_radial_1265_377)" style="mix-blend-mode:screen"/>
</g>
<defs>
<filter id="filter0_f_1265_377" x="68.4199" y="-328.029" width="812.727" height="1671.92" filterUnits="userSpaceOnUse" color-interpolation-filters="sRGB">
<feFlood flood-opacity="0" result="BackgroundImageFix"/>
<feBlend mode="normal" in="SourceGraphic" in2="BackgroundImageFix" result="shape"/>
<feGaussianBlur stdDeviation="31.75" result="effect1_foregroundBlur_1265_377"/>
</filter>
<filter id="filter1_f_1265_377" x="168.212" y="49.2692" width="488.034" height="922.714" filterUnits="userSpaceOnUse" color-interpolation-filters="sRGB">
<feFlood flood-opacity="0" result="BackgroundImageFix"/>
<feBlend mode="normal" in="SourceGraphic" in2="BackgroundImageFix" result="shape"/>
<feGaussianBlur stdDeviation="5.39676" result="effect1_foregroundBlur_1265_377"/>
</filter>
<filter id="filter2_f_1265_377" x="161.943" y="70.9579" width="483.025" height="907.806" filterUnits="userSpaceOnUse" color-interpolation-filters="sRGB">
<feFlood flood-opacity="0" result="BackgroundImageFix"/>
<feBlend mode="normal" in="SourceGraphic" in2="BackgroundImageFix" result="shape"/>
<feGaussianBlur stdDeviation="5.39676" result="effect1_foregroundBlur_1265_377"/>
</filter>
<filter id="filter3_f_1265_377" x="178.042" y="29.1691" width="488.034" height="922.714" filterUnits="userSpaceOnUse" color-interpolation-filters="sRGB">
<feFlood flood-opacity="0" result="BackgroundImageFix"/>
<feBlend mode="normal" in="SourceGraphic" in2="BackgroundImageFix" result="shape"/>
<feGaussianBlur stdDeviation="5.39676" result="effect1_foregroundBlur_1265_377"/>
</filter>
<filter id="filter4_f_1265_377" x="-28.9398" y="-460.678" width="1024.8" height="1955.89" filterUnits="userSpaceOnUse" color-interpolation-filters="sRGB">
<feFlood flood-opacity="0" result="BackgroundImageFix"/>
<feBlend mode="normal" in="SourceGraphic" in2="BackgroundImageFix" result="shape"/>
<feGaussianBlur stdDeviation="40.3" result="effect1_foregroundBlur_1265_377"/>
</filter>
<linearGradient id="paint0_linear_1265_377" x1="269.306" y1="772.4" x2="265.834" y2="779.269" gradientUnits="userSpaceOnUse">
<stop stop-color="#34E0EC" stop-opacity="0"/>
<stop offset="0.280472" stop-color="#34DFEB" stop-opacity="0.65226"/>
<stop offset="0.815472" stop-color="#33DFEB"/>
<stop offset="1" stop-color="#34E0EC" stop-opacity="0"/>
</linearGradient>
<linearGradient id="paint1_linear_1265_377" x1="265.835" y1="779.269" x2="269.307" y2="772.4" gradientUnits="userSpaceOnUse">
<stop stop-color="#34E0EC" stop-opacity="0"/>
<stop offset="0.280472" stop-color="#34DFEB" stop-opacity="0.65226"/>
<stop offset="0.815472" stop-color="#33DFEB"/>
<stop offset="1" stop-color="#34E0EC" stop-opacity="0"/>
</linearGradient>
<radialGradient id="paint2_radial_1265_377" cx="0" cy="0" r="1" gradientUnits="userSpaceOnUse" gradientTransform="translate(411.099 840.16) rotate(107.17) scale(29.3654)">
<stop stop-color="#0A8F98"/>
<stop offset="1" stop-color="#064448"/>
</radialGradient>
<radialGradient id="paint3_radial_1265_377" cx="0" cy="0" r="1" gradientUnits="userSpaceOnUse" gradientTransform="translate(388.315 843.147) rotate(4.688) scale(34.5154)">
<stop stop-color="white"/>
<stop offset="1" stop-color="#033D3A" stop-opacity="0"/>
</radialGradient>
<radialGradient id="paint4_radial_1265_377" cx="0" cy="0" r="1" gradientUnits="userSpaceOnUse" gradientTransform="translate(409.759 862.051) rotate(-19.5025) scale(22.7493 10.4656)">
<stop stop-color="white" stop-opacity="0.62"/>
<stop offset="1" stop-color="#033D3A" stop-opacity="0"/>
</radialGradient>
<radialGradient id="paint5_radial_1265_377" cx="0" cy="0" r="1" gradientUnits="userSpaceOnUse" gradientTransform="translate(204.809 653.469) rotate(107.17) scale(9.78565)">
<stop stop-color="#0A8F98"/>
<stop offset="1" stop-color="#064448"/>
</radialGradient>
<radialGradient id="paint6_radial_1265_377" cx="0" cy="0" r="1" gradientUnits="userSpaceOnUse" gradientTransform="translate(197.217 654.464) rotate(4.688) scale(11.5018)">
<stop stop-color="white"/>
<stop offset="1" stop-color="#033D3A" stop-opacity="0"/>
</radialGradient>
<radialGradient id="paint7_radial_1265_377" cx="0" cy="0" r="1" gradientUnits="userSpaceOnUse" gradientTransform="translate(204.363 660.764) rotate(-19.5025) scale(7.58092 3.48754)">
<stop stop-color="white" stop-opacity="0.62"/>
<stop offset="1" stop-color="#033D3A" stop-opacity="0"/>
</radialGradient>
<linearGradient id="paint8_linear_1265_377" x1="296.766" y1="698.147" x2="293.294" y2="705.016" gradientUnits="userSpaceOnUse">
<stop stop-color="#34E0EC" stop-opacity="0"/>
<stop offset="0.280472" stop-color="#34DFEB" stop-opacity="0.65226"/>
<stop offset="0.815472" stop-color="#33DFEB"/>
<stop offset="1" stop-color="#34E0EC" stop-opacity="0"/>
</linearGradient>
<linearGradient id="paint9_linear_1265_377" x1="293.295" y1="705.016" x2="296.767" y2="698.147" gradientUnits="userSpaceOnUse">
<stop stop-color="#34E0EC" stop-opacity="0"/>
<stop offset="0.280472" stop-color="#34DFEB" stop-opacity="0.65226"/>
<stop offset="0.815472" stop-color="#33DFEB"/>
<stop offset="1" stop-color="#34E0EC" stop-opacity="0"/>
</linearGradient>
<radialGradient id="paint10_radial_1265_377" cx="0" cy="0" r="1" gradientUnits="userSpaceOnUse" gradientTransform="translate(418.743 754.71) rotate(107.17) scale(37.1956)">
<stop stop-color="#0A8F98"/>
<stop offset="1" stop-color="#064448"/>
</radialGradient>
<radialGradient id="paint11_radial_1265_377" cx="0" cy="0" r="1" gradientUnits="userSpaceOnUse" gradientTransform="translate(389.883 758.493) rotate(4.688) scale(43.7188)">
<stop stop-color="white"/>
<stop offset="1" stop-color="#033D3A" stop-opacity="0"/>
</radialGradient>
<radialGradient id="paint12_radial_1265_377" cx="0" cy="0" r="1" gradientUnits="userSpaceOnUse" gradientTransform="translate(417.045 782.438) rotate(-19.5025) scale(28.8153 13.2563)">
<stop stop-color="white" stop-opacity="0.62"/>
<stop offset="1" stop-color="#033D3A" stop-opacity="0"/>
</radialGradient>
<radialGradient id="paint13_radial_1265_377" cx="0" cy="0" r="1" gradientUnits="userSpaceOnUse" gradientTransform="translate(355.399 555.055) rotate(107.17) scale(7.83021)">
<stop stop-color="#0A8F98"/>
<stop offset="1" stop-color="#064448"/>
</radialGradient>
<radialGradient id="paint14_radial_1265_377" cx="0" cy="0" r="1" gradientUnits="userSpaceOnUse" gradientTransform="translate(349.324 555.851) rotate(4.688) scale(9.20344)">
<stop stop-color="white"/>
<stop offset="1" stop-color="#033D3A" stop-opacity="0"/>
</radialGradient>
<radialGradient id="paint15_radial_1265_377" cx="0" cy="0" r="1" gradientUnits="userSpaceOnUse" gradientTransform="translate(355.042 560.892) rotate(-19.5025) scale(6.06604 2.79064)">
<stop stop-color="white" stop-opacity="0.62"/>
<stop offset="1" stop-color="#033D3A" stop-opacity="0"/>
</radialGradient>
<linearGradient id="paint16_linear_1265_377" x1="372.291" y1="561.67" x2="368.819" y2="568.539" gradientUnits="userSpaceOnUse">
<stop stop-color="#34E0EC" stop-opacity="0"/>
<stop offset="0.280472" stop-color="#34DFEB" stop-opacity="0.65226"/>
<stop offset="0.815472" stop-color="#33DFEB"/>
<stop offset="1" stop-color="#34E0EC" stop-opacity="0"/>
</linearGradient>
<linearGradient id="paint17_linear_1265_377" x1="368.82" y1="568.539" x2="372.291" y2="561.669" gradientUnits="userSpaceOnUse">
<stop stop-color="#34E0EC" stop-opacity="0"/>
<stop offset="0.280472" stop-color="#34DFEB" stop-opacity="0.65226"/>
<stop offset="0.815472" stop-color="#33DFEB"/>
<stop offset="1" stop-color="#34E0EC" stop-opacity="0"/>
</linearGradient>
<radialGradient id="paint18_radial_1265_377" cx="0" cy="0" r="1" gradientUnits="userSpaceOnUse" gradientTransform="translate(416.349 577.016) rotate(107.17) scale(43.0703)">
<stop stop-color="#0A8F98"/>
<stop offset="1" stop-color="#064448"/>
</radialGradient>
<radialGradient id="paint19_radial_1265_377" cx="0" cy="0" r="1" gradientUnits="userSpaceOnUse" gradientTransform="translate(382.931 581.397) rotate(4.688) scale(50.6239)">
<stop stop-color="white"/>
<stop offset="1" stop-color="#033D3A" stop-opacity="0"/>
</radialGradient>
<radialGradient id="paint20_radial_1265_377" cx="0" cy="0" r="1" gradientUnits="userSpaceOnUse" gradientTransform="translate(414.383 609.123) rotate(-19.5025) scale(33.3665 15.35)">
<stop stop-color="white" stop-opacity="0.62"/>
<stop offset="1" stop-color="#033D3A" stop-opacity="0"/>
</radialGradient>
<radialGradient id="paint21_radial_1265_377" cx="0" cy="0" r="1" gradientUnits="userSpaceOnUse" gradientTransform="translate(49.4818 32.3871) rotate(107.17) scale(43.0676)">
<stop stop-color="#0A8F98"/>
<stop offset="1" stop-color="#064448"/>
</radialGradient>
<radialGradient id="paint22_radial_1265_377" cx="0" cy="0" r="1" gradientUnits="userSpaceOnUse" gradientTransform="translate(16.066 36.7676) rotate(4.688) scale(50.6207)">
<stop stop-color="white"/>
<stop offset="1" stop-color="#033D3A" stop-opacity="0"/>
</radialGradient>
<radialGradient id="paint23_radial_1265_377" cx="0" cy="0" r="1" gradientUnits="userSpaceOnUse" gradientTransform="translate(47.5162 64.4925) rotate(-19.5025) scale(33.3644 15.349)">
<stop stop-color="white" stop-opacity="0.62"/>
<stop offset="1" stop-color="#033D3A" stop-opacity="0"/>
</radialGradient>
<linearGradient id="paint24_linear_1265_377" x1="452.179" y1="446.293" x2="448.708" y2="453.162" gradientUnits="userSpaceOnUse">
<stop stop-color="#34E0EC" stop-opacity="0"/>
<stop offset="0.280472" stop-color="#34DFEB" stop-opacity="0.65226"/>
<stop offset="0.815472" stop-color="#33DFEB"/>
<stop offset="1" stop-color="#34E0EC" stop-opacity="0"/>
</linearGradient>
<linearGradient id="paint25_linear_1265_377" x1="448.707" y1="453.162" x2="452.178" y2="446.293" gradientUnits="userSpaceOnUse">
<stop stop-color="#34E0EC" stop-opacity="0"/>
<stop offset="0.280472" stop-color="#34DFEB" stop-opacity="0.65226"/>
<stop offset="0.815472" stop-color="#33DFEB"/>
<stop offset="1" stop-color="#34E0EC" stop-opacity="0"/>
</linearGradient>
<radialGradient id="paint26_radial_1265_377" cx="0" cy="0" r="1" gradientUnits="userSpaceOnUse" gradientTransform="translate(8.99669 5.88856) rotate(107.17) scale(7.83048)">
<stop stop-color="#0A8F98"/>
<stop offset="1" stop-color="#064448"/>
</radialGradient>
<radialGradient id="paint27_radial_1265_377" cx="0" cy="0" r="1" gradientUnits="userSpaceOnUse" gradientTransform="translate(2.92109 6.68502) rotate(4.688) scale(9.20376)">
<stop stop-color="white"/>
<stop offset="1" stop-color="#033D3A" stop-opacity="0"/>
</radialGradient>
<radialGradient id="paint28_radial_1265_377" cx="0" cy="0" r="1" gradientUnits="userSpaceOnUse" gradientTransform="translate(8.63931 11.7259) rotate(-19.5025) scale(6.06625 2.79073)">
<stop stop-color="white" stop-opacity="0.62"/>
<stop offset="1" stop-color="#033D3A" stop-opacity="0"/>
</radialGradient>
<radialGradient id="paint29_radial_1265_377" cx="0" cy="0" r="1" gradientUnits="userSpaceOnUse" gradientTransform="translate(44.9835 29.4428) rotate(107.17) scale(39.1524)">
<stop stop-color="#0A8F98"/>
<stop offset="1" stop-color="#064448"/>
</radialGradient>
<radialGradient id="paint30_radial_1265_377" cx="0" cy="0" r="1" gradientUnits="userSpaceOnUse" gradientTransform="translate(14.6055 33.4251) rotate(4.688) scale(46.0188)">
<stop stop-color="white"/>
<stop offset="1" stop-color="#033D3A" stop-opacity="0"/>
</radialGradient>
<radialGradient id="paint31_radial_1265_377" cx="0" cy="0" r="1" gradientUnits="userSpaceOnUse" gradientTransform="translate(43.1965 58.6295) rotate(-19.5025) scale(30.3313 13.9537)">
<stop stop-color="white" stop-opacity="0.62"/>
<stop offset="1" stop-color="#033D3A" stop-opacity="0"/>
</radialGradient>
<linearGradient id="paint32_linear_1265_377" x1="508.691" y1="385.089" x2="505.22" y2="391.958" gradientUnits="userSpaceOnUse">
<stop stop-color="#34E0EC" stop-opacity="0"/>
<stop offset="0.280472" stop-color="#34DFEB" stop-opacity="0.65226"/>
<stop offset="0.815472" stop-color="#33DFEB"/>
<stop offset="1" stop-color="#34E0EC" stop-opacity="0"/>
</linearGradient>
<linearGradient id="paint33_linear_1265_377" x1="505.219" y1="391.958" x2="508.69" y2="385.089" gradientUnits="userSpaceOnUse">
<stop stop-color="#34E0EC" stop-opacity="0"/>
<stop offset="0.280472" stop-color="#34DFEB" stop-opacity="0.65226"/>
<stop offset="0.815472" stop-color="#33DFEB"/>
<stop offset="1" stop-color="#34E0EC" stop-opacity="0"/>
</linearGradient>
<radialGradient id="paint34_radial_1265_377" cx="0" cy="0" r="1" gradientUnits="userSpaceOnUse" gradientTransform="translate(29.2393 19.1378) rotate(107.17) scale(25.4491)">
<stop stop-color="#0A8F98"/>
<stop offset="1" stop-color="#064448"/>
</radialGradient>
<radialGradient id="paint35_radial_1265_377" cx="0" cy="0" r="1" gradientUnits="userSpaceOnUse" gradientTransform="translate(9.49354 21.7263) rotate(4.688) scale(29.9122)">
<stop stop-color="white"/>
<stop offset="1" stop-color="#033D3A" stop-opacity="0"/>
</radialGradient>
<radialGradient id="paint36_radial_1265_377" cx="0" cy="0" r="1" gradientUnits="userSpaceOnUse" gradientTransform="translate(28.0777 38.1092) rotate(-19.5025) scale(19.7153 9.06988)">
<stop stop-color="white" stop-opacity="0.62"/>
<stop offset="1" stop-color="#033D3A" stop-opacity="0"/>
</radialGradient>
<linearGradient id="paint37_linear_1265_377" x1="564.568" y1="235.456" x2="561.096" y2="242.325" gradientUnits="userSpaceOnUse">
<stop stop-color="#34E0EC" stop-opacity="0"/>
<stop offset="0.280472" stop-color="#34DFEB" stop-opacity="0.65226"/>
<stop offset="0.815472" stop-color="#33DFEB"/>
<stop offset="1" stop-color="#34E0EC" stop-opacity="0"/>
</linearGradient>
<linearGradient id="paint38_linear_1265_377" x1="561.097" y1="242.325" x2="564.569" y2="235.456" gradientUnits="userSpaceOnUse">
<stop stop-color="#34E0EC" stop-opacity="0"/>
<stop offset="0.280472" stop-color="#34DFEB" stop-opacity="0.65226"/>
<stop offset="0.815472" stop-color="#33DFEB"/>
<stop offset="1" stop-color="#34E0EC" stop-opacity="0"/>
</linearGradient>
<linearGradient id="paint39_linear_1265_377" x1="318.85" y1="145.017" x2="505.508" y2="876.235" gradientUnits="userSpaceOnUse">
<stop stop-color="#88D4DA" stop-opacity="0"/>
<stop offset="0.305" stop-color="white" stop-opacity="0.523256"/>
<stop offset="0.495" stop-color="#78E0E8"/>
<stop offset="0.74" stop-color="white" stop-opacity="0.45"/>
<stop offset="1" stop-color="#BAF2F6" stop-opacity="0"/>
</linearGradient>
<linearGradient id="paint40_linear_1265_377" x1="312.581" y1="151.798" x2="499.239" y2="883.016" gradientUnits="userSpaceOnUse">
<stop stop-color="#88D4DA" stop-opacity="0"/>
<stop offset="0.305" stop-color="white" stop-opacity="0.523256"/>
<stop offset="0.495" stop-color="#78E0E8"/>
<stop offset="0.74" stop-color="white" stop-opacity="0.45"/>
<stop offset="1" stop-color="#BAF2F6" stop-opacity="0"/>
</linearGradient>
<linearGradient id="paint41_linear_1265_377" x1="328.68" y1="124.916" x2="515.339" y2="856.135" gradientUnits="userSpaceOnUse">
<stop stop-color="#88D4DA" stop-opacity="0"/>
<stop offset="0.305" stop-color="white" stop-opacity="0.523256"/>
<stop offset="0.495" stop-color="#78E0E8"/>
<stop offset="0.74" stop-color="white" stop-opacity="0.45"/>
<stop offset="1" stop-color="#BAF2F6" stop-opacity="0"/>
</linearGradient>
<linearGradient id="paint42_linear_1265_377" x1="588.983" y1="172.891" x2="596.999" y2="157.031" gradientUnits="userSpaceOnUse">
<stop stop-color="#34E0EC" stop-opacity="0"/>
<stop offset="0.280472" stop-color="#34DFEB" stop-opacity="0.65226"/>
<stop offset="0.815472" stop-color="#33DFEB"/>
<stop offset="1" stop-color="#34E0EC" stop-opacity="0"/>
</linearGradient>
<linearGradient id="paint43_linear_1265_377" x1="596.999" y1="157.03" x2="588.983" y2="172.891" gradientUnits="userSpaceOnUse">
<stop stop-color="#34E0EC" stop-opacity="0"/>
<stop offset="0.280472" stop-color="#34DFEB" stop-opacity="0.65226"/>
<stop offset="0.815472" stop-color="#33DFEB"/>
<stop offset="1" stop-color="#34E0EC" stop-opacity="0"/>
</linearGradient>
<linearGradient id="paint44_linear_1265_377" x1="594.727" y1="162.153" x2="591.905" y2="167.737" gradientUnits="userSpaceOnUse">
<stop stop-color="#34E0EC" stop-opacity="0"/>
<stop offset="0.280472" stop-color="#34DFEB" stop-opacity="0.65226"/>
<stop offset="0.815472" stop-color="#33DFEB"/>
<stop offset="1" stop-color="#34E0EC" stop-opacity="0"/>
</linearGradient>
<linearGradient id="paint45_linear_1265_377" x1="591.905" y1="167.737" x2="594.727" y2="162.152" gradientUnits="userSpaceOnUse">
<stop stop-color="#34E0EC" stop-opacity="0"/>
<stop offset="0.280472" stop-color="#34DFEB" stop-opacity="0.65226"/>
<stop offset="0.815472" stop-color="#33DFEB"/>
<stop offset="1" stop-color="#34E0EC" stop-opacity="0"/>
</linearGradient>
<radialGradient id="paint46_radial_1265_377" cx="0" cy="0" r="1" gradientUnits="userSpaceOnUse" gradientTransform="translate(42.7343 27.9706) rotate(107.17) scale(37.1948)">
<stop stop-color="#0A8F98"/>
<stop offset="1" stop-color="#064448"/>
</radialGradient>
<radialGradient id="paint47_radial_1265_377" cx="0" cy="0" r="1" gradientUnits="userSpaceOnUse" gradientTransform="translate(13.8752 31.7538) rotate(4.688) scale(43.7179)">
<stop stop-color="white"/>
<stop offset="1" stop-color="#033D3A" stop-opacity="0"/>
</radialGradient>
<radialGradient id="paint48_radial_1265_377" cx="0" cy="0" r="1" gradientUnits="userSpaceOnUse" gradientTransform="translate(41.0367 55.698) rotate(-19.5025) scale(28.8147 13.256)">
<stop stop-color="white" stop-opacity="0.62"/>
<stop offset="1" stop-color="#033D3A" stop-opacity="0"/>
</radialGradient>
<linearGradient id="paint49_linear_1265_377" x1="543.59" y1="311.862" x2="540.119" y2="318.731" gradientUnits="userSpaceOnUse">
<stop stop-color="#34E0EC" stop-opacity="0"/>
<stop offset="0.280472" stop-color="#34DFEB" stop-opacity="0.65226"/>
<stop offset="0.815472" stop-color="#33DFEB"/>
<stop offset="1" stop-color="#34E0EC" stop-opacity="0"/>
</linearGradient>
<linearGradient id="paint50_linear_1265_377" x1="540.118" y1="318.731" x2="543.589" y2="311.862" gradientUnits="userSpaceOnUse">
<stop stop-color="#34E0EC" stop-opacity="0"/>
<stop offset="0.280472" stop-color="#34DFEB" stop-opacity="0.65226"/>
<stop offset="0.815472" stop-color="#33DFEB"/>
<stop offset="1" stop-color="#34E0EC" stop-opacity="0"/>
</linearGradient>
<radialGradient id="paint51_radial_1265_377" cx="0" cy="0" r="1" gradientUnits="userSpaceOnUse" gradientTransform="translate(49.4849 32.3891) rotate(107.17) scale(43.0703)">
<stop stop-color="#0A8F98"/>
<stop offset="1" stop-color="#064448"/>
</radialGradient>
<radialGradient id="paint52_radial_1265_377" cx="0" cy="0" r="1" gradientUnits="userSpaceOnUse" gradientTransform="translate(16.067 36.7699) rotate(4.688) scale(50.6239)">
<stop stop-color="white"/>
<stop offset="1" stop-color="#033D3A" stop-opacity="0"/>
</radialGradient>
<radialGradient id="paint53_radial_1265_377" cx="0" cy="0" r="1" gradientUnits="userSpaceOnUse" gradientTransform="translate(47.5192 64.4965) rotate(-19.5025) scale(33.3665 15.35)">
<stop stop-color="white" stop-opacity="0.62"/>
<stop offset="1" stop-color="#033D3A" stop-opacity="0"/>
</radialGradient>
<linearGradient id="paint54_linear_1265_377" x1="383.051" y1="486.571" x2="379.58" y2="493.44" gradientUnits="userSpaceOnUse">
<stop stop-color="#34E0EC" stop-opacity="0"/>
<stop offset="0.280472" stop-color="#34DFEB" stop-opacity="0.65226"/>
<stop offset="0.815472" stop-color="#33DFEB"/>
<stop offset="1" stop-color="#34E0EC" stop-opacity="0"/>
</linearGradient>
<linearGradient id="paint55_linear_1265_377" x1="379.581" y1="493.44" x2="383.052" y2="486.571" gradientUnits="userSpaceOnUse">
<stop stop-color="#34E0EC" stop-opacity="0"/>
<stop offset="0.280472" stop-color="#34DFEB" stop-opacity="0.65226"/>
<stop offset="0.815472" stop-color="#33DFEB"/>
<stop offset="1" stop-color="#34E0EC" stop-opacity="0"/>
</linearGradient>
<radialGradient id="paint56_radial_1265_377" cx="0" cy="0" r="1" gradientUnits="userSpaceOnUse" gradientTransform="translate(49.4849 32.3891) rotate(107.17) scale(43.0703)">
<stop stop-color="#0A8F98"/>
<stop offset="1" stop-color="#064448"/>
</radialGradient>
<radialGradient id="paint57_radial_1265_377" cx="0" cy="0" r="1" gradientUnits="userSpaceOnUse" gradientTransform="translate(16.067 36.7699) rotate(4.688) scale(50.6239)">
<stop stop-color="white"/>
<stop offset="1" stop-color="#033D3A" stop-opacity="0"/>
</radialGradient>
<radialGradient id="paint58_radial_1265_377" cx="0" cy="0" r="1" gradientUnits="userSpaceOnUse" gradientTransform="translate(47.5192 64.4965) rotate(-19.5025) scale(33.3665 15.35)">
<stop stop-color="white" stop-opacity="0.62"/>
<stop offset="1" stop-color="#033D3A" stop-opacity="0"/>
</radialGradient>
<radialGradient id="paint59_radial_1265_377" cx="0" cy="0" r="1" gradientUnits="userSpaceOnUse" gradientTransform="translate(274.614 600.569) rotate(107.17) scale(9.78565)">
<stop stop-color="#0A8F98"/>
<stop offset="1" stop-color="#064448"/>
</radialGradient>
<radialGradient id="paint60_radial_1265_377" cx="0" cy="0" r="1" gradientUnits="userSpaceOnUse" gradientTransform="translate(267.021 601.564) rotate(4.688) scale(11.5018)">
<stop stop-color="white"/>
<stop offset="1" stop-color="#033D3A" stop-opacity="0"/>
</radialGradient>
<radialGradient id="paint61_radial_1265_377" cx="0" cy="0" r="1" gradientUnits="userSpaceOnUse" gradientTransform="translate(274.167 607.864) rotate(-19.5025) scale(7.58092 3.48754)">
<stop stop-color="white" stop-opacity="0.62"/>
<stop offset="1" stop-color="#033D3A" stop-opacity="0"/>
</radialGradient>
<linearGradient id="paint62_linear_1265_377" x1="329.319" y1="626.47" x2="325.848" y2="633.339" gradientUnits="userSpaceOnUse">
<stop stop-color="#34E0EC" stop-opacity="0"/>
<stop offset="0.280472" stop-color="#34DFEB" stop-opacity="0.65226"/>
<stop offset="0.815472" stop-color="#33DFEB"/>
<stop offset="1" stop-color="#34E0EC" stop-opacity="0"/>
</linearGradient>
<linearGradient id="paint63_linear_1265_377" x1="325.849" y1="633.339" x2="329.32" y2="626.47" gradientUnits="userSpaceOnUse">
<stop stop-color="#34E0EC" stop-opacity="0"/>
<stop offset="0.280472" stop-color="#34DFEB" stop-opacity="0.65226"/>
<stop offset="0.815472" stop-color="#33DFEB"/>
<stop offset="1" stop-color="#34E0EC" stop-opacity="0"/>
</linearGradient>
<radialGradient id="paint64_radial_1265_377" cx="0" cy="0" r="1" gradientUnits="userSpaceOnUse" gradientTransform="translate(419.02 666.181) rotate(107.17) scale(39.151)">
<stop stop-color="#0A8F98"/>
<stop offset="1" stop-color="#064448"/>
</radialGradient>
<radialGradient id="paint65_radial_1265_377" cx="0" cy="0" r="1" gradientUnits="userSpaceOnUse" gradientTransform="translate(388.643 670.164) rotate(4.688) scale(46.0172)">
<stop stop-color="white"/>
<stop offset="1" stop-color="#033D3A" stop-opacity="0"/>
</radialGradient>
<radialGradient id="paint66_radial_1265_377" cx="0" cy="0" r="1" gradientUnits="userSpaceOnUse" gradientTransform="translate(417.233 695.367) rotate(-19.5025) scale(30.3302 13.9532)">
<stop stop-color="white" stop-opacity="0.62"/>
<stop offset="1" stop-color="#033D3A" stop-opacity="0"/>
</radialGradient>
<linearGradient id="paint67_linear_1265_377" x1="239.856" y1="845.645" x2="236.384" y2="852.514" gradientUnits="userSpaceOnUse">
<stop stop-color="#34E0EC" stop-opacity="0"/>
<stop offset="0.280472" stop-color="#34DFEB" stop-opacity="0.65226"/>
<stop offset="0.815472" stop-color="#33DFEB"/>
<stop offset="1" stop-color="#34E0EC" stop-opacity="0"/>
</linearGradient>
<linearGradient id="paint68_linear_1265_377" x1="236.385" y1="852.514" x2="239.857" y2="845.645" gradientUnits="userSpaceOnUse">
<stop stop-color="#34E0EC" stop-opacity="0"/>
<stop offset="0.280472" stop-color="#34DFEB" stop-opacity="0.65226"/>
<stop offset="0.815472" stop-color="#33DFEB"/>
<stop offset="1" stop-color="#34E0EC" stop-opacity="0"/>
</linearGradient>
<radialGradient id="paint69_radial_1265_377" cx="0" cy="0" r="1" gradientUnits="userSpaceOnUse" gradientTransform="translate(394.803 922.398) rotate(107.17) scale(25.4461)">
<stop stop-color="#0A8F98"/>
<stop offset="1" stop-color="#064448"/>
</radialGradient>
<radialGradient id="paint70_radial_1265_377" cx="0" cy="0" r="1" gradientUnits="userSpaceOnUse" gradientTransform="translate(375.06 924.987) rotate(4.688) scale(29.9087)">
<stop stop-color="white"/>
<stop offset="1" stop-color="#033D3A" stop-opacity="0"/>
</radialGradient>
<radialGradient id="paint71_radial_1265_377" cx="0" cy="0" r="1" gradientUnits="userSpaceOnUse" gradientTransform="translate(393.642 941.367) rotate(-19.5025) scale(19.713 9.06881)">
<stop stop-color="white" stop-opacity="0.62"/>
<stop offset="1" stop-color="#033D3A" stop-opacity="0"/>
</radialGradient>
</defs>
</svg>
