<svg width="664" height="3062" viewBox="0 0 664 3062" fill="none" xmlns="http://www.w3.org/2000/svg">
<g opacity="0.5" filter="url(#filter0_f_873_287)">
<path d="M239.049 3718.17C236.178 3706.7 229.832 3702.95 224.838 3697.39C155.425 3620.52 85.2585 3545 22.4243 3455.79C-15.5799 3401.81 -13.9302 3411.84 22.8522 3366.54C95.8135 3276.68 178.336 3207.71 257.96 3132.46C321.8 3072.13 384.434 3009.52 438.569 2930.35C490.957 2853.79 531.109 2765.72 544.502 2654.65C558.756 2536.5 541.536 2426.66 499.249 2323.73C484.424 2287.6 484.565 2287.5 501.131 2253.1C583.917 2081.5 579.555 1866.89 490.476 1692.19C438.628 1590.49 374.479 1508.48 307.403 1430.91C237.237 1349.79 164.12 1274.41 97.1591 1187C79.5555 1164.04 62.843 1139.79 46.6348 1114.54C37.4684 1100.31 37.8723 1091.73 47.3356 1079.08C91.41 1020.4 140.661 972.321 190.212 924.89C260.425 857.629 333.199 796.216 400.084 721.493C456.483 658.463 510.123 590.918 546.95 498.91C612.017 336.325 607.951 172.438 540.673 9.62174C530.256 -15.5954 530.259 -30.527 541.546 -53.5121C629.493 -232.129 622.681 -456.628 527.529 -632.984C473.033 -734.006 406.92 -814.867 339.103 -893.63C331.908 -902.009 323.693 -905.957 314.863 -906.736C287.751 -909.071 260.599 -911.202 233.478 -913.071C229.079 -913.408 222.647 -916.234 220.949 -908.95C218.727 -899.58 226.098 -896.838 229.865 -892.454C241.743 -878.583 253.912 -865.364 268.655 -848.94C245.466 -840.398 224.89 -841.766 204.735 -839.732C141.006 -833.309 77.167 -828.398 13.3546 -823.07C-9.64159 -821.149 -12.729 -824.807 -16.1528 -858.562C-17.7898 -874.812 -19.1805 -891.25 -19.3936 -907.598C-19.6459 -925.556 -26.071 -932.477 -36.735 -933.449C-59.2416 -935.432 -81.7599 -936.793 -104.262 -939.034C-117.036 -940.271 -119.33 -930.804 -118.992 -913.72C-116.989 -817.236 -91.3954 -734.033 -52.8396 -657.719C-5.85778 -564.686 53.8501 -491.833 114.815 -421.268C184.063 -341.152 256.227 -266.723 322.525 -180.974C352.965 -141.573 382.473 -100.584 408.661 -54.5615C417.391 -39.2206 419.092 -28.2544 408.131 -11.5696C358.437 63.795 300.484 122.766 241.325 179.467C167.263 250.374 90.4061 315 19.906 393.853C-26.8224 446.114 -70.9311 502.93 -104.074 576.037C-168.986 719.296 -166.928 888.524 -99.3494 1037.21C-91.6218 1054.18 -76.6205 1067.98 -77.6686 1088.69C-78.6162 1107.75 -92.6788 1119.69 -100.736 1135.04C-137.712 1205.42 -161.506 1284.89 -162.932 1375.56C-164.445 1472.71 -141.955 1560.55 -103.215 1639.94C-54.3871 1739.96 9.02676 1816.77 73.5128 1891.91C151.269 1982.53 232.839 2065.82 305.916 2165.52C328.844 2196.77 348.673 2232.35 369.854 2266.12C380.126 2282.46 370.179 2291.29 364.324 2300.18C327.237 2356.18 285.453 2403.69 241.829 2447.63C158.964 2531.14 71.0742 2603.32 -10.1611 2690.53C-71.7164 2756.63 -129.226 2828.91 -164.948 2932.25C-211.088 3065.8 -203.05 3197.33 -151.375 3326.7C-144.816 3343.12 -137.486 3359.14 -129.37 3373.86C-119.576 3391.61 -119.132 3404.92 -130.149 3422.74C-162.737 3475.52 -186.462 3536.59 -198.47 3607.17C-200.885 3621.24 -202.545 3635.73 -203.58 3650.22C-206.347 3688.58 -206.14 3688.65 -180.963 3690.63C-161.915 3692.09 -142.858 3693.08 -123.821 3695.16C-112.849 3696.36 -107.352 3691.76 -105.213 3673.88C-97.3048 3607.39 -96.8712 3608.31 -49.9838 3612.21C-26.9558 3614.13 -3.83961 3613.2 19.1717 3612.32C33.2629 3611.79 44.8916 3618.64 55.9178 3631.72C74.2048 3653.4 93.4618 3673.28 111.604 3695.25C123.134 3709.25 135.44 3715.12 149.963 3715.61C178.247 3716.53 206.498 3719.16 234.801 3720.91C235.806 3720.99 236.803 3719.61 239.051 3718.07L239.049 3718.17ZM274.012 1528.32C277.898 1528.2 278.873 1528.02 286.805 1537.8C321.515 1580.69 353.508 1627.83 382.116 1679.85C392.714 1699.12 391.534 1702.81 375.579 1704.75C273.591 1716.9 171.574 1728.74 69.5509 1740.94C63.9199 1741.6 59.2966 1740.31 55.3178 1734.25C23.458 1685.52 -7.87053 1636.2 -29.8314 1575.62C-34.2831 1563.35 -33.7631 1555.98 -23.4421 1554.9C-11.9743 1553.71 -0.503535 1552.35 10.9604 1551.37C97.1168 1543.76 183.237 1536.25 273.977 1528.32L274.012 1528.32ZM109.523 -573.428C102.278 -571.805 97.8439 -579.455 93.2831 -585.922C63.4866 -628.177 37.8424 -675.454 16.8776 -728.128C7.90246 -750.695 9.43577 -754.777 27.5726 -756.499C122.807 -765.487 218.037 -774.216 313.277 -783.515C321.269 -784.303 326.405 -778.933 331.683 -771.84C363.347 -729.339 395.655 -687.825 421.824 -637.085C425.605 -629.745 433.564 -623.225 430.817 -613.636C427.811 -603.186 418.853 -606.36 412.215 -605.624C348.611 -598.466 285.009 -591.411 221.376 -584.566C184.121 -580.574 146.807 -577.106 109.522 -573.376L109.523 -573.428ZM328.645 2908.97C324.641 2907.94 320.672 2906.91 316.667 2905.93C259.082 2891.77 201.496 2877.67 143.912 2863.46C101.69 2853.07 59.5034 2842.64 17.3238 2831.84C12.4571 2830.58 6.10664 2830.77 3.69256 2822.65C1.63617 2815.81 6.4904 2812.19 9.36861 2808.52C44.1199 2764.26 80.3424 2722.91 118.673 2685.67C125.88 2678.65 133.204 2676.51 141.524 2678.55C228.809 2699.49 316.063 2720.22 403.344 2741.37C419.502 2745.3 421.432 2751.46 413.522 2771.91C395.337 2818.68 372.332 2859.85 347.156 2898.41C342.05 2906.21 336.177 2910.48 328.61 2908.97L328.645 2908.97ZM340.91 651.584C299.53 699.744 260.359 739.259 220.485 777.476C206.569 790.823 192.751 795.261 176.581 792.001C107.304 778.038 38.0242 764.231 -31.3106 751.509C-45.8966 748.836 -48.5779 740.18 -44.9172 720.707C-34.8578 667.09 -18.7242 618.76 4.5285 575.486C11.2124 563.088 17.5095 560.2 28.0645 563.29C91.0832 581.75 154.3 598.878 217.403 616.567C257.114 627.696 296.786 639.029 340.98 651.538L340.91 651.584ZM50.5868 501.658C88.1883 449.683 125.733 409.94 164.55 372.679C170.695 366.773 177.77 368.662 184.711 370.282C272.628 390.805 360.507 411.48 448.473 431.281C461.665 434.261 464.664 440.816 458.098 457.993C441.573 501.315 420.877 539.601 398.003 575.594C389.82 588.447 381.576 593.415 369.19 589.926C303.849 571.392 238.307 554.293 172.885 536.374C133.722 525.651 94.6064 514.205 50.5858 501.71L50.5868 501.658ZM-24.8713 2888.33C-20.4817 2889.14 -18.1622 2889.37 -15.8842 2889.96C81.6312 2914.63 179.147 2939.31 276.661 2964.04C280.044 2964.87 284.458 2964.38 285.849 2969.73C287.89 2977.4 282.507 2979.63 279.705 2982.94C242.89 3026.27 203.477 3063.95 163.495 3100.45C157.214 3106.19 150.968 3106.33 143.713 3104.84C118.527 3099.65 93.2083 3095.95 68.0143 3091.17C21.0136 3082.23 -25.9467 3072.98 -72.9445 3063.89C-87.6661 3061.05 -92.5793 3051.18 -88.0954 3028.51C-79.3934 2984.38 -65.6377 2944.47 -48.8664 2906.51C-42.4919 2892.12 -34.62 2884.79 -24.9069 2888.38L-24.8713 2888.33ZM111.311 1799.93C158.801 1795.73 206.353 1791.96 253.818 1787.25C303.159 1782.37 352.473 1777.12 401.703 1770.78C418.008 1768.71 427.733 1777.23 433.894 1800.05C445.05 1841.29 454.99 1882.65 458.666 1927C460.451 1948.29 456.077 1954.02 442.374 1954.22C381.351 1955.04 320.407 1957.22 259.405 1958.82C251.909 1959.02 244.163 1959.68 237.64 1952.44C194.662 1904.71 151.434 1857.44 111.312 1799.88L111.311 1799.93ZM307.771 -353.767C296.266 -354.285 285.053 -353.744 274.769 -365.73C238.86 -407.519 202.482 -448.36 166.428 -489.85C162.559 -494.346 155.516 -497.944 157.314 -506.879C159.037 -515.509 165.962 -513.061 170.966 -513.559C265.092 -522.632 359.247 -531.392 453.35 -541.037C463.01 -542.008 468.169 -537.88 472.472 -525.056C487.55 -480.247 497.176 -433.263 502.217 -384.037C503.885 -367.63 500.796 -360.089 488.998 -359.8C428.585 -358.204 368.193 -355.881 307.772 -353.819L307.771 -353.767ZM226.116 1463.63C215.046 1465.79 209.465 1467.49 203.838 1467.94C159.689 1471.5 115.509 1474.91 71.33 1478.22C34.028 1481.01 -3.30265 1483.5 -40.5748 1486.55C-49.0505 1487.25 -55.0119 1485.19 -57.0234 1470.41C-63.9447 1419.75 -65.4266 1369.39 -57.443 1319.2C-55.4761 1306.8 -50.9503 1300.35 -41.8637 1300.38C-3.88899 1300.54 34.0588 1300.28 72.0096 1299.87C79.4674 1299.82 85.0212 1305.11 90.7604 1311.62C108.825 1332.19 127.25 1352.05 145.388 1372.42C170.897 1401.07 196.332 1429.93 226.082 1463.57L226.116 1463.63ZM229.113 314.473C233.362 307.955 234.339 305.801 235.681 304.555C279.54 262.859 323.498 221.429 367.292 179.52C374.038 173.089 381.037 171.603 388.648 172.601C417.399 176.357 446.17 180.893 474.938 183.718C487.367 184.929 491.079 195.945 491.457 210.906C492.487 255.78 492.86 300.552 487.067 344.904C484.272 366.31 477.241 369.505 463.843 366.353C419.888 355.885 375.719 347.629 331.678 338.036C298.587 330.836 265.579 322.917 229.113 314.473ZM189.936 2621.6C193.085 2616.44 193.995 2614.13 195.372 2612.83C239.159 2571.29 282.98 2529.8 326.801 2488.3C331.745 2483.6 337.078 2480.33 343.078 2482.19C371.008 2490.86 399.32 2490.33 427.472 2492.69C441.254 2493.85 447.149 2503.17 448.446 2522.71C451.064 2562.47 449.42 2601.96 445.532 2640.96C441.691 2679.24 437.981 2681.03 412.465 2674.93C370.305 2664.91 328.232 2654.01 285.859 2646.1C254.616 2640.24 223.125 2634.66 190.005 2621.6L189.936 2621.6ZM135.277 856.446C86.9827 901.588 41.2606 944.594 -1.36126 994.265C-10.9003 1005.41 -15.7143 995.811 -19.8939 983.825C-35.3989 939.606 -45.9758 893.378 -50.2469 843.797C-52.1809 821.199 -47.0588 816.251 -33.7216 818.932C1.69551 825.999 37.3267 830.904 72.5328 839.977C92.2758 845.066 112.905 841.772 135.31 856.552L135.277 856.446ZM91.9123 3163.09C90.6321 3166.62 90.3527 3168.57 89.5762 3169.29C44.3053 3212.28 -0.69833 3255.81 -43.9037 3303.31C-52.9692 3313.24 -58.4678 3306.86 -63.263 3294.41C-80.9881 3248.36 -90.3906 3198.7 -94.5448 3146.59C-95.8643 3130.05 -90.9679 3127.88 -81.3989 3129.91C-55.6634 3135.41 -29.8709 3139.72 -4.08914 3144.59C27.7051 3150.66 59.4975 3156.83 91.9123 3163.09ZM346.848 -284.878C395.857 -288.695 439.83 -293.987 484.134 -292.876C494.604 -292.645 503.142 -289.295 501.071 -269.493C496.455 -224.999 487.407 -182.763 473.208 -143.254C470.023 -134.373 466.394 -129.518 460.012 -138.717C425.162 -188.877 387.944 -234.862 346.848 -284.878ZM457.717 2040.26C453.893 2085.08 444.227 2126.96 430.851 2166.99C426.258 2180.69 420.6 2180.93 413.454 2169.91C384.163 2124.74 351.469 2085.38 318.954 2045.66C315.597 2041.57 309.203 2038.54 311.088 2030.49C312.747 2023.41 318.793 2024.7 323.305 2024.53C364.121 2022.99 404.995 2022.02 445.789 2019.81C456.83 2019.2 458.837 2026.82 457.717 2040.26ZM-22.1669 3543.83C-32.9573 3544.04 -42.4959 3544.09 -52.0405 3544.44C-60.3353 3544.74 -71.5929 3553.21 -75.9109 3541.22C-79.8329 3530.29 -69.9774 3518.91 -65.5815 3508.31C-62.3841 3500.57 -58.9917 3489.84 -51.3236 3500.74C-41.8319 3514.27 -30.2346 3524.65 -22.1669 3543.83ZM21.7454 1230.17C8.25727 1231.84 -0.797894 1233.84 -9.84878 1233.77C-17.5471 1233.7 -28.8053 1240.35 -32.1502 1230.09C-35.6902 1219.14 -26.3561 1207.83 -22.2325 1196.94C-17.233 1183.74 -11.0126 1184.94 -4.185 1194.44C3.38706 1204.92 10.9601 1215.35 21.7454 1230.17Z" fill="url(#paint0_linear_873_287)" fill-opacity="0.6"/>
</g>
<defs>
<filter id="filter0_f_873_287" x="-264.754" y="-999.142" width="928.176" height="4780.05" filterUnits="userSpaceOnUse" color-interpolation-filters="sRGB">
<feFlood flood-opacity="0" result="BackgroundImageFix"/>
<feBlend mode="normal" in="SourceGraphic" in2="BackgroundImageFix" result="shape"/>
<feGaussianBlur stdDeviation="30" result="effect1_foregroundBlur_873_287"/>
</filter>
<linearGradient id="paint0_linear_873_287" x1="247.881" y1="-912.317" x2="-105.003" y2="3696.62" gradientUnits="userSpaceOnUse">
<stop stop-color="#19BFCD"/>
<stop offset="1" stop-color="#0D6067"/>
</linearGradient>
</defs>
</svg>
