<svg width="103" height="588" viewBox="0 0 103 588" fill="none" xmlns="http://www.w3.org/2000/svg">
<path opacity="0.5" d="M46.8596 586.463C46.4978 584.993 50.1291 587.214 49.5 586.5C40.755 576.645 36.7425 575.344 28.8264 563.906C24.0384 556.985 24.2463 558.271 28.8803 552.463C38.0722 540.941 48.4688 532.099 58.5001 522.451C66.5429 514.715 74.4338 506.688 81.2541 496.537C87.854 486.722 92.9126 475.43 94.5999 461.189C96.3957 446.04 94.2262 431.958 88.8987 418.76C87.0311 414.127 87.0488 414.115 89.1358 409.705C99.5655 387.703 99.016 360.187 87.7935 337.788C81.2614 324.748 73.1797 314.234 64.7292 304.289C55.8894 293.888 46.6778 284.223 38.2418 273.016C36.024 270.071 33.9185 266.963 31.8765 263.726C30.7217 261.901 30.7726 260.801 31.9648 259.179C37.5175 251.655 43.7223 245.491 49.965 239.41C58.8107 230.786 67.979 222.912 76.4055 213.331C83.5109 205.25 90.2686 196.59 94.9083 184.793C103.106 163.947 102.593 142.935 94.1175 122.059C92.8051 118.826 92.8055 116.912 94.2275 113.965C105.307 91.0635 104.449 62.2797 92.4616 39.6683C85.5959 26.7159 77.2668 16.3484 68.7229 6.24992C67.8164 5.17553 65.1112 1.59999 63.9988 1.50002C60.5831 1.20062 57.5 1.49998 53.9991 1.49993C53.445 1.45675 51.78 1.29864 51.5 2.49995C51.22 3.70127 54.486 5.83856 54.9606 6.40069C56.4571 8.17916 57.9901 9.87405 59.8476 11.9798C56.926 13.075 54.3338 12.8996 51.7947 13.1604C43.7658 13.9839 35.7231 14.6136 27.6837 15.2967C24.7866 15.5429 24.3976 15.0739 23.9663 10.746C23.76 8.66262 23.5848 6.55503 23.558 4.45899C23.5262 2.1565 22.7167 1.26915 21.3732 1.14452C18.5377 0.890343 15.8349 1.28737 13 1C11.3906 0.841357 10.9676 1.48372 11.0102 3.67404C11.2625 16.0446 14.4869 26.7124 19.3443 36.497C25.2633 48.4251 32.7855 57.7659 40.4661 66.8132C49.1903 77.0853 58.2818 86.6281 66.6344 97.6224C70.4693 102.674 74.1868 107.929 77.4861 113.83C78.5859 115.797 78.8003 117.203 77.4193 119.342C71.1587 129.005 63.8575 136.566 56.4044 143.836C47.0738 152.927 37.391 161.213 28.5091 171.323C22.6221 178.024 17.065 185.308 12.8896 194.682C4.71169 213.049 4.97098 234.747 13.4848 253.81C14.4583 255.987 16.3483 257.756 16.2162 260.411C16.0968 262.855 14.3252 264.386 13.3101 266.354C8.6517 275.377 5.65403 285.567 5.4744 297.192C5.28382 309.648 8.11711 320.91 12.9978 331.089C19.1493 343.912 27.1385 353.762 35.2627 363.395C45.0587 375.014 55.3353 385.693 64.5418 398.475C67.4304 402.483 69.9285 407.045 72.597 411.374C73.8911 413.469 72.638 414.601 71.9003 415.74C67.2279 422.921 61.9638 429.012 56.4679 434.646C46.0282 445.353 34.9555 454.607 24.7211 465.789C16.9661 474.265 9.72087 483.532 5.22042 496.782C-0.592456 513.905 0.420226 530.768 6.93046 547.356C7.75676 549.461 8.68015 551.514 9.70273 553.402C10.9366 555.678 10.9925 557.384 9.60452 559.669C5.49902 566.435 2.50995 574.266 0.997121 583.315C0.692908 585.119 0.630421 584.142 0.5 586C4.5 586 0.328064 585.746 3.5 586C5.89977 586.187 8.6017 586.197 11 586.463C12.3823 586.618 14.2305 586.792 14.5 584.5C15.4963 575.976 13.797 583.461 19.7041 583.961C22.6053 584.207 25.5175 584.089 28.4166 583.975C30.1919 583.908 30.1109 583.823 31.5 585.5C33.8039 588.279 34.2143 584.683 36.5 587.5C39 587 41.1703 586.401 43 586.463C46.5633 586.581 41.9343 586.239 45.5 586.463C45.6265 586.473 46.5 587.5 46.5 587.5L46.8596 586.463ZM60.5224 316.777C61.0121 316.762 61.1348 316.739 62.1342 317.993C66.507 323.492 70.5377 329.537 74.1418 336.206C75.477 338.676 75.3284 339.15 73.3182 339.399C60.4694 340.957 47.6169 342.475 34.7636 344.039C34.0541 344.123 33.4717 343.958 32.9704 343.181C28.9566 336.932 25.0097 330.609 22.243 322.842C21.6821 321.269 21.7476 320.324 23.0479 320.186C24.4927 320.032 25.9378 319.859 27.3821 319.732C38.2364 318.757 49.0862 317.794 60.518 316.777L60.5224 316.777ZM39.7994 47.3042C38.8867 47.5123 38.328 46.5315 37.7535 45.7023C33.9996 40.2846 30.7688 34.2231 28.1276 27.4695C26.9968 24.5762 27.19 24.0528 29.475 23.832C41.473 22.6796 53.4704 21.5604 65.4692 20.3682C66.4761 20.2671 67.1231 20.9557 67.788 21.865C71.7773 27.3143 75.8475 32.637 79.1444 39.1425C79.6208 40.0837 80.6234 40.9196 80.2774 42.149C79.8987 43.4889 78.7702 43.0819 77.9339 43.1762C69.9207 44.094 61.9079 44.9986 53.8911 45.8762C49.1976 46.388 44.4966 46.8327 39.7993 47.3109L39.7994 47.3042ZM67.4053 493.796C66.9009 493.664 66.4008 493.532 65.8963 493.406C58.6415 491.591 51.3865 489.783 44.1319 487.961C38.8126 486.629 33.4977 485.291 28.1838 483.907C27.5706 483.746 26.7706 483.77 26.4664 482.729C26.2074 481.852 26.8189 481.387 27.1815 480.917C31.5597 475.242 36.1231 469.941 40.9522 465.165C41.8602 464.266 42.7828 463.992 43.831 464.253C54.8275 466.938 65.8202 469.596 76.8162 472.307C78.8518 472.812 79.095 473.602 78.0985 476.223C75.8074 482.22 72.9091 487.498 69.7374 492.443C69.0941 493.443 68.3543 493.99 67.4009 493.796L67.4053 493.796ZM68.9505 204.368C63.7373 210.543 58.8024 215.609 53.7788 220.509C52.0257 222.22 50.2848 222.789 48.2476 222.371C39.5199 220.581 30.7917 218.811 22.0566 217.18C20.219 216.837 19.8812 215.727 20.3424 213.23C21.6097 206.356 23.6423 200.159 26.5718 194.611C27.4138 193.021 28.2072 192.651 29.5369 193.047C37.4763 195.414 45.4407 197.61 53.3906 199.878C58.3936 201.305 63.3916 202.758 68.9594 204.362L68.9505 204.368ZM32.3744 185.145C37.1116 178.481 41.8417 173.386 46.7319 168.608C47.5062 167.851 48.3975 168.093 49.2719 168.301C60.348 170.932 71.4195 173.583 82.5017 176.122C84.1638 176.504 84.5415 177.344 83.7144 179.547C81.6325 185.101 79.025 190.01 76.1434 194.625C75.1124 196.273 74.0738 196.91 72.5134 196.462C64.2814 194.086 56.0242 191.894 47.7821 189.596C42.8481 188.221 37.9202 186.754 32.3743 185.152L32.3744 185.145ZM22.8679 491.15C23.4209 491.253 23.7131 491.283 24.0001 491.358C36.2855 494.523 48.5709 497.687 60.8562 500.858C61.2824 500.964 61.8385 500.901 62.0138 501.586C62.2709 502.57 61.5927 502.856 61.2397 503.281C56.6016 508.835 51.6361 513.667 46.5991 518.346C45.8077 519.082 45.0209 519.101 44.1068 518.91C40.9337 518.244 37.744 517.769 34.57 517.156C28.6486 516.01 22.7324 514.825 16.8114 513.659C14.9567 513.295 14.3377 512.03 14.9026 509.123C15.9989 503.465 17.7319 498.348 19.8449 493.481C20.6479 491.636 21.6397 490.696 22.8634 491.157L22.8679 491.15ZM40.0247 351.602C46.0077 351.064 51.9984 350.58 57.9783 349.976C64.1945 349.35 70.4073 348.678 76.6095 347.865C78.6637 347.599 79.8888 348.692 80.665 351.617C82.0705 356.905 83.3228 362.208 83.7859 367.894C84.0108 370.624 83.4598 371.359 81.7333 371.384C74.0455 371.489 66.3675 371.768 58.6821 371.974C57.7378 372 56.7619 372.084 55.9401 371.155C50.5256 365.037 45.0795 358.975 40.0248 351.595L40.0247 351.602ZM64.7755 75.4679C63.3261 75.4014 61.9135 75.4709 60.6179 73.9341C56.0938 68.576 51.5108 63.3397 46.9686 58.0201C46.4811 57.4437 45.5938 56.9824 45.8204 55.8367C46.0374 54.7302 46.9099 55.0442 47.5403 54.9803C59.3987 53.817 71.2607 52.6939 83.1161 51.4572C84.3332 51.3327 84.9832 51.862 85.5252 53.5062C87.4248 59.2514 88.6376 65.2754 89.2726 71.5868C89.4828 73.6904 89.0936 74.6572 87.6073 74.6943C79.9962 74.8989 72.3878 75.1969 64.7756 75.4612L64.7755 75.4679ZM54.4883 308.483C53.0937 308.76 52.3906 308.978 51.6816 309.036C46.1196 309.493 40.5535 309.93 34.9877 310.354C30.2883 310.712 25.5852 311.031 20.8895 311.422C19.8217 311.512 19.0706 311.247 18.8172 309.353C17.9452 302.857 17.7585 296.401 18.7643 289.965C19.0122 288.376 19.5823 287.549 20.7271 287.552C25.5113 287.573 30.2921 287.54 35.0733 287.487C36.0129 287.48 36.7126 288.16 37.4356 288.994C39.7115 291.631 42.0328 294.178 44.3179 296.789C47.5316 300.463 50.736 304.163 54.4841 308.476L54.4883 308.483ZM54.8658 161.146C55.4012 160.31 55.5243 160.034 55.6933 159.874C61.2189 154.528 66.7569 149.216 72.2743 143.843C73.1241 143.018 74.0059 142.828 74.9648 142.956C78.5869 143.437 82.2116 144.019 85.836 144.381C87.4018 144.536 87.8695 145.949 87.9171 147.867C88.0468 153.62 88.0938 159.361 87.364 165.047C87.0118 167.792 86.126 168.201 84.4381 167.797C78.9005 166.455 73.3359 165.397 67.7875 164.167C63.6185 163.243 59.46 162.228 54.8658 161.146ZM49.9302 456.951C50.3269 456.29 50.4416 455.994 50.6151 455.828C56.1316 450.501 61.6523 445.181 67.173 439.861C67.7959 439.258 68.4678 438.838 69.2237 439.077C72.7424 440.189 76.3092 440.121 79.856 440.424C81.5923 440.572 82.3349 441.767 82.4984 444.273C82.8282 449.37 82.6211 454.433 82.1312 459.433C81.6473 464.341 81.1799 464.571 77.9653 463.789C72.6539 462.504 67.3533 461.107 62.015 460.093C58.0788 459.341 54.1114 458.626 49.9389 456.951L49.9302 456.951ZM43.044 230.634C36.9597 236.422 31.1994 241.936 25.8298 248.304C24.628 249.733 24.0215 248.503 23.4949 246.966C21.5416 241.296 20.209 235.369 19.6709 229.012C19.4273 226.115 20.0726 225.481 21.7529 225.824C26.2149 226.73 30.7038 227.359 35.1392 228.522C37.6265 229.175 40.2254 228.753 43.0481 230.648L43.044 230.634ZM37.5808 526.378C37.4195 526.831 37.3843 527.081 37.2864 527.173C31.583 532.685 25.9133 538.265 20.4701 544.356C19.328 545.629 18.6352 544.811 18.0311 543.215C15.798 537.311 14.6135 530.944 14.0901 524.262C13.9239 522.142 14.5407 521.864 15.7463 522.124C18.9885 522.829 22.238 523.381 25.4861 524.007C29.4917 524.784 33.497 525.575 37.5808 526.378ZM69.6986 84.3004C75.873 83.8109 81.4129 83.1325 86.9945 83.2749C88.3135 83.3046 89.3892 83.7341 89.1283 86.273C88.5467 91.9777 87.4068 97.393 85.6179 102.459C85.2168 103.597 84.7596 104.22 83.9555 103.04C79.5649 96.6091 74.876 90.7131 69.6986 84.3004ZM83.6664 382.416C83.1846 388.162 81.9669 393.531 80.2816 398.665C79.703 400.421 78.9902 400.452 78.09 399.039C74.3998 393.247 70.2807 388.2 66.1844 383.108C65.7615 382.583 64.9559 382.195 65.1935 381.163C65.4025 380.255 66.1641 380.421 66.7325 380.399C71.8747 380.201 77.0242 380.077 82.1636 379.793C83.5546 379.715 83.8074 380.692 83.6664 382.416ZM23.2086 575.194C21.8492 575.221 20.6474 575.227 19.445 575.273C18.4 575.311 16.9817 576.397 16.4377 574.859C15.9436 573.458 17.1852 571.999 17.739 570.64C18.1418 569.647 18.5692 568.271 19.5353 569.67C20.7311 571.405 22.1922 572.735 23.2086 575.194ZM28.7408 278.551C27.0415 278.764 25.9007 279.021 24.7605 279.012C23.7906 279.003 22.3722 279.856 21.9508 278.541C21.5048 277.136 22.6808 275.686 23.2003 274.29C23.8302 272.598 24.6138 272.752 25.474 273.969C26.428 275.313 27.382 276.65 28.7408 278.551Z" fill="url(#paint0_linear_1323_230)" fill-opacity="0.6"/>
<defs>
<linearGradient id="paint0_linear_1323_230" x1="57.2307" y1="3.85345" x2="11.1949" y2="594.66" gradientUnits="userSpaceOnUse">
<stop stop-color="#19BFCD"/>
<stop offset="1" stop-color="#0D6067"/>
</linearGradient>
</defs>
</svg>
