<svg width="20" height="20" viewBox="0 0 20 20" fill="none" xmlns="http://www.w3.org/2000/svg">
<path fill-rule="evenodd" clip-rule="evenodd" d="M9.80078 9.80225C9.93339 9.80225 10.0606 9.85492 10.1543 9.94869C10.2481 10.0425 10.3008 10.1696 10.3008 10.3022V15.8022C10.3008 15.9349 10.2481 16.062 10.1543 16.1558C10.0606 16.2496 9.93339 16.3022 9.80078 16.3022C9.66817 16.3022 9.541 16.2496 9.44723 16.1558C9.35346 16.062 9.30078 15.9349 9.30078 15.8022V10.3022C9.30078 10.1696 9.35346 10.0425 9.44723 9.94869C9.541 9.85492 9.66817 9.80225 9.80078 9.80225Z" fill="url(#paint0_linear_665_204)" fill-opacity="0.5"/>
<path fill-rule="evenodd" clip-rule="evenodd" d="M2.39063 5.44517C2.79063 6.69517 3.57063 7.95417 4.55563 8.68217C5.70163 9.53017 6.73563 9.80417 7.57363 9.74917C7.9561 9.72805 8.33031 9.62951 8.67358 9.45951C9.01684 9.28951 9.32202 9.05159 9.57063 8.76017C9.98563 8.27317 10.1116 7.54817 9.88963 6.71017C9.66763 5.87417 9.10663 4.97517 8.23963 4.23717C7.36563 3.49217 6.07663 2.82417 4.88263 2.50217C4.28663 2.34217 3.74263 2.27517 3.30063 2.31217C2.85763 2.35017 2.57663 2.48617 2.41663 2.67317C2.24463 2.87517 2.12363 3.22617 2.11163 3.73317C2.09963 4.23117 2.19363 4.82517 2.39063 5.44517ZM1.11063 3.71017C1.12563 3.08517 1.27463 2.47217 1.65463 2.02617C2.04663 1.56617 2.62363 1.36717 3.21563 1.31617C3.81063 1.26617 4.47763 1.35917 5.14163 1.53817C6.46863 1.89517 7.89263 2.62917 8.88763 3.47617C9.88963 4.33017 10.5746 5.39817 10.8546 6.45417C11.1346 7.50817 11.0186 8.60217 10.3306 9.41017C9.99535 9.80322 9.58402 10.1244 9.12139 10.3543C8.65876 10.5843 8.15439 10.7182 7.63863 10.7482C6.51863 10.8212 5.25663 10.4462 3.96063 9.48817C2.76363 8.60017 1.88263 7.14017 1.43863 5.74817C1.21563 5.04817 1.09563 4.34217 1.11063 3.70817" fill="url(#paint1_linear_665_204)" fill-opacity="0.5"/>
<path fill-rule="evenodd" clip-rule="evenodd" d="M17.3423 8.3272C16.8533 9.4502 16.0413 10.5362 15.0803 11.0652C12.8633 12.2852 11.3023 11.3552 10.7623 10.4942C10.5353 10.1312 10.4853 9.4602 10.7723 8.6742C11.0523 7.9092 11.6223 7.1252 12.4793 6.5882C13.3623 6.0362 14.5943 5.6512 15.6853 5.5382C16.2303 5.4832 16.7123 5.4982 17.0813 5.5782C17.4633 5.6612 17.6403 5.7952 17.7063 5.9002C17.7853 6.0262 17.8463 6.3122 17.7903 6.7832C17.7363 7.2332 17.5843 7.7722 17.3423 8.3272ZM18.7823 6.9022C18.8483 6.3582 18.8163 5.7892 18.5543 5.3692C18.2783 4.9292 17.7843 4.7082 17.2933 4.6012C16.7883 4.4912 16.1933 4.4812 15.5833 4.5442C14.3653 4.6692 12.9813 5.0942 11.9493 5.7412C10.9777 6.34763 10.2337 7.25819 9.83326 8.3312C9.49026 9.2702 9.45926 10.2972 9.91426 11.0242C10.7403 12.3432 12.8873 13.4132 15.5623 11.9412C16.7863 11.2672 17.7203 9.9642 18.2593 8.7262C18.5323 8.1012 18.7153 7.4672 18.7833 6.9022" fill="url(#paint2_linear_665_204)" fill-opacity="0.5"/>
<path fill-rule="evenodd" clip-rule="evenodd" d="M8.91078 9.61525C8.27319 8.81809 7.53735 8.10477 6.72078 7.49225L6.00078 6.95225C5.94825 6.91285 5.904 6.86349 5.87054 6.80699C5.83709 6.75049 5.81509 6.68796 5.80581 6.62296C5.79652 6.55796 5.80013 6.49176 5.81642 6.42816C5.83272 6.36455 5.86138 6.30477 5.90078 6.25225C5.94018 6.19972 5.98954 6.15546 6.04603 6.12201C6.10253 6.08855 6.16507 6.06656 6.23007 6.05727C6.29507 6.04799 6.36127 6.05159 6.42487 6.06789C6.48848 6.08418 6.54825 6.11285 6.60078 6.15225L7.32078 6.69225C8.20278 7.35525 9.00078 8.12725 9.69078 8.99025C9.76881 9.09411 9.80335 9.22426 9.78709 9.35314C9.77083 9.48203 9.70505 9.59952 9.60367 9.68075C9.5023 9.76198 9.37329 9.80057 9.24396 9.78834C9.11463 9.77612 8.99514 9.71404 8.91078 9.61525ZM11.1548 11.4062C11.7923 10.7682 12.5001 10.2046 13.2648 9.72625L14.0658 9.22625C14.1215 9.19145 14.1697 9.14602 14.2079 9.09256C14.246 9.0391 14.2732 8.97866 14.288 8.91468C14.3027 8.8507 14.3048 8.78444 14.2939 8.71968C14.2831 8.65492 14.2596 8.59293 14.2248 8.53725C14.19 8.48157 14.1446 8.43328 14.0911 8.39516C14.0376 8.35704 13.9772 8.32981 13.9132 8.31505C13.8492 8.30028 13.783 8.29827 13.7182 8.30911C13.6535 8.31995 13.5915 8.34345 13.5358 8.37825L12.7358 8.87825C11.9067 9.39636 11.1391 10.0069 10.4478 10.6982C10.3539 10.792 10.3011 10.9192 10.301 11.0519C10.3009 11.1846 10.3535 11.3119 10.4473 11.4057C10.541 11.4996 10.6682 11.5524 10.8009 11.5525C10.9336 11.5526 11.0609 11.5 11.1548 11.4062Z" fill="url(#paint3_linear_665_204)" fill-opacity="0.5"/>
<defs>
<linearGradient id="paint0_linear_665_204" x1="10.3008" y1="13.0523" x2="9.30078" y2="13.0523" gradientUnits="userSpaceOnUse">
<stop stop-color="#19BFCD"/>
<stop offset="1" stop-color="#0D6067"/>
</linearGradient>
<linearGradient id="paint1_linear_665_204" x1="10.9961" y1="6.02992" x2="1.10938" y2="6.02992" gradientUnits="userSpaceOnUse">
<stop stop-color="#19BFCD"/>
<stop offset="1" stop-color="#0D6067"/>
</linearGradient>
<linearGradient id="paint2_linear_665_204" x1="18.8118" y1="8.57834" x2="9.57422" y2="8.57834" gradientUnits="userSpaceOnUse">
<stop stop-color="#19BFCD"/>
<stop offset="1" stop-color="#0D6067"/>
</linearGradient>
<linearGradient id="paint3_linear_665_204" x1="14.3008" y1="8.80241" x2="5.80078" y2="8.80241" gradientUnits="userSpaceOnUse">
<stop stop-color="#19BFCD"/>
<stop offset="1" stop-color="#0D6067"/>
</linearGradient>
</defs>
</svg>
