<svg width="20" height="20" viewBox="0 0 20 20" fill="none" xmlns="http://www.w3.org/2000/svg">
<path fill-rule="evenodd" clip-rule="evenodd" d="M10.7147 2.4643C11.6525 1.52664 12.9243 0.999922 14.2504 1C15.5765 1.00008 16.8483 1.52695 17.786 2.46471C18.7236 3.40247 19.2503 4.67431 19.2503 6.00042C19.2502 7.32654 18.7233 8.59831 17.7855 9.53596L9.53555 17.786C8.59778 18.7236 7.32595 19.2503 5.99983 19.2503C4.67372 19.2502 3.40195 18.7233 2.4643 17.7855C1.52664 16.8478 0.999922 15.576 1 14.2498C1.00008 12.9237 1.52695 11.6519 2.46471 10.7143L10.7147 2.4643ZM16.6064 8.3568L13.0714 11.8926L8.35721 7.17846L11.893 3.64346C12.2013 3.32822 12.5689 3.07725 12.9748 2.90508C13.3807 2.73292 13.8167 2.64298 14.2576 2.64047C14.6984 2.63796 15.1354 2.72294 15.5432 2.89048C15.951 3.05802 16.3215 3.3048 16.6333 3.61652C16.9451 3.92824 17.1919 4.29871 17.3595 4.70649C17.5272 5.11426 17.6122 5.55123 17.6098 5.99211C17.6074 6.43298 17.5175 6.86899 17.3454 7.27489C17.1733 7.6808 16.9224 8.04853 16.6072 8.3568" fill="url(#paint0_linear_665_112)" fill-opacity="0.5"/>
<defs>
<linearGradient id="paint0_linear_665_112" x1="19.2503" y1="10.1252" x2="1" y2="10.1252" gradientUnits="userSpaceOnUse">
<stop stop-color="#19BFCD"/>
<stop offset="1" stop-color="#0D6067"/>
</linearGradient>
</defs>
</svg>
