<svg width="13" height="13" viewBox="0 0 13 13" fill="none" xmlns="http://www.w3.org/2000/svg">
<path d="M0.811035 6.94866C1.21961 6.75009 2.23104 6.50295 3.00389 7.09866C3.77532 7.69438 3.79532 8.73581 3.70818 9.18152C3.62246 9.62723 3.64104 10.6672 4.41389 11.2629C5.18532 11.8587 6.19818 11.6115 6.60675 11.4129M9.81675 5.28581C10.2443 5.28626 10.664 5.17161 11.0319 4.95391C11.3999 4.7362 11.7024 4.42347 11.9078 4.04853C12.1132 3.67359 12.2139 3.25027 12.1993 2.82301C12.1847 2.39574 12.0553 1.98029 11.8248 1.62025C11.5943 1.26022 11.2711 0.968874 10.8891 0.776809C10.5072 0.584743 10.0806 0.499036 9.65411 0.528683C9.22762 0.55833 8.81698 0.702238 8.46529 0.945302C8.11359 1.18837 7.83382 1.52162 7.65532 1.91009C7.35641 1.75754 7.02056 1.6923 6.68628 1.72186C6.352 1.75142 6.03281 1.87458 5.76531 2.07722C5.4978 2.27986 5.29282 2.55377 5.17384 2.86756C5.05487 3.18135 5.02673 3.52232 5.09264 3.85137C5.15855 4.18042 5.31585 4.48424 5.54651 4.728C5.77717 4.97175 6.07184 5.14558 6.39676 5.22955C6.72167 5.31352 7.06367 5.30423 7.38354 5.20276C7.70342 5.10128 7.98823 4.91172 8.20532 4.65581C8.64468 5.06193 9.2213 5.28696 9.81961 5.28581H9.81675ZM8.98389 8.85723C8.88917 8.85723 8.79833 8.81961 8.73135 8.75263C8.66438 8.68565 8.62675 8.59481 8.62675 8.50009C8.62675 8.40537 8.66438 8.31453 8.73135 8.24755C8.79833 8.18058 8.88917 8.14295 8.98389 8.14295C9.07861 8.14295 9.16945 8.18058 9.23643 8.24755C9.30341 8.31453 9.34103 8.40537 9.34103 8.50009C9.34103 8.59481 9.30341 8.68565 9.23643 8.75263C9.16945 8.81961 9.07861 8.85723 8.98389 8.85723ZM1.84104 3.85723C1.74631 3.85723 1.65547 3.81961 1.5885 3.75263C1.52152 3.68565 1.48389 3.59481 1.48389 3.50009C1.48389 3.40537 1.52152 3.31453 1.5885 3.24755C1.65547 3.18058 1.74631 3.14295 1.84104 3.14295C1.93576 3.14295 2.0266 3.18058 2.09357 3.24755C2.16055 3.31453 2.19818 3.40537 2.19818 3.50009C2.19818 3.59481 2.16055 3.68565 2.09357 3.75263C2.0266 3.81961 1.93576 3.85723 1.84104 3.85723ZM11.841 10.2858C11.7463 10.2858 11.6555 10.2482 11.5885 10.1812C11.5215 10.1142 11.4839 10.0234 11.4839 9.92866C11.4839 9.83394 11.5215 9.7431 11.5885 9.67612C11.6555 9.60915 11.7463 9.57152 11.841 9.57152C11.9358 9.57152 12.0266 9.60915 12.0936 9.67612C12.1606 9.7431 12.1982 9.83394 12.1982 9.92866C12.1982 10.0234 12.1606 10.1142 12.0936 10.1812C12.0266 10.2482 11.9358 10.2858 11.841 10.2858Z" stroke="url(#paint0_linear_665_174)" stroke-opacity="0.5" stroke-linecap="round" stroke-linejoin="round"/>
<defs>
<linearGradient id="paint0_linear_665_174" x1="12.2007" y1="6.07998" x2="0.811035" y2="6.07998" gradientUnits="userSpaceOnUse">
<stop stop-color="#19BFCD"/>
<stop offset="1" stop-color="#0D6067"/>
</linearGradient>
</defs>
</svg>
