<svg width="20" height="20" viewBox="0 0 20 20" fill="none" xmlns="http://www.w3.org/2000/svg">
<path d="M18.0845 16.2001L14.1727 12.2891C15.3065 10.928 15.8719 9.18211 15.7512 7.41472C15.6305 5.64733 14.8331 3.9945 13.5249 2.80006C12.2166 1.60562 10.4982 0.961529 8.72719 1.00178C6.95615 1.04203 5.2688 1.76352 4.01616 3.01616C2.76352 4.2688 2.04203 5.95615 2.00178 7.72719C1.96153 9.49824 2.60562 11.2166 3.80006 12.5249C4.9945 13.8331 6.64733 14.6305 8.41472 14.7512C10.1821 14.8719 11.928 14.3065 13.2891 13.1727L17.2001 17.0845C17.2582 17.1425 17.3271 17.1886 17.403 17.22C17.4788 17.2514 17.5601 17.2676 17.6423 17.2676C17.7244 17.2676 17.8057 17.2514 17.8816 17.22C17.9574 17.1886 18.0264 17.1425 18.0845 17.0845C18.1425 17.0264 18.1886 16.9574 18.22 16.8816C18.2514 16.8057 18.2676 16.7244 18.2676 16.6423C18.2676 16.5601 18.2514 16.4788 18.22 16.403C18.1886 16.3271 18.1425 16.2582 18.0845 16.2001ZM3.26727 7.89227C3.26727 6.77975 3.59717 5.69221 4.21525 4.76719C4.83333 3.84216 5.71184 3.12119 6.73967 2.69545C7.76751 2.2697 8.89851 2.15831 9.98965 2.37535C11.0808 2.59239 12.0831 3.12812 12.8697 3.91479C13.6564 4.70146 14.1921 5.70374 14.4092 6.79489C14.6262 7.88603 14.5148 9.01703 14.0891 10.0449C13.6633 11.0727 12.9424 11.9512 12.0174 12.5693C11.0923 13.1874 10.0048 13.5173 8.89227 13.5173C7.40093 13.5156 5.97115 12.9225 4.91662 11.8679C3.86209 10.8134 3.26892 9.3836 3.26727 7.89227Z" fill="url(#paint0_linear_665_236)" fill-opacity="0.5"/>
<defs>
<linearGradient id="paint0_linear_665_236" x1="18.2676" y1="9.13389" x2="2" y2="9.13389" gradientUnits="userSpaceOnUse">
<stop stop-color="#19BFCD"/>
<stop offset="1" stop-color="#0D6067"/>
</linearGradient>
</defs>
</svg>
