<svg width="20" height="20" viewBox="0 0 20 20" fill="none" xmlns="http://www.w3.org/2000/svg">
<path d="M12.8555 18.2031C12.6484 18.2422 12.4336 18.2422 12.207 18.2422L12.1875 18.8672H12.9336L12.8555 18.2031ZM10.8711 18.125L10.8086 18.789C11.0586 18.8281 11.3008 18.8281 11.5352 18.8672L11.5586 18.2031C11.3359 18.2031 11.1055 18.164 10.8711 18.125ZM14.5273 17.9297C14.2148 18.0078 13.875 18.0859 13.5039 18.164L13.5781 18.789C13.9844 18.75 14.3555 18.6718 14.6992 18.5547L14.5273 17.9297ZM15.1406 17.6953L15.3125 18.3203C15.5078 18.2422 15.6914 18.164 15.8633 18.0468L16.1367 18.5156L16.6992 18.2031L16.3984 17.6953C16.5586 17.5781 16.6992 17.4218 16.8203 17.2656L17.4609 17.8125L17.875 17.3047L17.1914 16.7578C17.2734 16.6015 17.3398 16.4453 17.3906 16.289L18.418 16.4453L18.5234 15.8203L17.5117 15.625C17.5156 15.5508 17.5195 15.4687 17.5156 15.3828C17.5156 15.3047 17.5078 15.2226 17.5 15.1406L18.5078 14.8984L18.3555 14.2656L17.3594 14.5039C17.3047 14.3359 17.2305 14.164 17.1445 13.9961L17.9297 13.4492L17.5586 12.914L16.7969 13.4414C16.668 13.2695 16.5234 13.0976 16.3594 12.9297L16.875 12.1718L16.3359 11.8047L15.875 12.4843C15.6914 12.3359 15.4922 12.1914 15.2812 12.0508L15.6758 11.25L15.0937 10.9609L14.7187 11.7187C14.5 11.6015 14.2695 11.4883 14.0273 11.3828L14.3047 10.6797L13.6992 10.4375L13.4258 11.1367C13.2344 11.0703 13.0391 11.0039 12.8398 10.9414L13.1172 10.082L12.4961 9.87888L12.2109 10.7617C12.0156 10.7109 11.8125 10.664 11.6055 10.6211L11.7891 9.43747L11.1445 9.33982L10.9648 10.5C10.7617 10.4648 10.5547 10.4336 10.3437 10.4062L10.543 9.17575L9.90234 9.07029L9.69531 10.3359C9.65234 10.332 9.60937 10.3281 9.5625 10.3242C9.375 10.3047 9.19141 10.2851 9.01172 10.2656L9.30469 8.97263L8.67187 8.8281L8.36719 10.1679C8.13281 10.125 7.90625 10.0781 7.6875 10.0273L8.10937 8.64451L6.66406 8.19138L6.14453 9.50779C5.90234 9.3945 5.67578 9.27732 5.47266 9.15232L6.07422 8.03513L5.5 7.72654L4.93359 8.77732C4.77344 8.64451 4.625 8.51169 4.49219 8.37107L5.11719 7.67576L4.63281 7.23826L4.08203 7.85544C3.94141 7.6406 3.8293 7.42185 3.74492 7.19529C2.99766 5.2031 4.48437 2.98435 6.94531 2.84763C6.98047 3.08982 7.05469 3.34763 7.17578 3.60935L10.1016 4.44529L10.2344 4.10154L8.99219 3.67185L9.20312 3.05857L10.4766 3.49607L10.7344 2.84763L9.50781 2.20701C9 0.0546613 7.17969 0.687474 6.94531 2.19529C6.84766 2.19919 6.75 2.20701 6.65625 2.21482L6.54297 1.28904L5.89844 1.36716L6.01172 2.3281C5.84766 2.37107 5.6875 2.41794 5.53125 2.47654L5.16406 1.6406L4.57031 1.90232L4.94141 2.74997C4.77344 2.84763 4.61328 2.9531 4.46094 3.06638L3.92578 2.35935L3.40625 2.74997L3.97266 3.49997C3.84141 3.6406 3.72031 3.78904 3.61055 3.94138L2.8375 3.42185L2.47383 3.96091L3.27852 4.50388C3.19805 4.67185 3.12969 4.84372 3.07422 5.0156L2.05352 4.78122L1.90742 5.41794L2.93242 5.65232C2.90937 5.8281 2.89844 6.00388 2.90078 6.18357L1.79883 6.26951L1.85 6.91794L2.96719 6.8281C2.99766 6.98826 3.03867 7.14451 3.09063 7.29685L2.00937 7.85154L2.30625 8.42966L3.35039 7.89841C3.4332 8.05076 3.52852 8.2031 3.63594 8.35154L2.71016 9.38669L3.19492 9.82029L4.05859 8.85544C4.22656 9.02732 4.41406 9.19138 4.62109 9.35154L3.9375 10.6211L4.50781 10.9336L5.16406 9.71872C5.39062 9.85935 5.64062 9.98825 5.90625 10.1093L5.13672 12.0625L5.60547 14.6133V14.6211L6.01172 16.8359H5.37109L5.38281 17.5L6.79297 17.4609L6.72266 17.0703L6.27344 14.6484L7.5 10.6484C7.73047 10.707 7.97266 10.7578 8.22266 10.8008L7.46484 14.1211L8.10156 14.2656L8.86719 10.9023C9.07422 10.9297 9.28906 10.9531 9.50781 10.9726C9.53516 10.9726 9.5625 10.9765 9.59375 10.9804L9.14453 13.7304L9.78906 13.8359L10.2383 11.0508C10.4531 11.0781 10.6641 11.1093 10.8672 11.1445L10.5117 13.4179L11.1562 13.5195L11.5078 11.2656C11.7031 11.3086 11.8984 11.3515 12.0859 11.4023L11.9687 13.8437L11.7969 16.7968H11.1289V17.4609H12.4102L12.5469 15.1289L13.7891 11.9843C14.5937 12.3398 15.2383 12.7656 15.7305 13.2226C16.4648 13.9101 16.8477 14.6718 16.8672 15.3984C16.8828 16.0937 16.5508 16.7578 15.8945 17.2656C15.6758 17.4218 15.4258 17.5781 15.1406 17.6953ZM6.01953 13.2578L7.30078 9.07419L7.04687 8.99216L5.8125 12.125L6.01953 13.2578ZM12.6562 13.0781L13.1875 11.7422C13.0391 11.6875 12.8867 11.6367 12.7266 11.5859L12.6562 13.0781ZM8.30078 2.08591C8.53906 2.08591 8.73828 2.28122 8.73828 2.51951C8.73828 2.76169 8.53906 2.957 8.30078 2.957C8.05859 2.957 7.86328 2.76169 7.86328 2.51951C7.86328 2.28122 8.05859 2.08591 8.30078 2.08591Z" fill="url(#paint0_linear_665_282)" fill-opacity="0.5"/>
<defs>
<linearGradient id="paint0_linear_665_282" x1="18.5234" y1="9.84309" x2="1.79883" y2="9.84309" gradientUnits="userSpaceOnUse">
<stop stop-color="#19BFCD"/>
<stop offset="1" stop-color="#0D6067"/>
</linearGradient>
</defs>
</svg>
