<svg width="20" height="20" viewBox="0 0 20 20" fill="none" xmlns="http://www.w3.org/2000/svg">
<path d="M15.5484 0.976074L15.274 0.413574L14.7128 0.688574C12.3165 1.85732 11.3103 4.7492 12.4815 7.1492L12.5165 7.22107C11.9216 8.6942 10.9145 9.96452 9.61588 10.8798L9.03776 9.69045C9.78104 9.29109 10.341 8.61968 10.6005 7.81678C10.8599 7.01387 10.7987 6.14174 10.4296 5.38295L9.02525 2.49607L8.46338 2.7692C7.68447 3.14829 7.08806 3.82128 6.80535 4.64011C6.52264 5.45894 6.57679 6.35654 6.95588 7.13545L7.91651 9.11045C7.92213 9.1267 7.92901 9.14295 7.9365 9.15858L8.99275 11.3311C7.6451 12.3945 6.6301 13.8216 6.06776 15.4436L5.90775 15.9061L5.30525 14.6667C6.22318 14.1814 6.91676 13.3586 7.23974 12.3719C7.56273 11.3851 7.48986 10.3114 7.03651 9.37732L5.31151 5.83857L4.74901 6.11357C2.7665 7.08232 1.93525 9.4742 2.90588 11.4617L4.33338 14.3898C4.33963 14.4092 4.34713 14.4286 4.3565 14.4473L5.55776 16.9186L5.0115 18.4998L5.72401 18.7436L6.35338 16.9267L8.72838 17.1742C8.74355 17.1755 8.75879 17.1759 8.77401 17.1754L11.609 17.4717C12.1319 17.5268 12.6604 17.4783 13.1646 17.329C13.6687 17.1797 14.1384 16.9326 14.547 16.6017C14.9555 16.2708 15.2949 15.8626 15.5456 15.4005C15.7964 14.9384 15.9536 14.4315 16.0084 13.9086L16.0734 13.2867L12.1578 12.8786C11.1235 12.7696 10.0874 13.0676 9.26897 13.7093C8.45057 14.3511 7.91416 15.2863 7.77338 16.3167L6.6065 16.1948L6.78025 15.6936C7.2691 14.2911 8.12741 13.0465 9.26463 12.0911L11.2853 12.3054V12.3067L11.6771 12.3473L11.994 12.3811C11.9996 12.3816 12.0052 12.382 12.0109 12.3823L14.484 12.6404C16.2753 12.8254 17.8853 11.5279 18.0709 9.73295L18.1353 9.1117L14.9415 8.77857H14.9396C13.1853 8.58982 11.6209 9.83357 11.369 11.5567L10.1584 11.4273C11.5335 10.4279 12.5975 9.05949 13.2271 7.48045L13.3165 7.4367C15.7203 6.26732 16.719 3.3742 15.5478 0.976074M13.3771 5.93857C13.3702 5.93602 13.3631 5.93394 13.3559 5.93232C13.1795 5.24651 13.2099 4.52384 13.4432 3.85525C13.6765 3.18665 14.1023 2.60199 14.6671 2.17482C14.8481 2.85944 14.8221 3.58233 14.5925 4.2522C14.3629 4.92207 13.94 5.5089 13.3771 5.93857ZM8.07963 6.5892C7.89336 6.20657 7.83276 5.77486 7.90651 5.35574C7.98025 4.93661 8.18456 4.55152 8.49025 4.25545L9.30525 5.9292C9.49139 6.31179 9.55173 6.74345 9.47764 7.16241C9.40354 7.58137 9.19882 7.96616 8.89276 8.2617L8.07963 6.5892ZM4.02838 10.9129C3.75652 10.355 3.68156 9.72138 3.8157 9.11536C3.94984 8.50934 4.28519 7.96658 4.76713 7.57545L5.91088 9.92233C6.18173 10.4806 6.25626 11.1146 6.12242 11.7205C5.98858 12.3264 5.65419 12.8694 5.17338 13.2617L4.02838 10.9129ZM14.6128 11.3973L12.7596 11.2036C12.932 10.8154 13.223 10.492 13.5908 10.2796C13.9586 10.0672 14.3842 9.97695 14.8065 10.0217H14.8084L16.664 10.2154C16.49 10.6032 16.198 10.9262 15.8297 11.1383C15.4614 11.3504 15.0355 11.4414 14.6128 11.3973ZM9.13775 15.9561C9.34179 15.369 9.73838 14.8682 10.2631 14.5351C10.7877 14.2019 11.4097 14.056 12.0278 14.1211L14.629 14.3923C14.425 14.9794 14.0284 15.4802 13.5037 15.8133C12.979 16.1465 12.3571 16.2924 11.739 16.2273L9.13775 15.9561Z" fill="url(#paint0_linear_665_183)" fill-opacity="0.5"/>
<defs>
<linearGradient id="paint0_linear_665_183" x1="18.1353" y1="9.57866" x2="2.5" y2="9.57866" gradientUnits="userSpaceOnUse">
<stop stop-color="#19BFCD"/>
<stop offset="1" stop-color="#0D6067"/>
</linearGradient>
</defs>
</svg>
