<svg width="20" height="20" viewBox="0 0 20 20" fill="none" xmlns="http://www.w3.org/2000/svg">
<path d="M16.25 5.84969C16.25 0.353438 10.6616 0.642188 10.6616 0.642188L10.69 0.64625C10.4709 0.632602 10.2514 0.625515 10.0319 0.625H10.0269C10.0269 0.625 9.72625 0.625313 9.27813 0.6575C8.92375 0.645938 3.75 0.571563 3.75 5.87969C3.75 8.23969 5.55063 11.0606 7.60375 13.5122C6.1075 14.925 4.96219 15.8647 4.96219 15.8647L6.49219 19.3456C6.49219 19.3456 8.08625 18.0384 9.98531 16.1191C11.8975 18.055 13.5078 19.375 13.5078 19.375L15.0384 15.8947C15.0384 15.8947 13.8784 14.9444 12.3669 13.5181C14.4325 11.0581 16.25 8.22156 16.25 5.84969ZM14.2734 4.89125C13.6469 6.83875 11.8409 9.13906 9.98187 11.1294C8.09281 9.1075 6.26031 6.76969 5.66312 4.80688C6.3575 3.95469 8.00625 3.35406 9.935 3.35406C11.9266 3.35406 13.6219 3.99438 14.2734 4.89125Z" fill="url(#paint0_linear_665_230)" fill-opacity="0.5"/>
<defs>
<linearGradient id="paint0_linear_665_230" x1="16.25" y1="10.0001" x2="3.75" y2="10.0001" gradientUnits="userSpaceOnUse">
<stop stop-color="#19BFCD"/>
<stop offset="1" stop-color="#0D6067"/>
</linearGradient>
</defs>
</svg>
