<svg width="20" height="20" viewBox="0 0 20 20" fill="none" xmlns="http://www.w3.org/2000/svg">
<path d="M13.6624 1.56511C13.5061 1.40813 13.2993 1.31156 13.0786 1.29253C12.8579 1.2735 12.6375 1.33324 12.4567 1.46115C12.2758 1.58906 12.1461 1.77689 12.0905 1.99132C12.0349 2.20576 12.0571 2.43295 12.153 2.63261L2.39239 12.3926C2.04414 12.7409 1.76789 13.1543 1.57942 13.6093C1.39095 14.0643 1.29395 14.552 1.29395 15.0445C1.29395 15.537 1.39095 16.0247 1.57942 16.4797C1.76789 16.9347 2.04414 17.3481 2.39239 17.6964C2.74064 18.0446 3.15407 18.3209 3.60908 18.5093C4.06409 18.6978 4.55176 18.7948 5.04426 18.7948C5.53676 18.7948 6.02444 18.6978 6.47945 18.5093C6.93446 18.3209 7.34789 18.0446 7.69614 17.6964L17.4561 7.93574C17.6557 8.03129 17.8826 8.05317 18.0968 7.99752C18.3109 7.94187 18.4985 7.81227 18.6263 7.63164C18.7541 7.45102 18.8139 7.23102 18.7951 7.01056C18.7763 6.7901 18.6802 6.58338 18.5236 6.42699L13.6624 1.56511ZM12.9993 3.55386L16.5349 7.08949L14.6174 9.00699L8.06989 8.48324L9.24301 7.31074L10.2368 8.30449C10.3251 8.38992 10.4435 8.43722 10.5664 8.43621C10.6893 8.4352 10.8069 8.38596 10.8939 8.29909C10.9808 8.21222 11.0302 8.09468 11.0313 7.97177C11.0324 7.84887 10.9852 7.73044 10.8999 7.64199L9.90614 6.64824L12.9993 3.55386ZM7.25426 9.29949L8.24801 10.2932C8.33344 10.3816 8.38075 10.5 8.37974 10.6229C8.37873 10.7458 8.32948 10.8634 8.24261 10.9503C8.15575 11.0373 8.0382 11.0867 7.91529 11.0878C7.79239 11.0889 7.67396 11.0417 7.58551 10.9564L6.59114 9.96261L7.25426 9.29949ZM4.60239 11.9501L5.59676 12.9445C5.68219 13.0329 5.7295 13.1512 5.72849 13.2741C5.72748 13.3971 5.67823 13.5146 5.59136 13.6016C5.5045 13.6885 5.38695 13.7379 5.26405 13.739C5.14114 13.7402 5.02271 13.693 4.93426 13.6076L3.93926 12.6132L4.60239 11.9501Z" fill="url(#paint0_linear_665_133)" fill-opacity="0.5"/>
<defs>
<linearGradient id="paint0_linear_665_133" x1="18.7985" y1="10.042" x2="1.29395" y2="10.042" gradientUnits="userSpaceOnUse">
<stop stop-color="#19BFCD"/>
<stop offset="1" stop-color="#0D6067"/>
</linearGradient>
</defs>
</svg>
