<svg width="20" height="20" viewBox="0 0 20 20" fill="none" xmlns="http://www.w3.org/2000/svg">
<path d="M6.92277 4.83286C7.23053 4.26394 7.68993 3.79143 8.24997 3.46778C8.81001 3.14414 9.44878 2.98202 10.0954 2.99942C10.742 3.01683 11.3711 3.21307 11.9129 3.56637C12.4547 3.91967 12.8881 4.41621 13.1648 5.00086C12.4364 5.01727 11.7285 5.24551 11.1277 5.6577C10.5269 6.06989 10.0592 6.64817 9.78177 7.32186C9.52558 6.89566 9.21904 6.50183 8.86877 6.14886C8.30541 5.59564 7.64598 5.14969 6.92277 4.83286ZM16.9918 8.99986C16.9971 8.91719 16.9998 8.83386 16.9998 8.74986C17.0001 7.93732 16.7365 7.14665 16.2487 6.49685C15.7608 5.84705 15.0751 5.37329 14.2948 5.14686C14.0252 4.29297 13.5072 3.53884 12.8069 2.98088C12.1065 2.42292 11.2557 2.08648 10.3632 2.01455C9.47066 1.94262 8.57696 2.13848 7.79632 2.5771C7.01567 3.01571 6.38356 3.67715 5.98077 4.47686C5.583 4.35302 5.17787 4.25416 4.76777 4.18086C4.07413 4.05625 3.3705 3.99566 2.66577 3.99986L2.48177 4.00586H2.47777C2.35545 4.013 2.24001 4.06482 2.15336 4.15146C2.06672 4.2381 2.01491 4.35354 2.00777 4.47586V4.47686L1.99977 4.66486C1.99505 5.37056 2.05531 6.0752 2.17977 6.76986C2.30277 7.45186 2.51077 8.23386 2.86477 8.99986H2.49977C2.36716 8.99986 2.23998 9.05254 2.14622 9.14631C2.05245 9.24008 1.99977 9.36725 1.99977 9.49986V9.99986C1.99977 12.1216 2.84262 14.1564 4.34291 15.6567C5.84321 17.157 7.87804 17.9999 9.99977 17.9999C12.1215 17.9999 14.1563 17.157 15.6566 15.6567C17.1569 14.1564 17.9998 12.1216 17.9998 9.99986V9.49986C17.9998 9.36725 17.9471 9.24008 17.8533 9.14631C17.7596 9.05254 17.6324 8.99986 17.4998 8.99986H16.9918ZM3.98377 8.99986C3.54977 8.21786 3.30177 7.36086 3.16377 6.59186C3.06945 6.06675 3.0153 5.53521 3.00177 5.00186L3.11577 5.00586C3.48777 5.01886 4.00577 5.05886 4.58977 5.16486C5.76977 5.37786 7.15577 5.84986 8.16177 6.85586C8.77777 7.47186 9.19477 8.23186 9.47477 8.99986H7.70777L5.85377 7.14586C5.80728 7.09944 5.7521 7.06263 5.69139 7.03753C5.63068 7.01243 5.56561 6.99954 5.49991 6.99958C5.43422 6.99963 5.36917 7.01262 5.30849 7.0378C5.24782 7.06298 5.19269 7.09987 5.14627 7.14636C5.09985 7.19285 5.06303 7.24803 5.03794 7.30874C5.01284 7.36945 4.99994 7.43452 4.99999 7.50021C5.00004 7.56591 5.01302 7.63096 5.03821 7.69164C5.06339 7.75232 5.10028 7.80744 5.14677 7.85386L6.29377 8.99986H3.98377ZM10.5318 8.99986L10.5048 8.91886C10.483 8.5416 10.5392 8.1639 10.6699 7.80933C10.8006 7.45476 11.003 7.13094 11.2644 6.85806C11.5259 6.58519 11.8407 6.36913 12.1894 6.22335C12.538 6.07758 12.913 6.00522 13.2908 6.0108C13.6687 6.01638 14.0413 6.09978 14.3855 6.25578C14.7297 6.41179 15.038 6.63706 15.2913 6.91753C15.5445 7.198 15.7373 7.52766 15.8574 7.88593C15.9776 8.24421 16.0227 8.6234 15.9898 8.99986H10.5318ZM2.99977 9.99986H16.9998C16.9998 10.6949 16.8988 11.3659 16.7098 11.9999H3.28977C3.09687 11.3507 2.99919 10.677 2.99977 9.99986ZM9.99977 16.9999C8.67487 17.0001 7.37709 16.6244 6.25728 15.9163C5.13746 15.2083 4.24158 14.1969 3.67377 12.9999H16.3258C15.758 14.1969 14.8621 15.2083 13.7423 15.9163C12.6224 16.6244 11.3247 17.0001 9.99977 16.9999Z" fill="url(#paint0_linear_665_195)" fill-opacity="0.5"/>
<defs>
<linearGradient id="paint0_linear_665_195" x1="17.9998" y1="10" x2="1.99951" y2="10" gradientUnits="userSpaceOnUse">
<stop stop-color="#19BFCD"/>
<stop offset="1" stop-color="#0D6067"/>
</linearGradient>
</defs>
</svg>
