<svg width="20" height="20" viewBox="0 0 20 20" fill="none" xmlns="http://www.w3.org/2000/svg">
<g clip-path="url(#clip0_665_210)">
<path d="M19.6 19.0909H18.4V0.454545C18.4 0.333993 18.3579 0.218377 18.2828 0.133133C18.2078 0.0478896 18.1061 0 18 0H12.4C12.2939 0 12.1922 0.0478896 12.1172 0.133133C12.0421 0.218377 12 0.333993 12 0.454545V5.45455H6.8C6.69391 5.45455 6.59217 5.50243 6.51716 5.58768C6.44214 5.67292 6.4 5.78854 6.4 5.90909V10.9091H2C1.89391 10.9091 1.79217 10.957 1.71716 11.0422C1.64214 11.1275 1.6 11.2431 1.6 11.3636V19.0909H0.4C0.293913 19.0909 0.192172 19.1388 0.117157 19.224C0.0421428 19.3093 0 19.4249 0 19.5455C0 19.666 0.0421428 19.7816 0.117157 19.8669C0.192172 19.9521 0.293913 20 0.4 20H19.6C19.7061 20 19.8078 19.9521 19.8828 19.8669C19.9579 19.7816 20 19.666 20 19.5455C20 19.4249 19.9579 19.3093 19.8828 19.224C19.8078 19.1388 19.7061 19.0909 19.6 19.0909ZM12.8 0.909091H17.6V19.0909H12.8V0.909091ZM7.2 6.36364H12V19.0909H7.2V6.36364ZM2.4 11.8182H6.4V19.0909H2.4V11.8182Z" fill="url(#paint0_linear_665_210)" fill-opacity="0.5"/>
</g>
<defs>
<linearGradient id="paint0_linear_665_210" x1="20" y1="10.0001" x2="0" y2="10.0001" gradientUnits="userSpaceOnUse">
<stop stop-color="#19BFCD"/>
<stop offset="1" stop-color="#0D6067"/>
</linearGradient>
<clipPath id="clip0_665_210">
<rect width="20" height="20" fill="white"/>
</clipPath>
</defs>
</svg>
