<svg width="20" height="20" viewBox="0 0 20 20" fill="none" xmlns="http://www.w3.org/2000/svg">
<path d="M8.33352 13.6252L6.85852 15.0586C6.47175 15.4453 5.94717 15.6626 5.40019 15.6626C4.85321 15.6626 4.32863 15.4453 3.94186 15.0586C3.55508 14.6718 3.33779 14.1472 3.33779 13.6002C3.33779 13.0533 3.55508 12.5287 3.94186 12.1419L7.72519 8.35024C8.09653 7.97769 8.59687 7.76214 9.1227 7.74818C9.64853 7.73422 10.1596 7.92292 10.5502 8.27524L10.6502 8.35857C10.8082 8.51328 11.0212 8.59888 11.2424 8.59654C11.4635 8.59419 11.6746 8.5041 11.8294 8.34607C11.9841 8.18805 12.0697 7.97504 12.0673 7.7539C12.065 7.53277 11.9749 7.32162 11.8169 7.16691C11.7698 7.1061 11.7198 7.04769 11.6669 6.99191C10.9555 6.373 10.0355 6.04761 9.09316 6.08165C8.15086 6.11569 7.25672 6.50662 6.59186 7.17524L2.75852 10.9669C2.10715 11.6759 1.75487 12.6091 1.77525 13.5717C1.79563 14.5343 2.18709 15.4518 2.86788 16.1325C3.54868 16.8133 4.46616 17.2048 5.42873 17.2252C6.3913 17.2456 7.32453 16.8933 8.03352 16.2419L9.47519 14.8336C9.61754 14.6783 9.69579 14.4748 9.6942 14.2642C9.69261 14.0535 9.61129 13.8513 9.46662 13.6982C9.32194 13.545 9.12464 13.4524 8.91441 13.4389C8.70419 13.4253 8.49663 13.4919 8.33352 13.6252ZM17.2419 1.75857C16.5408 1.06191 15.5927 0.670898 14.6044 0.670898C13.616 0.670898 12.6679 1.06191 11.9669 1.75857L10.5252 3.16691C10.3828 3.3222 10.3046 3.52564 10.3062 3.7363C10.3078 3.94695 10.3891 4.14919 10.5338 4.30231C10.6784 4.45544 10.8757 4.54809 11.086 4.56162C11.2962 4.57515 11.5037 4.50856 11.6669 4.37524L13.1085 2.94191C13.4953 2.55513 14.0199 2.33785 14.5669 2.33785C15.1138 2.33785 15.6384 2.55513 16.0252 2.94191C16.412 3.32868 16.6293 3.85326 16.6293 4.40024C16.6293 4.94722 16.412 5.4718 16.0252 5.85857L12.2419 9.65024C11.8705 10.0228 11.3702 10.2383 10.8443 10.2523C10.3185 10.2663 9.80744 10.0776 9.41686 9.72524L9.31686 9.64191C9.15883 9.4872 8.94582 9.4016 8.72468 9.40394C8.50355 9.40629 8.2924 9.49638 8.13769 9.65441C7.98298 9.81243 7.89738 10.0254 7.89973 10.2466C7.90207 10.4677 7.99216 10.6789 8.15019 10.8336C8.21072 10.8955 8.27471 10.9539 8.34186 11.0086C9.05409 11.6256 9.97371 11.9498 10.9154 11.9158C11.8572 11.8817 12.751 11.4921 13.4169 10.8252L17.2085 7.03358C17.9096 6.33697 18.3067 5.39127 18.3129 4.40295C18.3191 3.41463 17.9341 2.46398 17.2419 1.75857Z" fill="url(#paint0_linear_665_252)" fill-opacity="0.5"/>
<defs>
<linearGradient id="paint0_linear_665_252" x1="18.313" y1="8.94854" x2="1.77441" y2="8.94854" gradientUnits="userSpaceOnUse">
<stop stop-color="#19BFCD"/>
<stop offset="1" stop-color="#0D6067"/>
</linearGradient>
</defs>
</svg>
