<svg width="20" height="20" viewBox="0 0 20 20" fill="none" xmlns="http://www.w3.org/2000/svg">
<g clip-path="url(#clip0_665_288)">
<path d="M19.3103 18.3333H18.6207V10C18.6207 9.55797 18.4754 9.13405 18.2167 8.82149C17.958 8.50893 17.6072 8.33333 17.2414 8.33333H12.4138V1.66667C12.4138 1.22464 12.2685 0.800716 12.0098 0.488155C11.7511 0.175595 11.4003 0 11.0345 0H2.75862C2.3928 0 2.04197 0.175595 1.7833 0.488155C1.52463 0.800716 1.37931 1.22464 1.37931 1.66667V18.3333H0.689655C0.506747 18.3333 0.331331 18.4211 0.201995 18.5774C0.0726599 18.7337 0 18.9457 0 19.1667C0 19.3877 0.0726599 19.5996 0.201995 19.7559C0.331331 19.9122 0.506747 20 0.689655 20H19.3103C19.4933 20 19.6687 19.9122 19.798 19.7559C19.9273 19.5996 20 19.3877 20 19.1667C20 18.9457 19.9273 18.7337 19.798 18.5774C19.6687 18.4211 19.4933 18.3333 19.3103 18.3333ZM17.2414 10V18.3333H12.4138V10H17.2414ZM2.75862 1.66667H11.0345V18.3333H9.65517V13.3333C9.65517 13.1123 9.58251 12.9004 9.45318 12.7441C9.32384 12.5878 9.14843 12.5 8.96552 12.5H4.82759C4.64468 12.5 4.46926 12.5878 4.33993 12.7441C4.21059 12.9004 4.13793 13.1123 4.13793 13.3333V18.3333H2.75862V1.66667ZM8.27586 18.3333H5.51724V14.1667H8.27586V18.3333ZM4.13793 6.66667C4.13793 6.44565 4.21059 6.23369 4.33993 6.07741C4.46926 5.92113 4.64468 5.83333 4.82759 5.83333H6.2069V4.16667C6.2069 3.94565 6.27956 3.73369 6.40889 3.57741C6.53823 3.42113 6.71364 3.33333 6.89655 3.33333C7.07946 3.33333 7.25488 3.42113 7.38421 3.57741C7.51355 3.73369 7.58621 3.94565 7.58621 4.16667V5.83333H8.96552C9.14843 5.83333 9.32384 5.92113 9.45318 6.07741C9.58251 6.23369 9.65517 6.44565 9.65517 6.66667C9.65517 6.88768 9.58251 7.09964 9.45318 7.25592C9.32384 7.4122 9.14843 7.5 8.96552 7.5H7.58621V9.16667C7.58621 9.38768 7.51355 9.59964 7.38421 9.75592C7.25488 9.9122 7.07946 10 6.89655 10C6.71364 10 6.53823 9.9122 6.40889 9.75592C6.27956 9.59964 6.2069 9.38768 6.2069 9.16667V7.5H4.82759C4.64468 7.5 4.46926 7.4122 4.33993 7.25592C4.21059 7.09964 4.13793 6.88768 4.13793 6.66667Z" fill="url(#paint0_linear_665_288)" fill-opacity="0.5"/>
</g>
<defs>
<linearGradient id="paint0_linear_665_288" x1="20" y1="10.0001" x2="0" y2="10.0001" gradientUnits="userSpaceOnUse">
<stop stop-color="#19BFCD"/>
<stop offset="1" stop-color="#0D6067"/>
</linearGradient>
<clipPath id="clip0_665_288">
<rect width="20" height="20" fill="white"/>
</clipPath>
</defs>
</svg>
