<svg width="20" height="20" viewBox="0 0 20 20" fill="none" xmlns="http://www.w3.org/2000/svg">
<path d="M16.1873 3.81796C15.3762 2.99888 14.4113 2.34812 13.348 1.90308C12.2847 1.45804 11.1439 1.22747 9.99126 1.22464C8.83858 1.2218 7.69669 1.44674 6.6312 1.88655C5.56571 2.32635 4.59762 2.97235 3.78254 3.78743C2.96747 4.6025 2.32147 5.57059 1.88167 6.63608C1.44186 7.70157 1.21692 8.84346 1.21975 9.99615C1.22259 11.1488 1.45315 12.2896 1.8982 13.3529C2.34324 14.4162 2.994 15.3811 3.81307 16.1922C4.62413 17.0113 5.58903 17.662 6.65234 18.107C7.71565 18.5521 8.85642 18.7827 10.0091 18.7855C11.1618 18.7883 12.3037 18.5634 13.3692 18.1236C14.4347 17.6838 15.4027 17.0378 16.2178 16.2227C17.0329 15.4076 17.6789 14.4395 18.1187 13.3741C18.5585 12.3086 18.7834 11.1667 18.7806 10.014C18.7778 8.8613 18.5472 7.72053 18.1022 6.65722C17.6571 5.59391 17.0064 4.62901 16.1873 3.81796ZM2.50018 10.0051C2.49989 9.34128 2.5879 8.68041 2.7619 8.03983C3.04862 8.65702 3.46503 9.19022 3.74823 9.82342C4.11425 10.6375 5.09706 10.4117 5.53104 11.125C5.9162 11.7582 5.50487 12.559 5.79315 13.2215C6.00253 13.7023 6.49628 13.8074 6.8369 14.159C7.18495 14.5137 7.17753 14.9996 7.23065 15.4621C7.29055 16.0055 7.38779 16.5442 7.52167 17.0742C7.52167 17.0781 7.52167 17.0824 7.52479 17.0863C4.60175 16.0598 2.50018 13.2734 2.50018 10.0051ZM10.0002 17.5051C9.58133 17.505 9.16322 17.4699 8.75018 17.4004C8.75448 17.2945 8.75643 17.1957 8.76698 17.1269C8.8619 16.5058 9.17284 15.8984 9.59237 15.4336C10.0068 14.975 10.5748 14.6648 10.9248 14.1445C11.2678 13.6367 11.3705 12.9531 11.2291 12.3598C11.0209 11.4832 9.82987 11.1906 9.18768 10.7152C8.81854 10.4418 8.49003 10.0191 8.00526 9.98475C7.78182 9.96913 7.59471 10.0172 7.37323 9.96014C7.1701 9.90741 7.01073 9.79803 6.79432 9.82655C6.39003 9.87967 6.13495 10.3117 5.70057 10.2531C5.28846 10.198 4.86385 9.71561 4.7701 9.32303C4.64979 8.81835 5.04901 8.65468 5.47675 8.60975C5.65526 8.591 5.85565 8.57069 6.02714 8.63632C6.25292 8.71991 6.35956 8.941 6.56229 9.05272C6.94237 9.26132 7.01932 8.92811 6.96112 8.59061C6.87401 8.08514 6.77245 7.87928 7.22323 7.53124C7.53573 7.29139 7.80292 7.11796 7.75292 6.6871C7.72323 6.43397 7.58456 6.31952 7.71385 6.06757C7.8119 5.87577 8.08104 5.70272 8.25643 5.58827C8.70917 5.29296 10.1959 5.31483 9.58846 4.48827C9.40995 4.24569 9.08065 3.8121 8.76815 3.75272C8.37753 3.67889 8.20409 4.11483 7.93182 4.30702C7.65057 4.50585 7.10292 4.73163 6.82128 4.42421C6.44237 4.01053 7.07245 3.87499 7.2119 3.58593C7.27635 3.45116 7.2119 3.26405 7.10331 3.08788C7.24419 3.0285 7.38742 2.97342 7.533 2.92264C7.62423 2.99003 7.73245 3.03061 7.8455 3.03983C8.10682 3.05702 8.35331 2.91561 8.58143 3.09374C8.83456 3.28905 9.01698 3.53592 9.35292 3.59686C9.67792 3.65585 10.0221 3.46639 10.1025 3.13358C10.1514 2.93124 10.1025 2.71757 10.0557 2.50858C11.5166 2.51699 12.9429 2.95451 14.1572 3.76678C14.0791 3.7371 13.9857 3.74061 13.8705 3.79413C13.6334 3.90428 13.2974 4.18475 13.2697 4.46288C13.2381 4.7785 13.7037 4.82303 13.9248 4.82303C14.2568 4.82303 14.5932 4.6746 14.4861 4.291C14.4396 4.1246 14.3764 3.95155 14.2744 3.84686C14.5195 4.0169 14.7543 4.20134 14.9775 4.39921C14.974 4.40272 14.9705 4.40585 14.967 4.40975C14.742 4.64413 14.4807 4.82968 14.3267 5.11483C14.2182 5.31561 14.0959 5.41093 13.876 5.46288C13.7549 5.49139 13.6166 5.50194 13.515 5.58319C13.2322 5.80585 13.3932 6.341 13.6611 6.50155C13.9998 6.70428 14.5021 6.60897 14.7576 6.31952C14.9572 6.09296 15.0748 5.6996 15.4338 5.69999C15.5918 5.69966 15.7436 5.76154 15.8564 5.87225C16.0049 6.02616 15.9756 6.16991 16.0072 6.3621C16.0631 6.7035 16.3642 6.51835 16.5474 6.34608C16.681 6.58374 16.8015 6.82851 16.9084 7.07928C16.7068 7.36952 16.5467 7.68593 16.0619 7.34764C15.7717 7.14491 15.5932 6.85077 15.2287 6.75936C14.9103 6.68124 14.5842 6.76249 14.2697 6.81678C13.9123 6.87889 13.4885 6.90624 13.2174 7.17694C12.9553 7.43788 12.8166 7.7871 12.5377 8.04921C11.9982 8.55702 11.7705 9.11132 12.1197 9.82928C12.4557 10.5195 13.1584 10.8941 13.9166 10.8449C14.6615 10.7953 15.4353 10.3633 15.4139 11.4457C15.406 11.8289 15.4861 12.0941 15.6037 12.45C15.7127 12.7781 15.7053 13.0961 15.7303 13.4348C15.754 13.8313 15.816 14.2247 15.9154 14.6094C15.2153 15.5108 14.3183 16.2404 13.2931 16.7422C12.2679 17.2441 11.1416 17.505 10.0002 17.5051Z" fill="url(#paint0_linear_665_158)" fill-opacity="0.5"/>
<defs>
<linearGradient id="paint0_linear_665_158" x1="18.7806" y1="10.0052" x2="1.21973" y2="10.0052" gradientUnits="userSpaceOnUse">
<stop stop-color="#19BFCD"/>
<stop offset="1" stop-color="#0D6067"/>
</linearGradient>
</defs>
</svg>
