<svg width="20" height="20" viewBox="0 0 20 20" fill="none" xmlns="http://www.w3.org/2000/svg">
<g clip-path="url(#clip0_678_326)">
<path d="M4.93314 7.261C4.82448 7.26196 4.71846 7.2275 4.63114 7.16283C4.54381 7.09816 4.47993 7.00679 4.44917 6.90257C4.4184 6.79835 4.42243 6.68695 4.46064 6.58522C4.49884 6.48349 4.56915 6.39698 4.66092 6.33878L9.62203 3.15545C9.67748 3.11897 9.73957 3.09377 9.80475 3.08129C9.86994 3.0688 9.93695 3.06928 10.0019 3.08269C10.0669 3.09611 10.1287 3.12219 10.1836 3.15946C10.2385 3.19672 10.2856 3.24444 10.322 3.29989C10.3585 3.35534 10.3837 3.41743 10.3962 3.48261C10.4087 3.5478 10.4082 3.61481 10.3948 3.67981C10.3814 3.74481 10.3553 3.80653 10.318 3.86145C10.2808 3.91637 10.233 3.96341 10.1776 3.99989L5.20536 7.17767C5.12462 7.23124 5.03004 7.26019 4.93314 7.261Z" fill="url(#paint0_linear_678_326)" fill-opacity="0.5"/>
<path d="M7.36088 8.39423C7.25221 8.39519 7.1462 8.36073 7.05887 8.29605C6.97154 8.23138 6.90766 8.14002 6.8769 8.0358C6.84614 7.93158 6.85016 7.82017 6.88837 7.71844C6.92658 7.61672 6.99689 7.5302 7.08865 7.472L9.99977 5.59978C10.0552 5.5633 10.1173 5.5381 10.1825 5.52562C10.2477 5.51314 10.3147 5.51362 10.3797 5.52703C10.4447 5.54044 10.5064 5.56653 10.5613 5.60379C10.6162 5.64106 10.6633 5.68878 10.6998 5.74423C10.7362 5.79967 10.7614 5.86176 10.7739 5.92695C10.7864 5.99213 10.7859 6.05914 10.7725 6.12414C10.7591 6.18914 10.733 6.25087 10.6958 6.30579C10.6585 6.36071 10.6108 6.40775 10.5553 6.44423L7.6331 8.33312C7.54999 8.3789 7.45558 8.4001 7.36088 8.39423Z" fill="url(#paint1_linear_678_326)" fill-opacity="0.5"/>
<path d="M10.9556 16.7942C10.8469 16.7952 10.7409 16.7607 10.6536 16.696C10.5663 16.6314 10.5024 16.54 10.4716 16.4358C10.4409 16.3316 10.4449 16.2202 10.4831 16.1184C10.5213 16.0167 10.5916 15.9302 10.6834 15.872L15.6445 12.6887C15.7565 12.615 15.8931 12.5888 16.0244 12.6159C16.1557 12.643 16.2708 12.7211 16.3445 12.8331C16.4182 12.9451 16.4443 13.0817 16.4172 13.213C16.3902 13.3443 16.312 13.4594 16.2 13.5331L11.2223 16.7164C11.1425 16.767 11.0501 16.794 10.9556 16.7942Z" fill="url(#paint2_linear_678_326)" fill-opacity="0.5"/>
<path d="M10.5113 14.4113C10.4026 14.4123 10.2966 14.3778 10.2093 14.3131C10.1219 14.2484 10.0581 14.1571 10.0273 14.0529C9.99653 13.9486 10.0006 13.8372 10.0388 13.7355C10.077 13.6338 10.1473 13.5473 10.239 13.4891L13.1557 11.6168C13.267 11.5432 13.4029 11.5167 13.5337 11.5433C13.6644 11.5698 13.7793 11.6473 13.8529 11.7585C13.9266 11.8698 13.9531 12.0057 13.9265 12.1365C13.8999 12.2672 13.8225 12.3821 13.7113 12.4557L10.7779 14.3335C10.6982 14.3841 10.6057 14.4111 10.5113 14.4113Z" fill="url(#paint3_linear_678_326)" fill-opacity="0.5"/>
<path d="M11.9777 3.16102C12.1595 3.45298 12.2627 3.78699 12.2773 4.13062C12.2919 4.47424 12.2174 4.81581 12.061 5.12214L10.461 8.33325H11.711L13.061 5.62769C13.301 5.15283 13.4154 4.62446 13.3933 4.09288C13.3712 3.5613 13.2134 3.04422 12.935 2.59088C12.6565 2.13754 12.2666 1.76303 11.8025 1.50302C11.3383 1.243 10.8153 1.10614 10.2833 1.10547H7.36659L6.81104 2.21658H10.2666C10.6087 2.215 10.9455 2.30095 11.245 2.46626C11.5445 2.63157 11.7967 2.87074 11.9777 3.16102Z" fill="url(#paint4_linear_678_326)" fill-opacity="0.5"/>
<path d="M18.2833 11.5445C18.0792 10.9326 17.6876 10.4004 17.1641 10.0235C16.6406 9.64659 16.0117 9.44401 15.3666 9.4445H5.1722C4.90681 9.44618 4.64383 9.39412 4.39909 9.29147C4.15435 9.18882 3.93291 9.0377 3.74813 8.8472C3.56334 8.6567 3.41902 8.43078 3.32386 8.18303C3.2287 7.93528 3.18467 7.67083 3.19443 7.40561C3.2072 7.10656 3.28694 6.81419 3.42776 6.55006L5.79443 1.83339C5.86073 1.70152 5.87193 1.54871 5.82557 1.40858C5.77921 1.26845 5.67907 1.15247 5.5472 1.08617C5.41533 1.01986 5.26252 1.00866 5.12239 1.05502C4.98226 1.10139 4.86629 1.20152 4.79998 1.33339L2.44443 6.02228C2.24718 6.39263 2.12592 6.79866 2.08776 7.21652C2.0496 7.63438 2.09531 8.05566 2.2222 8.45561C2.42723 9.07025 2.82134 9.60433 3.34818 9.9815C3.87502 10.3587 4.50762 10.5596 5.15554 10.5556H9.37776L7.46665 14.3723C7.14562 15.0119 7.05323 15.7421 7.20484 16.4416C7.35645 17.141 7.74292 17.7674 8.29998 18.2167C8.84375 18.6601 9.52618 18.8981 10.2278 18.8889H13.1444L13.7 17.7778H10.2389C9.89679 17.781 9.55969 17.6958 9.26014 17.5306C8.96059 17.3654 8.70872 17.1257 8.52887 16.8347C8.34902 16.5437 8.24727 16.2112 8.23345 15.8694C8.21963 15.5276 8.29421 15.188 8.44998 14.8834L10.6166 10.5556H15.3611C15.7925 10.5477 16.2137 10.6868 16.5555 10.9501C16.9194 11.2321 17.1738 11.6319 17.2751 12.0809C17.3765 12.5299 17.3185 13.0002 17.1111 13.4112L14.8222 17.9778C14.7559 18.1097 14.7447 18.2625 14.7911 18.4026C14.8374 18.5428 14.9376 18.6588 15.0694 18.7251C15.2013 18.7914 15.3541 18.8026 15.4942 18.7562C15.6344 18.7098 15.7503 18.6097 15.8166 18.4778L18.0722 13.9778C18.2676 13.6067 18.387 13.2003 18.4232 12.7825C18.4595 12.3646 18.4119 11.9437 18.2833 11.5445Z" fill="url(#paint5_linear_678_326)" fill-opacity="0.5"/>
</g>
<defs>
<linearGradient id="paint0_linear_678_326" x1="10.4052" y1="5.16666" x2="4.42871" y2="5.16666" gradientUnits="userSpaceOnUse">
<stop stop-color="#19BFCD"/>
<stop offset="1" stop-color="#0D6067"/>
</linearGradient>
<linearGradient id="paint1_linear_678_326" x1="10.7829" y1="6.95591" x2="6.85645" y2="6.95591" gradientUnits="userSpaceOnUse">
<stop stop-color="#19BFCD"/>
<stop offset="1" stop-color="#0D6067"/>
</linearGradient>
<linearGradient id="paint2_linear_678_326" x1="16.4277" y1="14.6999" x2="10.4512" y2="14.6999" gradientUnits="userSpaceOnUse">
<stop stop-color="#19BFCD"/>
<stop offset="1" stop-color="#0D6067"/>
</linearGradient>
<linearGradient id="paint3_linear_678_326" x1="13.9366" y1="12.9723" x2="10.0068" y2="12.9723" gradientUnits="userSpaceOnUse">
<stop stop-color="#19BFCD"/>
<stop offset="1" stop-color="#0D6067"/>
</linearGradient>
<linearGradient id="paint4_linear_678_326" x1="13.396" y1="4.71939" x2="6.81104" y2="4.71939" gradientUnits="userSpaceOnUse">
<stop stop-color="#19BFCD"/>
<stop offset="1" stop-color="#0D6067"/>
</linearGradient>
<linearGradient id="paint5_linear_678_326" x1="18.435" y1="9.95811" x2="2.07471" y2="9.95811" gradientUnits="userSpaceOnUse">
<stop stop-color="#19BFCD"/>
<stop offset="1" stop-color="#0D6067"/>
</linearGradient>
<clipPath id="clip0_678_326">
<rect width="20" height="20" fill="white"/>
</clipPath>
</defs>
</svg>
