<svg width="21" height="20" viewBox="0 0 21 20" fill="none" xmlns="http://www.w3.org/2000/svg">
<path d="M12.8157 4.92881C12.7577 4.9869 12.6888 5.03299 12.613 5.06443C12.5372 5.09588 12.4559 5.11206 12.3738 5.11206C12.2917 5.11206 12.2104 5.09588 12.1346 5.06443C12.0588 5.03299 11.9899 4.9869 11.9319 4.92881C11.7605 4.7569 11.5568 4.62061 11.3325 4.52782C11.1082 4.43504 10.8678 4.38758 10.625 4.38819C10.1125 4.38819 9.65442 4.59381 9.31817 4.92881C9.26014 4.98684 9.19125 5.03287 9.11543 5.06427C9.03962 5.09568 8.95836 5.11184 8.87629 5.11184C8.71056 5.11184 8.55161 5.046 8.43442 4.92881C8.37639 4.87078 8.33036 4.80189 8.29895 4.72608C8.26755 4.65026 8.25139 4.569 8.25139 4.48694C8.25139 4.3212 8.31722 4.16225 8.43442 4.04506C8.72191 3.75718 9.06341 3.52888 9.43933 3.37326C9.81525 3.21763 10.2182 3.13775 10.625 3.13819C11.0319 3.13775 11.4348 3.21763 11.8108 3.37326C12.1867 3.52888 12.5282 3.75718 12.8157 4.04506C12.9328 4.16227 12.9987 4.32121 12.9987 4.48694C12.9987 4.65266 12.9328 4.81161 12.8157 4.92881ZM5.55879 4.33194C5.00686 4.65472 4.50754 5.06003 4.07817 5.53381L4.07754 5.53444C3.64705 6.01029 3.29228 6.54951 3.02567 7.13319C2.75216 7.73224 2.57598 8.37111 2.50379 9.02568C2.49476 9.10727 2.50189 9.18983 2.52477 9.26866C2.54765 9.34749 2.58583 9.42104 2.63714 9.48511C2.68844 9.54918 2.75187 9.60252 2.82378 9.64209C2.8957 9.68165 2.97471 9.70666 3.05629 9.71568C3.13788 9.72471 3.22044 9.71758 3.29927 9.6947C3.3781 9.67182 3.45165 9.63364 3.51572 9.58234C3.57979 9.53103 3.63313 9.46761 3.67269 9.39569C3.71226 9.32378 3.73726 9.24477 3.74629 9.16319C3.80418 8.64051 3.94489 8.13037 4.16317 7.65194C4.59161 6.71414 5.29929 5.93159 6.18942 5.41131C6.26029 5.3699 6.32231 5.31494 6.37195 5.24956C6.42158 5.18419 6.45785 5.10967 6.47868 5.03028C6.49952 4.95089 6.50451 4.86817 6.49338 4.78684C6.48224 4.70552 6.4552 4.62718 6.41379 4.55631C6.37239 4.48544 6.31742 4.42341 6.25205 4.37378C6.18667 4.32415 6.11216 4.28788 6.03276 4.26705C5.87242 4.22497 5.70193 4.24831 5.55879 4.33194ZM15 11.3126C15 11.1468 15.0659 10.9878 15.1831 10.8706C15.3003 10.7534 15.4593 10.6876 15.625 10.6876C15.7908 10.6876 15.9498 10.7534 16.067 10.8706C16.1842 10.9878 16.25 11.1468 16.25 11.3126C16.2492 11.8764 16.0302 12.4181 15.639 12.8242C15.2479 13.2303 14.7147 13.4694 14.1513 13.4913C14.2907 13.7782 14.375 14.0969 14.375 14.4376C14.375 14.6033 14.3092 14.7623 14.192 14.8795C14.0748 14.9967 13.9158 15.0626 13.75 15.0626C13.5843 15.0626 13.4253 14.9967 13.3081 14.8795C13.1909 14.7623 13.125 14.6033 13.125 14.4376C13.1247 14.189 13.0258 13.9508 12.8501 13.775C12.6743 13.5993 12.4361 13.5004 12.1875 13.5001H8.32379C8.15803 13.5001 7.99906 13.4342 7.88185 13.317C7.76464 13.1998 7.69879 13.0408 7.69879 12.8751C7.69879 12.7093 7.76464 12.5503 7.88185 12.4331C7.99906 12.3159 8.15803 12.2501 8.32379 12.2501H9.68754C9.93603 12.2496 10.1742 12.1506 10.3499 11.9749C10.5256 11.7992 10.6245 11.561 10.625 11.3126C10.625 11.1468 10.6909 10.9878 10.8081 10.8706C10.9253 10.7534 11.0843 10.6876 11.25 10.6876C11.4158 10.6876 11.5748 10.7534 11.692 10.8706C11.8092 10.9878 11.875 11.1468 11.875 11.3126C11.875 11.6494 11.7925 11.9651 11.6563 12.2501H14.0625C14.311 12.2496 14.5492 12.1506 14.7249 11.9749C14.9006 11.7992 14.9995 11.561 15 11.3126Z" fill="url(#paint0_linear_665_318)" fill-opacity="0.5"/>
<path d="M20 10.8194C20 10.4269 19.9719 10.0469 19.9287 9.67813C19.3619 4.79188 15.2175 1.00125 10.1806 1H9.41063C4.2125 1.00063 0.000625 5.2125 0 10.4106C0 10.8984 0.0960751 11.3814 0.28274 11.8321C0.469405 12.2827 0.743004 12.6922 1.08792 13.0371C1.7845 13.7337 2.72926 14.125 3.71438 14.125H4.49C4.7002 15.0142 5.20427 15.8064 5.92066 16.3735C6.63704 16.9407 7.52381 17.2495 8.4375 17.25H12.8775L14.825 19.1975C14.8906 19.263 14.974 19.3076 15.0649 19.3256C15.1558 19.3437 15.25 19.3344 15.3356 19.2989C15.4212 19.2635 15.4944 19.2035 15.5459 19.1265C15.5974 19.0494 15.6249 18.9589 15.625 18.8663V17.1981C16.5857 17.0785 17.4909 16.6821 18.2304 16.0573C18.9699 15.4324 19.5118 14.606 19.79 13.6787C19.8794 13.38 19.9306 13.065 19.9631 12.7444L19.965 12.7394C19.9825 12.6819 20 12.625 20 12.5625C20 12.5244 19.9975 12.4863 19.995 12.4488L19.9906 12.3769C19.9906 12.3569 19.9931 12.3375 19.995 12.3188C19.9975 12.2956 20 12.2731 20 12.25V10.8194ZM18.5925 13.3219C18.3617 14.0955 17.8875 14.774 17.2402 15.2565C16.593 15.739 15.8073 15.9998 15 16H8.4375C7.7361 15.9999 7.06007 15.7377 6.54213 15.2647C6.02418 14.7917 5.70175 14.1423 5.63812 13.4438L5.63438 13.4038C5.65527 12.592 5.99294 11.8207 6.57517 11.2547C7.15741 10.6887 7.93799 10.3729 8.75 10.375C8.91576 10.375 9.07473 10.3092 9.19194 10.1919C9.30915 10.0747 9.375 9.91576 9.375 9.75C9.375 9.58424 9.30915 9.42527 9.19194 9.30806C9.07473 9.19085 8.91576 9.125 8.75 9.125C8.01593 9.12403 7.29354 9.30872 6.65 9.66187C6.52689 9.38585 6.35497 9.13432 6.1425 8.91937C6.02531 8.80218 5.86636 8.73634 5.70063 8.73634C5.53489 8.73634 5.37594 8.80218 5.25875 8.91937C5.14156 9.03657 5.07572 9.19551 5.07572 9.36125C5.07572 9.52699 5.14156 9.68593 5.25875 9.80313C5.43625 9.98125 5.55687 10.2094 5.6025 10.465C4.96672 11.1248 4.55475 11.968 4.425 12.875H3.71438C3.39059 12.8755 3.06991 12.8119 2.77076 12.6881C2.47161 12.5642 2.1999 12.3824 1.97125 12.1531C1.7421 11.9246 1.56041 11.6529 1.43663 11.3539C1.31285 11.0548 1.24943 10.7343 1.25 10.4106C1.25 8.155 2.1625 6.11875 3.64 4.64C4.39688 3.88095 5.29636 3.27903 6.2867 2.86887C7.27704 2.4587 8.33871 2.24838 9.41063 2.25H10.1806C14.3619 2.24875 17.8344 5.25 18.5875 9.21187C17.8988 8.53907 17.0191 8.09532 16.0687 7.94125C16.3831 7.365 16.5625 6.70312 16.5625 6C16.5625 5.83424 16.4967 5.67527 16.3794 5.55806C16.2622 5.44085 16.1033 5.375 15.9375 5.375C15.7717 5.375 15.6128 5.44085 15.4956 5.55806C15.3783 5.67527 15.3125 5.83424 15.3125 6C15.3132 6.36944 15.2407 6.73536 15.0993 7.07668C14.958 7.418 14.7504 7.72797 14.4887 7.98875C14.228 8.25044 13.918 8.45795 13.5767 8.59933C13.2354 8.7407 12.8694 8.81315 12.5 8.8125C12.3342 8.8125 12.1753 8.87835 12.0581 8.99556C11.9408 9.11277 11.875 9.27174 11.875 9.4375C11.875 9.60326 11.9408 9.76223 12.0581 9.87944C12.1753 9.99665 12.3342 10.0625 12.5 10.0625C13.4663 10.0631 14.4008 9.71765 15.1344 9.08875L15.1444 9.09188C15.1984 9.11134 15.2551 9.12251 15.3125 9.125C16.2638 9.125 17.1194 9.50875 17.7431 10.1319C18.342 10.731 18.6974 11.5309 18.7406 12.3769C18.7318 12.6969 18.682 13.0145 18.5925 13.3219Z" fill="url(#paint1_linear_665_318)" fill-opacity="0.5"/>
<defs>
<linearGradient id="paint0_linear_665_318" x1="16.25" y1="9.10043" x2="2.5" y2="9.10043" gradientUnits="userSpaceOnUse">
<stop stop-color="#19BFCD"/>
<stop offset="1" stop-color="#0D6067"/>
</linearGradient>
<linearGradient id="paint1_linear_665_318" x1="20" y1="10.1674" x2="0" y2="10.1674" gradientUnits="userSpaceOnUse">
<stop stop-color="#19BFCD"/>
<stop offset="1" stop-color="#0D6067"/>
</linearGradient>
</defs>
</svg>
