<svg width="20" height="20" viewBox="0 0 20 20" fill="none" xmlns="http://www.w3.org/2000/svg">
<path d="M2.5 10.8335C2.5 12.8226 3.29018 14.7303 4.6967 16.1368C6.10322 17.5433 8.01088 18.3335 10 18.3335C10 14.1668 6.64167 10.8335 2.5 10.8335ZM10 4.5835C10.5525 4.5835 11.0824 4.80299 11.4731 5.19369C11.8638 5.58439 12.0833 6.1143 12.0833 6.66683C12.0833 7.21936 11.8638 7.74927 11.4731 8.13997C11.0824 8.53067 10.5525 8.75016 10 8.75016C9.44747 8.75016 8.91756 8.53067 8.52686 8.13997C8.13616 7.74927 7.91667 7.21936 7.91667 6.66683C7.91667 6.1143 8.13616 5.58439 8.52686 5.19369C8.91756 4.80299 9.44747 4.5835 10 4.5835ZM4.66667 8.54183C4.66667 9.09436 4.88616 9.62427 5.27686 10.015C5.66756 10.4057 6.19747 10.6252 6.75 10.6252C7.19167 10.6252 7.6 10.4835 7.91667 10.2585V10.4168C7.91667 10.9694 8.13616 11.4993 8.52686 11.89C8.91756 12.2807 9.44747 12.5002 10 12.5002C10.5525 12.5002 11.0824 12.2807 11.4731 11.89C11.8638 11.4993 12.0833 10.9694 12.0833 10.4168V10.2585C12.4 10.4835 12.8083 10.6252 13.25 10.6252C13.8025 10.6252 14.3324 10.4057 14.7231 10.015C15.1138 9.62427 15.3333 9.09436 15.3333 8.54183C15.3333 7.7085 14.8417 7.00016 14.1417 6.66683C14.8417 6.3335 15.3333 5.61683 15.3333 4.79183C15.3333 4.2393 15.1138 3.70939 14.7231 3.31869C14.3324 2.92799 13.8025 2.7085 13.25 2.7085C12.8083 2.7085 12.4 2.84183 12.0833 3.07516V2.91683C12.0833 2.3643 11.8638 1.83439 11.4731 1.44369C11.0824 1.05299 10.5525 0.833496 10 0.833496C9.44747 0.833496 8.91756 1.05299 8.52686 1.44369C8.13616 1.83439 7.91667 2.3643 7.91667 2.91683V3.07516C7.6 2.84183 7.19167 2.7085 6.75 2.7085C6.19747 2.7085 5.66756 2.92799 5.27686 3.31869C4.88616 3.70939 4.66667 4.2393 4.66667 4.79183C4.66667 5.61683 5.15833 6.3335 5.85833 6.66683C5.15833 7.00016 4.66667 7.7085 4.66667 8.54183ZM10 18.3335C11.9891 18.3335 13.8968 17.5433 15.3033 16.1368C16.7098 14.7303 17.5 12.8226 17.5 10.8335C13.3333 10.8335 10 14.1668 10 18.3335Z" fill="url(#paint0_linear_665_305)" fill-opacity="0.5"/>
<defs>
<linearGradient id="paint0_linear_665_305" x1="17.5" y1="9.58358" x2="2.5" y2="9.58358" gradientUnits="userSpaceOnUse">
<stop stop-color="#19BFCD"/>
<stop offset="1" stop-color="#0D6067"/>
</linearGradient>
</defs>
</svg>
