<svg width="20" height="20" viewBox="0 0 20 20" fill="none" xmlns="http://www.w3.org/2000/svg">
<path d="M17.0833 18.3335H11.6667C11.9167 18.0002 12.0833 17.5835 12.0833 17.0835V17.0002C13.0833 16.5835 14.0833 16.0002 14.8333 15.1668C17.3333 12.4168 17.25 8.16683 14.6667 5.50016L15.0833 5.0835C15.1667 5.00016 15.25 5.00016 15.25 4.91683L15.8333 3.16683C15.9167 3.00016 15.8333 2.8335 15.75 2.75016L14 1.00016C13.8333 0.833496 13.6667 0.833496 13.5 0.833496L11.75 1.41683C11.6667 1.41683 11.6667 1.50016 11.5833 1.50016L6.33333 6.8335C6.16667 7.00016 6.16667 7.25016 6.33333 7.41683L6.66667 7.75016L5.08333 9.16683C4.91667 9.3335 4.91667 9.5835 5.08333 9.75016L6.83333 11.5002C7 11.6668 7.08333 11.6668 7.16667 11.6668C7.25 11.6668 7.41667 11.6668 7.5 11.5835L9 10.0835L9.33333 10.4168C9.41667 10.5002 9.5 10.5002 9.66667 10.5002C9.75 10.5002 9.91667 10.4168 10 10.4168L14.25 6.16683C14.9167 6.8335 15.4167 7.66683 15.6667 8.5835C16.6667 11.7502 15.0833 15.0835 12 16.2502C11.5833 15.5002 10.8333 15.0002 10 15.0002C9.08333 15.0002 8.25 15.5835 8 16.5002C7 16.2502 6.08333 15.7502 5.33333 15.0002H6.25C6.5 15.0002 6.66667 14.8335 6.66667 14.5835C6.66667 14.3335 6.5 14.1668 6.25 14.1668H2.91667C2.66667 14.1668 2.5 14.3335 2.5 14.5835C2.5 14.8335 2.66667 15.0002 2.91667 15.0002H4.16667C5.16667 16.1668 6.41667 16.9168 7.91667 17.3335C7.91667 17.7502 8.08333 18.0835 8.33333 18.3335H2.91667C2.66667 18.3335 2.5 18.5002 2.5 18.7502C2.5 19.0002 2.66667 19.1668 2.91667 19.1668H17.0833C17.3333 19.1668 17.5 19.0002 17.5 18.7502C17.5 18.5002 17.3333 18.3335 17.0833 18.3335ZM7.16667 10.6668L6 9.50016L7.16667 8.3335L8.33333 9.50016L7.16667 10.6668ZM13.8333 5.25016C13.75 5.25016 13.75 5.25016 13.8333 5.25016L9.58333 9.50016L7.16667 7.16683L12.0833 2.25016L13.5 1.75016L14.9167 3.16683L14.4167 4.5835L13.8333 5.25016ZM10 18.3335C9.33333 18.3335 8.75 17.7502 8.75 17.0835C8.75 16.4168 9.33333 15.8335 10 15.8335C10.6667 15.8335 11.25 16.4168 11.25 17.0835C11.25 17.7502 10.6667 18.3335 10 18.3335Z" fill="url(#paint0_linear_665_163)" fill-opacity="0.5"/>
<defs>
<linearGradient id="paint0_linear_665_163" x1="17.5" y1="10.0003" x2="2.5" y2="10.0003" gradientUnits="userSpaceOnUse">
<stop stop-color="#19BFCD"/>
<stop offset="1" stop-color="#0D6067"/>
</linearGradient>
</defs>
</svg>
