<svg width="20" height="21" viewBox="0 0 20 21" fill="none" xmlns="http://www.w3.org/2000/svg">
<path d="M6.4415 7.83516C6.62218 7.83516 6.79546 7.76338 6.92322 7.63562C7.05098 7.50786 7.12275 7.33459 7.12275 7.15391C7.12275 6.97323 7.05098 6.79995 6.92322 6.67219C6.79546 6.54443 6.62218 6.47266 6.4415 6.47266C6.26083 6.47266 6.08755 6.54443 5.95979 6.67219C5.83203 6.79995 5.76025 6.97323 5.76025 7.15391C5.76025 7.33459 5.83203 7.50786 5.95979 7.63562C6.08755 7.76338 6.26083 7.83516 6.4415 7.83516ZM10.7978 13.7789C10.7978 13.9596 10.726 14.1329 10.5982 14.2606C10.4705 14.3884 10.2972 14.4602 10.1165 14.4602C9.93583 14.4602 9.76255 14.3884 9.63479 14.2606C9.50703 14.1329 9.43525 13.9596 9.43525 13.7789C9.43525 13.5982 9.50703 13.4249 9.63479 13.2972C9.76255 13.1694 9.93583 13.0977 10.1165 13.0977C10.2972 13.0977 10.4705 13.1694 10.5982 13.2972C10.726 13.4249 10.7978 13.5982 10.7978 13.7789ZM10.9478 12.2477C11.1284 12.2477 11.3017 12.1759 11.4295 12.0481C11.5572 11.9204 11.629 11.7471 11.629 11.5664C11.629 11.3857 11.5572 11.2124 11.4295 11.0847C11.3017 10.9569 11.1284 10.8852 10.9478 10.8852C10.7671 10.8852 10.5938 10.9569 10.466 11.0847C10.3383 11.2124 10.2665 11.3857 10.2665 11.5664C10.2665 11.7471 10.3383 11.9204 10.466 12.0481C10.5938 12.1759 10.7671 12.2477 10.9478 12.2477ZM13.9478 13.0977C13.9478 13.3695 13.8398 13.6302 13.6475 13.8224C13.4553 14.0147 13.1946 14.1227 12.9228 14.1227C12.6509 14.1227 12.3902 14.0147 12.198 13.8224C12.0057 13.6302 11.8978 13.3695 11.8978 13.0977C11.8978 12.8258 12.0057 12.5651 12.198 12.3729C12.3902 12.1806 12.6509 12.0727 12.9228 12.0727C13.1946 12.0727 13.4553 12.1806 13.6475 12.3729C13.8398 12.5651 13.9478 12.8258 13.9478 13.0977Z" fill="url(#paint0_linear_665_258)" fill-opacity="0.5"/>
<path d="M6.00567 3.26573L5.90317 2.79073C5.86029 2.61826 5.752 2.46923 5.6012 2.37518C5.45041 2.28113 5.26894 2.24942 5.09519 2.28677C4.92144 2.32412 4.76903 2.42759 4.67021 2.5753C4.57138 2.72301 4.53389 2.90337 4.56567 3.07823L4.66879 3.55822C4.1141 3.78691 3.61859 4.13858 3.21962 4.5867C2.82066 5.03482 2.52867 5.56768 2.36567 6.1451L1.99692 6.1101C1.81707 6.09269 1.63767 6.14745 1.49819 6.26231C1.35871 6.37718 1.27057 6.54275 1.25317 6.7226C1.23577 6.90245 1.29052 7.08185 1.40538 7.22133C1.52025 7.36081 1.68582 7.44895 1.86567 7.46635L2.21879 7.49948V8.78572C2.21879 9.3326 2.26567 9.86885 2.35629 10.3901L2.00942 10.4914C1.83847 10.5453 1.69553 10.6643 1.61133 10.8225C1.52713 10.9808 1.5084 11.1658 1.55916 11.3377C1.60992 11.5097 1.72613 11.6548 1.88279 11.742C2.03945 11.8292 2.22406 11.8514 2.39692 11.8038L2.6888 11.7182C2.96589 12.5555 3.36067 13.3491 3.86129 14.0751L3.63442 14.272C3.50234 14.3918 3.42241 14.5586 3.41172 14.7366C3.40104 14.9146 3.46045 15.0897 3.57724 15.2244C3.69403 15.3592 3.85893 15.4429 4.03665 15.4576C4.21437 15.4724 4.39079 15.4169 4.52817 15.3032L4.71567 15.1407C5.34901 15.8216 6.08014 16.4044 6.88504 16.8701L6.70379 17.1845C6.51629 17.5095 6.6288 17.9282 6.95379 18.1157C7.27879 18.3032 7.69754 18.1907 7.88505 17.8657L8.11629 17.4657C9.14317 17.8732 10.26 18.1032 11.4288 18.1182V18.4907C11.4288 18.8657 11.735 19.172 12.11 19.172C12.485 19.172 12.7913 18.8657 12.7913 18.4907V18.1189H12.9669C14.1605 18.1206 15.3157 17.6974 16.2257 16.9251L16.4538 17.1539C16.7225 17.4226 17.1538 17.4226 17.4225 17.1539C17.6913 16.8851 17.6913 16.4539 17.4225 16.1851L17.1432 15.9057C17.7112 15.0705 18.0142 14.0833 18.0125 13.0732C18.0127 12.724 17.9728 12.3759 17.8938 12.0357L18.2594 11.9282C18.4304 11.8742 18.5733 11.7553 18.6575 11.597C18.7417 11.4388 18.7604 11.2538 18.7097 11.0818C18.6589 10.9099 18.5427 10.7647 18.3861 10.6776C18.2294 10.5904 18.0448 10.5682 17.8719 10.6157L17.3819 10.7595C16.8287 9.82371 15.96 9.11574 14.9319 8.7626L15.0288 8.3726C15.0704 8.19698 15.0413 8.01203 14.9478 7.85768C14.8542 7.70333 14.7037 7.59196 14.5288 7.5476C14.3532 7.50597 14.1682 7.53506 14.0139 7.62861C13.8595 7.72216 13.7482 7.87265 13.7038 8.0476L13.5857 8.52073C13.4919 8.51828 13.3981 8.5187 13.3044 8.52198L11.3013 8.58947L11.3282 8.56635C11.4602 8.44653 11.5402 8.27977 11.5509 8.10177C11.5616 7.92376 11.5021 7.74864 11.3854 7.61388C11.2686 7.47912 11.1037 7.39542 10.9259 7.3807C10.7482 7.36598 10.5718 7.4214 10.4344 7.5351L10.125 7.80385V7.21572C10.125 6.63885 10.0013 6.09072 9.77942 5.59698L10.1469 5.38447C10.4719 5.19697 10.5844 4.77822 10.3969 4.45323C10.2094 4.12823 9.79067 4.01573 9.46567 4.20323L9.01192 4.46572C8.62433 4.06429 8.15592 3.74973 7.63767 3.54286C7.11942 3.33599 6.56316 3.24153 6.00567 3.26573ZM3.4688 7.21572C3.4688 6.49881 3.75359 5.81126 4.26052 5.30433C4.76746 4.79739 5.45501 4.5126 6.17192 4.5126C6.88883 4.5126 7.57638 4.79739 8.08332 5.30433C8.59025 5.81126 8.87504 6.49881 8.87504 7.21572V7.89447C8.87506 8.15751 8.92801 8.41786 9.03073 8.66001C9.13345 8.90216 9.28385 9.12117 9.47297 9.30399C9.66209 9.48681 9.88606 9.62971 10.1316 9.72417C10.377 9.81864 10.639 9.86274 10.9019 9.85385L13.3463 9.77135C13.7893 9.75634 14.2309 9.83063 14.6446 9.9898C15.0584 10.149 15.4359 10.3898 15.7546 10.6978C16.0734 11.0059 16.3269 11.375 16.5 11.7831C16.6732 12.1912 16.7625 12.6299 16.7625 13.0732C16.7625 14.0799 16.3626 15.0453 15.6508 15.7571C14.939 16.469 13.9736 16.8688 12.9669 16.8689H11.5519C7.08754 16.8689 3.4688 13.2501 3.4688 8.78572V7.21572Z" fill="url(#paint1_linear_665_258)" fill-opacity="0.5"/>
<defs>
<linearGradient id="paint0_linear_665_258" x1="13.9478" y1="10.4664" x2="5.76025" y2="10.4664" gradientUnits="userSpaceOnUse">
<stop stop-color="#19BFCD"/>
<stop offset="1" stop-color="#0D6067"/>
</linearGradient>
<linearGradient id="paint1_linear_665_258" x1="18.7377" y1="10.7218" x2="1.25" y2="10.7218" gradientUnits="userSpaceOnUse">
<stop stop-color="#19BFCD"/>
<stop offset="1" stop-color="#0D6067"/>
</linearGradient>
</defs>
</svg>
