<svg width="20" height="21" viewBox="0 0 20 21" fill="none" xmlns="http://www.w3.org/2000/svg">
<g clip-path="url(#clip0_665_311)">
<path d="M0.912598 11.0001C0.912598 13.4628 1.89091 15.8247 3.63232 17.5661C5.37373 19.3075 7.73559 20.2858 10.1983 20.2858C12.661 20.2858 15.0229 19.3075 16.7643 17.5661C18.5057 15.8247 19.484 13.4628 19.484 11.0001C19.484 8.53735 18.5057 6.17549 16.7643 4.43408C15.0229 2.69267 12.661 1.71436 10.1983 1.71436C7.73559 1.71436 5.37373 2.69267 3.63232 4.43408C1.89091 6.17549 0.912598 8.53735 0.912598 11.0001Z" stroke="url(#paint0_linear_665_311)" stroke-opacity="0.5" stroke-linecap="round" stroke-linejoin="round"/>
<path d="M3.81104 11.9487C4.21961 11.7501 5.23104 11.5029 6.00389 12.0987C6.77532 12.6944 6.79532 13.7358 6.70818 14.1815C6.62246 14.6272 6.64104 15.6672 7.41389 16.2629C8.18532 16.8587 9.19818 16.6115 9.60675 16.4129M12.8167 10.2858C13.2443 10.2863 13.664 10.1716 14.0319 9.95391C14.3999 9.7362 14.7024 9.42347 14.9078 9.04853C15.1132 8.67359 15.2139 8.25027 15.1993 7.82301C15.1847 7.39574 15.0553 6.98029 14.8248 6.62025C14.5943 6.26022 14.2711 5.96887 13.8891 5.77681C13.5072 5.58474 13.0806 5.49904 12.6541 5.52868C12.2276 5.55833 11.817 5.70224 11.4653 5.9453C11.1136 6.18837 10.8338 6.52162 10.6553 6.91009C10.3564 6.75754 10.0206 6.6923 9.68628 6.72186C9.352 6.75142 9.03281 6.87458 8.76531 7.07722C8.4978 7.27986 8.29282 7.55377 8.17384 7.86756C8.05487 8.18135 8.02673 8.52232 8.09264 8.85137C8.15855 9.18042 8.31585 9.48424 8.54651 9.728C8.77717 9.97175 9.07184 10.1456 9.39676 10.2295C9.72167 10.3135 10.0637 10.3042 10.3835 10.2028C10.7034 10.1013 10.9882 9.91172 11.2053 9.65581C11.6447 10.0619 12.2213 10.287 12.8196 10.2858H12.8167ZM11.9839 13.8572C11.8892 13.8572 11.7983 13.8196 11.7314 13.7526C11.6644 13.6857 11.6267 13.5948 11.6267 13.5001C11.6267 13.4054 11.6644 13.3145 11.7314 13.2476C11.7983 13.1806 11.8892 13.1429 11.9839 13.1429C12.0786 13.1429 12.1695 13.1806 12.2364 13.2476C12.3034 13.3145 12.341 13.4054 12.341 13.5001C12.341 13.5948 12.3034 13.6857 12.2364 13.7526C12.1695 13.8196 12.0786 13.8572 11.9839 13.8572ZM4.84104 8.85723C4.74631 8.85723 4.65547 8.81961 4.5885 8.75263C4.52152 8.68565 4.48389 8.59481 4.48389 8.50009C4.48389 8.40537 4.52152 8.31453 4.5885 8.24755C4.65547 8.18058 4.74631 8.14295 4.84104 8.14295C4.93576 8.14295 5.0266 8.18058 5.09357 8.24755C5.16055 8.31453 5.19818 8.40537 5.19818 8.50009C5.19818 8.59481 5.16055 8.68565 5.09357 8.75263C5.0266 8.81961 4.93576 8.85723 4.84104 8.85723ZM14.841 15.2858C14.7463 15.2858 14.6555 15.2482 14.5885 15.1812C14.5215 15.1142 14.4839 15.0234 14.4839 14.9287C14.4839 14.8339 14.5215 14.7431 14.5885 14.6761C14.6555 14.6091 14.7463 14.5715 14.841 14.5715C14.9358 14.5715 15.0266 14.6091 15.0936 14.6761C15.1606 14.7431 15.1982 14.8339 15.1982 14.9287C15.1982 15.0234 15.1606 15.1142 15.0936 15.1812C15.0266 15.2482 14.9358 15.2858 14.841 15.2858Z" stroke="url(#paint1_linear_665_311)" stroke-opacity="0.5" stroke-linecap="round" stroke-linejoin="round"/>
</g>
<defs>
<linearGradient id="paint0_linear_665_311" x1="19.484" y1="11.0002" x2="0.912598" y2="11.0002" gradientUnits="userSpaceOnUse">
<stop stop-color="#19BFCD"/>
<stop offset="1" stop-color="#0D6067"/>
</linearGradient>
<linearGradient id="paint1_linear_665_311" x1="15.2007" y1="11.08" x2="3.81104" y2="11.08" gradientUnits="userSpaceOnUse">
<stop stop-color="#19BFCD"/>
<stop offset="1" stop-color="#0D6067"/>
</linearGradient>
<clipPath id="clip0_665_311">
<rect width="20" height="20" fill="white" transform="translate(0 0.951172)"/>
</clipPath>
</defs>
</svg>
